Jomhuria-Regular.ufo
<glyph name="exclam" format="1">
  <advance width="581"/>
  <unicode hex="0021"/>
  <outline>
    <contour>
      <point x="438.317" y="1226.29" type="curve" smooth="yes"/>
      <point x="496.475" y="1147.83"/>
      <point x="461.413" y="1026.78"/>
      <point x="457.239" y="1013.43" type="curve" smooth="yes"/>
      <point x="380.996" y="769.947"/>
      <point x="359.57" y="556.243"/>
      <point x="357.344" y="436.034" type="curve"/>
      <point x="224.057" y="436.034" type="line"/>
      <point x="221.831" y="556.243"/>
      <point x="200.127" y="770.226"/>
      <point x="124.161" y="1013.15" type="curve" smooth="yes"/>
      <point x="119.987" y="1026.5"/>
      <point x="85.2051" y="1147.55"/>
      <point x="143.083" y="1226.29" type="curve" smooth="yes"/>
      <point x="173.97" y="1268.31"/>
      <point x="223.778" y="1289.74"/>
      <point x="290.562" y="1289.74" type="curve" smooth="yes"/>
      <point x="357.622" y="1289.74"/>
      <point x="407.152" y="1268.31"/>
    </contour>
    <contour>
      <point x="290.84" y="330.573" type="curve" smooth="yes"/>
      <point x="382.109" y="330.573"/>
      <point x="456.127" y="256.557"/>
      <point x="456.405" y="165.287" type="curve" smooth="yes"/>
      <point x="456.405" y="74.0176"/>
      <point x="382.109" y="0"/>
      <point x="290.84" y="0" type="curve" smooth="yes"/>
      <point x="199.57" y="0"/>
      <point x="125.553" y="74.0176"/>
      <point x="125.553" y="165.287" type="curve" smooth="yes"/>
      <point x="125.553" y="256.557"/>
      <point x="199.57" y="330.573"/>
    </contour>
  </outline>
</glyph>
<glyph name="parenleft" format="1">
  <advance width="592"/>
  <unicode hex="0028"/>
  <outline>
    <contour>
      <point x="110" y="608.408" type="curve" smooth="yes"/>
      <point x="110" y="209.383"/>
      <point x="220.47" y="-139"/>
      <point x="313.965" y="-363" type="curve"/>
      <point x="592.227" y="-363" type="line"/>
      <point x="592.227" y="-363"/>
      <point x="362.661" y="99.1914"/>
      <point x="362.661" y="608.408" type="curve" smooth="yes"/>
      <point x="362.661" y="1114.01"/>
      <point x="590.835" y="1577.03"/>
      <point x="590.835" y="1577.03" type="curve"/>
      <point x="312.574" y="1577.03" type="line"/>
      <point x="219.078" y="1351.92"/>
      <point x="110" y="1004.37"/>
    </contour>
  </outline>
</glyph>
<glyph name="parenright" format="1">
  <advance width="592"/>
  <unicode hex="0029"/>
  <outline>
    <contour>
      <point x="482.227" y="608.408" type="curve" smooth="yes"/>
      <point x="482.227" y="209.383"/>
      <point x="371.757" y="-139"/>
      <point x="278.262" y="-363" type="curve"/>
      <point x="0" y="-363" type="line"/>
      <point x="0" y="-363"/>
      <point x="229.565" y="99.1914"/>
      <point x="229.565" y="608.408" type="curve" smooth="yes"/>
      <point x="229.565" y="1114.01"/>
      <point x="1.3916" y="1577.03"/>
      <point x="1.3916" y="1577.03" type="curve"/>
      <point x="279.652" y="1577.03" type="line"/>
      <point x="373.148" y="1351.92"/>
      <point x="482.227" y="1004.37"/>
    </contour>
  </outline>
</glyph>
<glyph name="bracketleft" format="1">
  <advance width="627"/>
  <unicode hex="005B"/>
  <outline>
    <contour>
      <point x="627.113" y="1576.76" type="line"/>
      <point x="50" y="1577.04" type="line"/>
      <point x="50" y="-363" type="line"/>
      <point x="627.113" y="-363" type="line"/>
      <point x="627.113" y="-219.417" type="line"/>
      <point x="303.496" y="-219.417" type="line"/>
      <point x="303.496" y="1433.45" type="line"/>
      <point x="627.113" y="1433.45" type="line"/>
    </contour>
  </outline>
</glyph>
<glyph name="backslash" format="1">
  <advance width="874"/>
  <unicode hex="005C"/>
  <outline>
    <contour>
      <point x="374.627" y="1289.49" type="line"/>
      <point x="110" y="1289.49" type="line"/>
      <point x="500.627" y="0" type="line"/>
      <point x="764.627" y="0" type="line"/>
    </contour>
  </outline>
</glyph>
<glyph name="bracketright" format="1">
  <advance width="627"/>
  <unicode hex="005D"/>
  <outline>
    <contour>
      <point x="0" y="1576.76" type="line"/>
      <point x="577.113" y="1577.04" type="line"/>
      <point x="577.113" y="-363" type="line"/>
      <point x="0" y="-363" type="line"/>
      <point x="0" y="-219.417" type="line"/>
      <point x="323.617" y="-219.417" type="line"/>
      <point x="323.617" y="1433.45" type="line"/>
      <point x="0" y="1433.45" type="line"/>
    </contour>
  </outline>
</glyph>
<glyph name="braceleft" format="1">
  <advance width="587"/>
  <unicode hex="007B"/>
  <outline>
    <contour>
      <point x="144.782" y="615.922" type="curve" smooth="yes"/>
      <point x="110" y="615.922" type="line"/>
      <point x="110" y="540.792" type="line"/>
      <point x="144.782" y="540.792" type="line" smooth="yes"/>
      <point x="224.922" y="540.792"/>
      <point x="240.226" y="445.07"/>
      <point x="242.174" y="399.991" type="curve" smooth="yes"/>
      <point x="242.174" y="-1.53906" type="line" smooth="yes"/>
      <point x="242.174" y="-201.33"/>
      <point x="404.121" y="-363"/>
      <point x="603.635" y="-363" type="curve" smooth="yes"/>
      <point x="697.408" y="-363" type="line"/>
      <point x="697.408" y="-218.86" type="line"/>
      <point x="575.53" y="-218.86"/>
      <point x="494" y="-134.548"/>
      <point x="494" y="-29.0869" type="curve" smooth="yes"/>
      <point x="494" y="-29.0869"/>
      <point x="494" y="306.496"/>
      <point x="494" y="307.609" type="curve" smooth="yes"/>
      <point x="494" y="511.296"/>
      <point x="425.27" y="568.896"/>
      <point x="365.443" y="578.356" type="curve"/>
      <point x="365.443" y="578.356"/>
      <point x="494" y="598.392"/>
      <point x="494" y="849.661" type="curve" smooth="yes"/>
      <point x="494" y="1239.23" type="line" smooth="yes"/>
      <point x="494" y="1344.69"/>
      <point x="575.53" y="1429"/>
      <point x="697.408" y="1429" type="curve"/>
      <point x="697.408" y="1573.14" type="line"/>
      <point x="603.635" y="1573.14" type="line" smooth="yes"/>
      <point x="404.121" y="1573.14"/>
      <point x="242.174" y="1411.19"/>
      <point x="242.174" y="1211.68" type="curve" smooth="yes"/>
      <point x="242.174" y="756.722" type="line" smooth="yes"/>
      <point x="240.226" y="711.644"/>
      <point x="224.922" y="615.922"/>
    </contour>
    <contour>
      <point x="210.508" y="301.931" type="move" smooth="yes"/>
    </contour>
  </outline>
</glyph>
<glyph name="bar" format="1">
  <advance width="473"/>
  <unicode hex="007C"/>
  <outline>
    <contour>
      <point x="110" y="1577.03" type="line"/>
      <point x="363.218" y="1577.03" type="line"/>
      <point x="363.495" y="-363" type="line"/>
      <point x="110" y="-363" type="line"/>
    </contour>
  </outline>
</glyph>
<glyph name="braceright" format="1">
  <advance width="637"/>
  <unicode hex="007D"/>
  <outline>
    <contour>
      <point x="552.626" y="615.922" type="curve" smooth="yes"/>
      <point x="587.408" y="615.922" type="line"/>
      <point x="587.408" y="540.792" type="line"/>
      <point x="552.626" y="540.792" type="line" smooth="yes"/>
      <point x="472.486" y="540.792"/>
      <point x="457.183" y="445.07"/>
      <point x="455.234" y="399.991" type="curve" smooth="yes"/>
      <point x="455.234" y="-1.53906" type="line" smooth="yes"/>
      <point x="455.234" y="-201.33"/>
      <point x="293.287" y="-363"/>
      <point x="93.7734" y="-363" type="curve" smooth="yes"/>
      <point x="0" y="-363" type="line"/>
      <point x="0" y="-218.86" type="line"/>
      <point x="121.878" y="-218.86"/>
      <point x="203.408" y="-134.548"/>
      <point x="203.408" y="-29.0869" type="curve" smooth="yes"/>
      <point x="203.408" y="-29.0869"/>
      <point x="203.408" y="306.496"/>
      <point x="203.408" y="307.609" type="curve" smooth="yes"/>
      <point x="203.408" y="511.296"/>
      <point x="272.139" y="568.896"/>
      <point x="331.965" y="578.356" type="curve"/>
      <point x="331.965" y="578.356"/>
      <point x="203.408" y="598.392"/>
      <point x="203.408" y="849.661" type="curve" smooth="yes"/>
      <point x="203.408" y="1239.23" type="line" smooth="yes"/>
      <point x="203.408" y="1344.69"/>
      <point x="121.878" y="1429"/>
      <point x="0" y="1429" type="curve"/>
      <point x="0" y="1573.14" type="line"/>
      <point x="93.7734" y="1573.14" type="line" smooth="yes"/>
      <point x="293.287" y="1573.14"/>
      <point x="455.234" y="1411.19"/>
      <point x="455.234" y="1211.68" type="curve" smooth="yes"/>
      <point x="455.234" y="756.722" type="line" smooth="yes"/>
      <point x="457.183" y="711.644"/>
      <point x="472.486" y="615.922"/>
    </contour>
  </outline>
</glyph>
<glyph name="brokenbar" format="1">
  <advance width="473"/>
  <unicode hex="00A6"/>
  <outline>
    <contour>
      <point x="363.496" y="510.739" type="line"/>
      <point x="363.774" y="-363" type="line"/>
      <point x="110" y="-363" type="line"/>
      <point x="110" y="510.739" type="line"/>
    </contour>
    <contour>
      <point x="363.496" y="1577.03" type="line"/>
      <point x="363.496" y="703.296" type="line"/>
      <point x="110" y="703.296" type="line"/>
      <point x="110" y="1577.03" type="line"/>
    </contour>
  </outline>
</glyph>
<glyph name="guillemotleft" format="1">
  <advance width="899"/>
  <unicode hex="00AB"/>
  <outline>
    <contour>
      <point x="270" y="987.548" type="line"/>
      <point x="232.713" y="935.514"/>
      <point x="111.392" y="746.296"/>
      <point x="110" y="493.078" type="curve" smooth="yes"/>
      <point x="111.392" y="242.922"/>
      <point x="227.705" y="56.209"/>
      <point x="267.496" y="0" type="curve"/>
      <point x="525.722" y="0" type="line"/>
      <point x="485.931" y="56.4873"/>
      <point x="369.618" y="242.922"/>
      <point x="368.227" y="493.078" type="curve" smooth="yes"/>
      <point x="369.34" y="746.296"/>
      <point x="490.939" y="935.514"/>
      <point x="528.227" y="987.548" type="curve"/>
    </contour>
    <contour>
      <point x="641.2" y="987.548" type="line"/>
      <point x="604.191" y="935.514"/>
      <point x="482.592" y="746.296"/>
      <point x="481.2" y="493.078" type="curve" smooth="yes"/>
      <point x="482.592" y="242.922"/>
      <point x="598.904" y="56.209"/>
      <point x="638.696" y="0" type="curve"/>
      <point x="896.922" y="0" type="line"/>
      <point x="857.131" y="56.4873"/>
      <point x="740.817" y="242.922"/>
      <point x="739.427" y="493.078" type="curve" smooth="yes"/>
      <point x="740.539" y="746.296"/>
      <point x="862.14" y="935.514"/>
      <point x="899.427" y="987.548" type="curve"/>
    </contour>
  </outline>
</glyph>
<glyph name="guillemotright" format="1">
  <advance width="899"/>
  <unicode hex="00BB"/>
  <outline>
    <contour>
      <point x="629.427" y="987.548" type="line"/>
      <point x="666.714" y="935.514"/>
      <point x="788.035" y="746.296"/>
      <point x="789.427" y="493.078" type="curve" smooth="yes"/>
      <point x="788.035" y="242.922"/>
      <point x="671.722" y="56.209"/>
      <point x="631.931" y="0" type="curve"/>
      <point x="373.705" y="0" type="line"/>
      <point x="413.496" y="56.4873"/>
      <point x="529.809" y="242.922"/>
      <point x="531.2" y="493.078" type="curve" smooth="yes"/>
      <point x="530.087" y="746.296"/>
      <point x="408.487" y="935.514"/>
      <point x="371.2" y="987.548" type="curve"/>
    </contour>
    <contour>
      <point x="258.227" y="987.548" type="line"/>
      <point x="295.235" y="935.514"/>
      <point x="416.835" y="746.296"/>
      <point x="418.227" y="493.078" type="curve" smooth="yes"/>
      <point x="416.835" y="242.922"/>
      <point x="300.522" y="56.209"/>
      <point x="260.73" y="0" type="curve"/>
      <point x="2.50488" y="0" type="line"/>
      <point x="42.2959" y="56.4873"/>
      <point x="158.609" y="242.922"/>
      <point x="160" y="493.078" type="curve" smooth="yes"/>
      <point x="158.888" y="746.296"/>
      <point x="37.2871" y="935.514"/>
      <point x="0" y="987.548" type="curve"/>
    </contour>
  </outline>
</glyph>
<glyph name="uni030A" format="1">
  <advance width="0"/>
  <unicode hex="030A"/>
  <outline>
    <contour>
      <point x="254" y="1750" type="move" name="_MarkAbove"/>
    </contour>
    <contour>
      <point x="280" y="1650" type="move" name="_TashkilAbove"/>
    </contour>
    <contour>
      <point x="218" y="2130" type="move" name="TashkilTashkilAbove"/>
    </contour>
    <contour>
      <point x="249" y="2058.35" type="curve" smooth="yes"/>
      <point x="339.714" y="2058.35"/>
      <point x="413.174" y="1984.61"/>
      <point x="413.174" y="1894.17" type="curve" smooth="yes"/>
      <point x="413.174" y="1803.74"/>
      <point x="339.436" y="1730"/>
      <point x="249" y="1730" type="curve" smooth="yes"/>
      <point x="158.565" y="1730"/>
      <point x="84.8262" y="1803.74"/>
      <point x="84.8262" y="1894.17" type="curve" smooth="yes"/>
      <point x="84.8262" y="1984.61"/>
      <point x="158.287" y="2058.35"/>
    </contour>
    <contour>
      <point x="324.409" y="1893.9" type="curve" smooth="yes"/>
      <point x="324.409" y="1935.63"/>
      <point x="290.461" y="1969.3"/>
      <point x="249" y="1969.3" type="curve" smooth="yes"/>
      <point x="207.539" y="1969.3"/>
      <point x="173.592" y="1935.36"/>
      <point x="173.592" y="1893.9" type="curve" smooth="yes"/>
      <point x="173.592" y="1852.44"/>
      <point x="207.539" y="1818.77"/>
      <point x="249" y="1818.77" type="curve" smooth="yes"/>
      <point x="290.739" y="1818.77"/>
      <point x="324.409" y="1852.44"/>
    </contour>
  </outline>
</glyph>
<glyph name="uni0325" format="1">
  <advance width="0"/>
  <unicode hex="0325"/>
  <outline>
    <contour>
      <point x="250" y="-800" type="move" name="_TashkilBelow"/>
    </contour>
    <contour>
      <point x="246" y="-1297" type="move" name="TashkilTashkilBelow"/>
    </contour>
    <contour>
      <point x="256" y="-700" type="move" name="_MarkBelow"/>
    </contour>
    <component base="uni030A" yOffset="-2763"/>
  </outline>
</glyph>
<glyph name="uni0600" format="1">
  <advance width="1240"/>
  <unicode hex="0600"/>
  <outline>
    <contour>
      <point x="2055.73" y="437.175" type="curve" smooth="yes"/>
      <point x="2056" y="100.805" type="line" smooth="yes"/>
      <point x="2056.18" y="-116.167"/>
      <point x="1880.35" y="-292.089"/>
      <point x="1663.38" y="-292.089" type="curve" smooth="yes"/>
      <point x="-26" y="-292.089" type="line"/>
      <point x="-264" y="144.099" type="line"/>
      <point x="-264" y="144.099"/>
      <point x="1694.5" y="144"/>
      <point x="1695.3" y="144" type="curve" smooth="yes"/>
      <point x="1835.63" y="144"/>
      <point x="1879.1" y="201.868"/>
      <point x="1880.44" y="258.57" type="curve"/>
      <point x="1538.17" y="258.57" type="line" smooth="yes"/>
      <point x="1444.35" y="258.57"/>
      <point x="1368.33" y="334.591"/>
      <point x="1368.33" y="428.41" type="curve" smooth="yes"/>
      <point x="1367.88" y="797.245" type="line" smooth="yes"/>
      <point x="1367.79" y="930.326"/>
      <point x="1475.56" y="1038.37"/>
      <point x="1608.64" y="1038.37" type="curve" smooth="yes"/>
      <point x="1904.94" y="1038.45" type="line"/>
      <point x="1904.94" y="945.44" type="line"/>
      <point x="1904.94" y="945.44"/>
      <point x="1716.14" y="863.069"/>
      <point x="1613.74" y="695.913" type="curve"/>
      <point x="1796.81" y="695.913" type="line" smooth="yes"/>
      <point x="1939.73" y="695.913"/>
      <point x="2055.64" y="580.094"/>
    </contour>
  </outline>
</glyph>
<glyph name="uni0601" format="1">
  <advance width="3766"/>
  <unicode hex="0601"/>
  <outline>
    <contour>
      <point x="4865.17" y="266.617" type="curve" smooth="yes"/>
      <point x="4866.28" y="-32.5137" type="line" smooth="yes"/>
      <point x="4866.28" y="-142.148"/>
      <point x="4809.23" y="-300.479"/>
      <point x="4633.37" y="-300.479" type="curve" smooth="yes"/>
      <point x="4431.36" y="-300.479"/>
      <point x="4423.01" y="-118.218"/>
      <point x="4423.01" y="-118.218" type="curve"/>
      <point x="4423.01" y="-118.218"/>
      <point x="4393.51" y="-313"/>
      <point x="4252.71" y="-313" type="curve" smooth="yes"/>
      <point x="4071.56" y="-313"/>
      <point x="4051.81" y="-118.218"/>
      <point x="4051.81" y="-118.218" type="curve"/>
      <point x="4051.81" y="-118.218"/>
      <point x="4044.85" y="-313"/>
      <point x="3810" y="-313" type="curve" smooth="yes"/>
      <point x="25.9873" y="-313" type="line" smooth="yes"/>
      <point x="-96.1025" y="-313"/>
      <point x="-197.734" y="-230.078"/>
      <point x="-229.456" y="-118.218" type="curve"/>
      <point x="-261.178" y="-230.078"/>
      <point x="-363.021" y="-313"/>
      <point x="-484.899" y="-313" type="curve" smooth="yes"/>
      <point x="-567.821" y="-313" type="line" smooth="yes"/>
      <point x="-715.021" y="-313"/>
      <point x="-834.396" y="-192.792"/>
      <point x="-834.396" y="-45.5918" type="curve" smooth="yes"/>
      <point x="-834.396" y="176.183" type="line"/>
      <point x="-996.899" y="176.183"/>
      <point x="-1076.48" y="-42.8086"/>
      <point x="-1061.46" y="-226.461" type="curve"/>
      <point x="-1170.26" y="-226.461" type="line"/>
      <point x="-1170.26" y="-226.461"/>
      <point x="-1382.57" y="481.156"/>
      <point x="-672.726" y="481.156" type="curve"/>
      <point x="-673.282" y="252.301" type="line" smooth="yes"/>
      <point x="-673.423" y="194.423"/>
      <point x="-664.611" y="122.593"/>
      <point x="-562.534" y="123.188" type="curve" smooth="yes"/>
      <point x="-419.23" y="123.188" type="line" smooth="yes"/>
      <point x="-372.496" y="123.188"/>
      <point x="-356.621" y="142.666"/>
      <point x="-356.621" y="165.483" type="curve" smooth="yes"/>
      <point x="-356.621" y="282.478" type="line"/>
      <point x="-210.256" y="282.478" type="line"/>
      <point x="-210.256" y="166.04" type="line" smooth="yes"/>
      <point x="-210.256" y="154.909"/>
      <point x="-210.244" y="123.188"/>
      <point x="-173.247" y="123.188" type="curve" smooth="yes"/>
      <point x="3960.82" y="123.188" type="line" smooth="yes"/>
      <point x="4007.56" y="123.161"/>
      <point x="4023.43" y="142.666"/>
      <point x="4023.43" y="165.483" type="curve" smooth="yes"/>
      <point x="4023.43" y="282.478" type="line"/>
      <point x="4169.79" y="282.478" type="line"/>
      <point x="4169.79" y="282.478"/>
      <point x="4153.65" y="123.188"/>
      <point x="4256.33" y="123.188" type="curve" smooth="yes"/>
      <point x="4366.52" y="123.188"/>
      <point x="4348.43" y="282.478"/>
      <point x="4348.43" y="282.478" type="curve"/>
      <point x="4495.63" y="282.478" type="line"/>
      <point x="4495.63" y="282.478"/>
      <point x="4477.27" y="123.188"/>
      <point x="4576.05" y="123.188" type="curve" smooth="yes"/>
      <point x="4705.44" y="123.188"/>
      <point x="4697.1" y="243.243"/>
      <point x="4578" y="355.66" type="curve"/>
      <point x="4776.96" y="512.321" type="line"/>
      <point x="4776.96" y="512.321"/>
      <point x="4865.17" y="395.73"/>
    </contour>
  </outline>
</glyph>
<glyph name="uni0602" format="1">
  <advance width="1464"/>
  <unicode hex="0602"/>
  <outline>
    <contour>
      <point x="-419.695" y="484.907" type="curve" smooth="yes"/>
      <point x="-613.771" y="484.907"/>
      <point x="-759.91" y="320.613"/>
      <point x="-760" y="91.5664" type="curve" smooth="yes"/>
      <point x="-760" y="-41.6904" type="line" smooth="yes"/>
      <point x="-760" y="-151.071"/>
      <point x="-702.761" y="-309.984"/>
      <point x="-527.019" y="-310" type="curve" smooth="yes"/>
      <point x="1526" y="-310.188" type="line" smooth="yes"/>
      <point x="1764" y="126" type="line"/>
      <point x="-133.418" y="126" type="line"/>
      <point x="-133.142" y="154.528" type="line" smooth="yes"/>
      <point x="-133.142" y="198.265" type="line" smooth="yes"/>
      <point x="-133.142" y="356.566"/>
      <point x="-207.91" y="484.907"/>
    </contour>
    <contour>
      <point x="-354.407" y="126" type="curve" smooth="yes"/>
      <point x="-562.614" y="126" type="line"/>
      <point x="-562.614" y="126"/>
      <point x="-429.086" y="293.514"/>
      <point x="-340.902" y="293.514" type="curve" smooth="yes"/>
      <point x="-285.63" y="293.514"/>
      <point x="-260.588" y="259.17"/>
      <point x="-260.588" y="205.509" type="curve" smooth="yes"/>
      <point x="-260.588" y="145.497"/>
      <point x="-319.169" y="126"/>
    </contour>
  </outline>
</glyph>
<glyph name="uni0603" format="1">
  <advance width="1582"/>
  <unicode hex="0603"/>
  <outline>
    <contour>
      <point x="2604.79" y="510.729" type="curve" smooth="yes"/>
      <point x="2866.08" y="510.729"/>
      <point x="2860.39" y="268.323"/>
      <point x="2813.49" y="79.4238" type="curve" smooth="yes"/>
      <point x="2751.99" y="-168.229"/>
      <point x="2707.99" y="-312.089"/>
      <point x="2412.23" y="-312.089" type="curve" smooth="yes"/>
      <point x="2094.46" y="-312.089" type="line" smooth="yes"/>
      <point x="1972.32" y="-312.303"/>
      <point x="1870.74" y="-229.724"/>
      <point x="1839.02" y="-117.863" type="curve"/>
      <point x="1807.3" y="-229.724"/>
      <point x="1705.45" y="-312.089"/>
      <point x="1583.57" y="-312.089" type="curve" smooth="yes"/>
      <point x="-51" y="-312.089" type="line"/>
      <point x="-289" y="124.099" type="line"/>
      <point x="1702.39" y="124.099" type="line" smooth="yes"/>
      <point x="1749.09" y="124.099"/>
      <point x="1765" y="143.702"/>
      <point x="1765" y="166.52" type="curve" smooth="yes"/>
      <point x="1765" y="282.833" type="line"/>
      <point x="1911.92" y="282.833" type="line"/>
      <point x="1911.92" y="166.52" type="line" smooth="yes"/>
      <point x="1911.92" y="145.372"/>
      <point x="1929.73" y="124.502"/>
      <point x="1958.39" y="124.502" type="curve" smooth="yes"/>
      <point x="2063.02" y="124.502"/>
      <point x="2327.37" y="510.729"/>
    </contour>
    <contour>
      <point x="2623.43" y="124.099" type="line"/>
      <point x="2623.43" y="124.099"/>
      <point x="2588.1" y="316.933"/>
      <point x="2462.32" y="316.933" type="curve" smooth="yes"/>
      <point x="2348.23" y="316.933"/>
      <point x="2170.43" y="124.099"/>
      <point x="2170.43" y="124.099" type="curve"/>
    </contour>
  </outline>
</glyph>
<glyph name="uni0608" format="1">
  <advance width="1843"/>
  <unicode hex="0608"/>
  <outline>
    <contour>
      <point x="441.409" y="268" type="line"/>
      <point x="441.409" y="135.826" type="line"/>
      <point x="372.679" y="135.826" type="line"/>
      <point x="110" y="-69.5303" type="line"/>
      <point x="116" y="131.47" type="line"/>
      <point x="288.801" y="267.961" type="line"/>
    </contour>
    <contour>
      <point x="1344.62" y="436.188" type="curve"/>
      <point x="1733.97" y="436.188" type="line"/>
      <point x="1608.41" y="0" type="line"/>
      <point x="1346.01" y="0" type="line"/>
      <point x="1346.01" y="-169.739" type="line" smooth="yes"/>
      <point x="1346.01" y="-288.278"/>
      <point x="1275.61" y="-574.33"/>
      <point x="861.004" y="-574.33" type="curve" smooth="yes"/>
      <point x="317.839" y="-574.33"/>
      <point x="225.734" y="-67.6172"/>
      <point x="424.97" y="267.966" type="curve"/>
      <point x="589.7" y="267.966" type="line"/>
      <point x="435.543" y="-37.2871"/>
      <point x="647.856" y="-132.174"/>
      <point x="841.526" y="-132.174" type="curve" smooth="yes"/>
      <point x="1070.81" y="-132.174"/>
      <point x="1148.73" y="-59.8262"/>
      <point x="1167.65" y="9.73926" type="curve"/>
      <point x="938.082" y="9.73926" type="line" smooth="yes"/>
      <point x="817.039" y="9.73926"/>
      <point x="719.091" y="107.688"/>
      <point x="719.091" y="228.73" type="curve" smooth="yes"/>
      <point x="719.091" y="508.104" type="line" smooth="yes"/>
      <point x="719.091" y="666.435"/>
      <point x="793.943" y="794.713"/>
      <point x="1005.7" y="794.713" type="curve" smooth="yes"/>
      <point x="1189.91" y="794.713"/>
      <point x="1330.99" y="647.388"/>
    </contour>
    <contour>
      <point x="940.309" y="436.188" type="curve" smooth="yes"/>
      <point x="1148.73" y="436.188" type="line"/>
      <point x="1148.73" y="436.188"/>
      <point x="1015.16" y="603.7"/>
      <point x="926.952" y="603.7" type="curve" smooth="yes"/>
      <point x="871.578" y="603.7"/>
      <point x="846.534" y="569.475"/>
      <point x="846.534" y="515.77" type="curve" smooth="yes"/>
      <point x="846.534" y="455.666"/>
      <point x="904.97" y="436.188"/>
    </contour>
  </outline>
</glyph>
<glyph name="uni060B" format="1">
  <advance width="1211"/>
  <unicode hex="060B"/>
  <outline>
    <contour>
      <point x="761.591" y="1183.44" type="curve" smooth="yes"/>
      <point x="955.817" y="1183.44"/>
      <point x="1101.9" y="1019.27"/>
      <point x="1101.9" y="789.982" type="curve" smooth="yes"/>
      <point x="1101.9" y="267.966" type="line" smooth="yes"/>
      <point x="1101.9" y="158.331"/>
      <point x="1044.86" y="0"/>
      <point x="869" y="0" type="curve" smooth="yes"/>
      <point x="257.66" y="0" type="line"/>
      <point x="110" y="436.188" type="line"/>
      <point x="893.486" y="436.188" type="line" smooth="yes"/>
      <point x="912.13" y="436.188"/>
      <point x="927.156" y="450.505"/>
      <point x="927.156" y="469.148" type="curve" smooth="yes"/>
      <point x="927.156" y="487.792"/>
      <point x="912.13" y="502.817"/>
      <point x="893.486" y="502.817" type="curve" smooth="yes"/>
      <point x="646.112" y="502.817" type="line" smooth="yes"/>
      <point x="551.504" y="502.817"/>
      <point x="474.982" y="579.34"/>
      <point x="474.982" y="673.948" type="curve" smooth="yes"/>
      <point x="474.982" y="896.835" type="line" smooth="yes"/>
      <point x="474.982" y="1055.17"/>
      <point x="549.835" y="1183.44"/>
    </contour>
    <contour>
      <point x="696.2" y="824.487" type="curve" smooth="yes"/>
      <point x="904.617" y="824.487" type="line"/>
      <point x="904.617" y="824.487"/>
      <point x="771.052" y="992"/>
      <point x="682.843" y="992" type="curve" smooth="yes"/>
      <point x="627.47" y="992"/>
      <point x="602.426" y="957.774"/>
      <point x="602.426" y="904.069" type="curve" smooth="yes"/>
      <point x="602.426" y="843.966"/>
      <point x="660.86" y="824.487"/>
    </contour>
  </outline>
</glyph>
<glyph name="uni060C" format="1">
  <advance width="437"/>
  <unicode hex="060C"/>
  <outline>
    <contour>
      <point x="221.348" y="0" type="curve" smooth="yes"/>
      <point x="129.522" y="0"/>
      <point x="57.7773" y="74.8105"/>
      <point x="50.7744" y="165.843" type="curve" smooth="yes"/>
      <point x="39.9219" y="306.922"/>
      <point x="145.878" y="393.892"/>
      <point x="192.348" y="436.188" type="curve"/>
      <point x="358.348" y="436.188" type="line"/>
      <point x="321.896" y="412.813"/>
      <point x="265.592" y="372.034"/>
      <point x="239.435" y="330.018" type="curve"/>
      <point x="322.356" y="320.835"/>
      <point x="387.191" y="251.27"/>
      <point x="387.191" y="165.843" type="curve" smooth="yes"/>
      <point x="387.191" y="74.2949"/>
      <point x="312.896" y="0"/>
    </contour>
  </outline>
</glyph>
<glyph name="uni060F" format="1">
  <advance width="1510"/>
  <unicode hex="060F"/>
  <outline>
    <contour>
      <point x="699.635" y="179.6" type="curve"/>
      <point x="1066.1" y="340.713"/>
      <point x="1400.3" y="251.392"/>
      <point x="1400.57" y="-28.2607" type="curve" smooth="yes"/>
      <point x="1400.57" y="-244.748"/>
      <point x="1178.52" y="-536.644"/>
      <point x="769.479" y="-536.644" type="curve" smooth="yes"/>
      <point x="539.635" y="-536.644"/>
      <point x="401.617" y="-450.383"/>
      <point x="322.591" y="-341.305" type="curve"/>
      <point x="110" y="-534.139" type="line"/>
      <point x="110" y="-209.687" type="line"/>
      <point x="232.435" y="-100.887" type="line"/>
      <point x="206.557" y="193.234"/>
      <point x="372.678" y="369.652"/>
      <point x="564.122" y="481.791" type="curve"/>
      <point x="471.739" y="538.278"/>
      <point x="421.931" y="617.026"/>
      <point x="543.53" y="797.339" type="curve" smooth="yes"/>
      <point x="670.417" y="991.565" type="line"/>
      <point x="701.583" y="1031.91"/>
      <point x="764.191" y="1139.32"/>
      <point x="954.521" y="1139.32" type="curve" smooth="yes"/>
      <point x="1175.46" y="1139.32"/>
      <point x="1313.48" y="876.087"/>
      <point x="1313.48" y="876.087" type="curve"/>
      <point x="1090.59" y="778.139" type="line"/>
      <point x="1090.59" y="778.139"/>
      <point x="1017.96" y="880.261"/>
      <point x="965.374" y="911.147" type="curve" smooth="yes"/>
      <point x="894.417" y="952.887"/>
      <point x="801.479" y="933.409"/>
      <point x="742.487" y="873.861" type="curve"/>
      <point x="742.487" y="873.861"/>
      <point x="741.096" y="659.6"/>
      <point x="960.365" y="659.6" type="curve" smooth="yes"/>
      <point x="1126.77" y="659.6"/>
      <point x="1328.5" y="689.374"/>
      <point x="1328.5" y="689.374" type="curve"/>
      <point x="1220.54" y="418.904" type="line"/>
      <point x="934.487" y="437.826"/>
      <point x="765.583" y="329.583"/>
    </contour>
    <contour>
      <point x="963.426" y="-283.147" type="curve" smooth="yes"/>
      <point x="1132.05" y="-283.147"/>
      <point x="1209.41" y="-192.991"/>
      <point x="1209.69" y="-101.165" type="curve" smooth="yes"/>
      <point x="1209.69" y="-30.4873"/>
      <point x="1134" y="51.5996"/>
      <point x="985.687" y="51.5996" type="curve" smooth="yes"/>
      <point x="768.087" y="51.5996"/>
      <point x="675.982" y="-44.9561"/>
      <point x="675.982" y="-44.9561" type="curve"/>
      <point x="697.408" y="-144.574"/>
      <point x="768.644" y="-283.147"/>
    </contour>
  </outline>
</glyph>
<glyph name="uni0610" format="1">
  <advance width="463"/>
  <unicode hex="0610"/>
  <outline>
    <contour>
      <point x="352.721" y="1869.33" type="curve" smooth="yes"/>
      <point x="319.052" y="1846.07"/>
      <point x="267.935" y="1847.9"/>
      <point x="267.935" y="1847.9" type="curve"/>
      <point x="267.935" y="1847.9" type="line"/>
      <point x="267.935" y="1847.9"/>
      <point x="192.943" y="1843.31"/>
      <point x="148.866" y="1877.59" type="curve"/>
      <point x="149.173" y="1829.84"/>
      <point x="146.725" y="1791.28"/>
      <point x="146.725" y="1791.28" type="curve"/>
      <point x="85.8135" y="1739.55" type="line"/>
      <point x="85.8135" y="1739.55"/>
      <point x="99.5869" y="1911.57"/>
      <point x="50.001" y="2048.08" type="curve" smooth="yes"/>
      <point x="49.6943" y="2048.7"/>
      <point x="124.38" y="2122.16"/>
      <point x="124.38" y="2122.16" type="curve"/>
      <point x="124.38" y="2122.16"/>
      <point x="136.93" y="2097.67"/>
      <point x="144.581" y="1983.81" type="curve"/>
      <point x="147.643" y="1988.4"/>
      <point x="160.498" y="2007.99"/>
      <point x="177.027" y="2028.8" type="curve" smooth="yes"/>
      <point x="217.736" y="2080.22"/>
      <point x="265.18" y="2123.99"/>
      <point x="340.171" y="2122.16" type="curve" smooth="yes"/>
      <point x="418.224" y="2120.32"/>
      <point x="421.896" y="2031.86"/>
      <point x="404.756" y="1961.16" type="curve"/>
      <point x="404.756" y="1961.16"/>
      <point x="390.981" y="1895.65"/>
    </contour>
    <contour>
      <point x="198.147" y="1977.68" type="curve"/>
      <point x="344.457" y="1977.68" type="line"/>
      <point x="344.457" y="1977.68"/>
      <point x="367.413" y="2049.61"/>
      <point x="306.195" y="2049.61" type="curve" smooth="yes"/>
      <point x="252.937" y="2049.61"/>
      <point x="222.94" y="2010.74"/>
    </contour>
  </outline>
</glyph>
<glyph name="uni0611" format="1">
  <advance width="490"/>
  <unicode hex="0611"/>
  <outline>
    <contour>
      <point x="261.507" y="2023.08" type="curve" smooth="yes"/>
      <point x="233.654" y="1995.22"/>
      <point x="297.626" y="1958.19"/>
      <point x="364.658" y="1958.19" type="curve" smooth="yes"/>
      <point x="424.957" y="1958.19" type="line"/>
      <point x="394.961" y="1883.81" type="line"/>
      <point x="325.479" y="1884.42" type="line"/>
      <point x="235.489" y="1890.24"/>
      <point x="189.576" y="1926.35"/>
      <point x="167.539" y="1954.51" type="curve"/>
      <point x="169.987" y="1927.88"/>
      <point x="171.212" y="1907.07"/>
      <point x="171.518" y="1900.34" type="curve" smooth="yes"/>
      <point x="173.049" y="1836.06"/>
      <point x="169.681" y="1773.31"/>
      <point x="169.681" y="1773.31" type="curve"/>
      <point x="104.484" y="1721.58" type="line"/>
      <point x="104.484" y="1721.58"/>
      <point x="102.343" y="1891.15"/>
      <point x="50.001" y="2025.22" type="curve" smooth="yes"/>
      <point x="49.6953" y="2026.14"/>
      <point x="139.685" y="2104.19"/>
      <point x="139.685" y="2104.19" type="curve"/>
      <point x="139.685" y="2104.19"/>
      <point x="154.314" y="2030.05"/>
      <point x="202.175" y="1991.09" type="curve"/>
      <point x="202.453" y="2008.07"/>
      <point x="244.979" y="2051.24"/>
      <point x="257.835" y="2064.4" type="curve" smooth="yes"/>
      <point x="267.017" y="2073.89"/>
      <point x="299.155" y="2103.88"/>
      <point x="325.785" y="2103.88" type="curve" smooth="yes"/>
      <point x="392.818" y="2103.88"/>
      <point x="440.262" y="2022.77"/>
      <point x="440.262" y="2022.77" type="curve"/>
      <point x="364.353" y="1989.41" type="line"/>
      <point x="364.353" y="1989.41"/>
      <point x="345.068" y="2024.91"/>
      <point x="329.153" y="2034.4" type="curve" smooth="yes"/>
      <point x="307.727" y="2046.95"/>
      <point x="279.26" y="2041.14"/>
    </contour>
  </outline>
</glyph>
<glyph name="uni0612" format="1">
  <advance width="499"/>
  <unicode hex="0612"/>
  <outline>
    <contour>
      <point x="50" y="1730.92" type="line"/>
      <point x="97.751" y="1869.58"/>
      <point x="266.404" y="1900.8"/>
      <point x="266.404" y="1900.8" type="curve"/>
      <point x="266.404" y="1900.8"/>
      <point x="199.37" y="1935.08"/>
      <point x="164.171" y="1935.08" type="curve" smooth="yes"/>
      <point x="99.8926" y="1935.08"/>
      <point x="127.747" y="1891.31"/>
      <point x="127.747" y="1891.31" type="curve"/>
      <point x="99.2803" y="1871.11" type="line"/>
      <point x="84.5879" y="1895.9" type="line" smooth="yes"/>
      <point x="73.2637" y="1915.18"/>
      <point x="72.6514" y="1939.06"/>
      <point x="83.3643" y="1958.96" type="curve" smooth="yes"/>
      <point x="89.4854" y="1970.59"/>
      <point x="123.156" y="2040.68"/>
      <point x="175.189" y="2040.68" type="curve" smooth="yes"/>
      <point x="186.209" y="2040.68"/>
      <point x="197.841" y="2038.54"/>
      <point x="210.696" y="2033.03" type="curve" smooth="yes"/>
      <point x="277.423" y="2004.26"/>
      <point x="314.767" y="1973.04"/>
      <point x="414.856" y="1973.04" type="curve" smooth="yes"/>
      <point x="449.751" y="1973.34" type="line"/>
      <point x="417.917" y="1876.31" type="line"/>
      <point x="348.436" y="1876.31"/>
      <point x="213.451" y="1849.68"/>
      <point x="186.209" y="1730.92" type="curve"/>
    </contour>
  </outline>
</glyph>
<glyph name="uni0614" format="1">
  <advance width="793"/>
  <unicode hex="0614"/>
  <outline>
    <contour>
      <point x="690.641" y="1930.22" type="curve"/>
      <point x="690.641" y="1930.52" type="line"/>
      <point x="743.594" y="1930.52" type="line"/>
      <point x="743.594" y="1930.52"/>
      <point x="689.723" y="1730.34"/>
      <point x="553.819" y="1730.34" type="curve" smooth="yes"/>
      <point x="525.354" y="1730.34"/>
      <point x="499.948" y="1739.83"/>
      <point x="478.828" y="1758.2" type="curve"/>
      <point x="464.749" y="1740.14"/>
      <point x="443.322" y="1730.34"/>
      <point x="417.611" y="1730.34" type="curve" smooth="yes"/>
      <point x="158.355" y="1730.96" type="line"/>
      <point x="50" y="1846.66" type="line"/>
      <point x="373.841" y="1846.66" type="line" smooth="yes"/>
      <point x="428.324" y="1846.66"/>
      <point x="468.115" y="1866.55"/>
      <point x="468.115" y="1930.22" type="curve"/>
      <point x="520.15" y="1930.22" type="line"/>
      <point x="520.15" y="1930.22"/>
      <point x="524.129" y="1846.96"/>
      <point x="586.877" y="1846.96" type="curve" smooth="yes"/>
      <point x="662.48" y="1846.96"/>
      <point x="690.641" y="1930.22"/>
    </contour>
  </outline>
</glyph>
<glyph name="uni0615" format="1">
  <advance width="0"/>
  <unicode hex="0615"/>
  <outline>
    <contour>
      <point x="348" y="2600" type="move" name="_MarkAbove"/>
    </contour>
    <contour>
      <point x="197.041" y="2604.79" type="line"/>
      <point x="159.697" y="2727.53" type="line"/>
      <point x="211.12" y="2728.14" type="line"/>
      <point x="197.347" y="2911.79" type="line"/>
      <point x="297.438" y="2983.42" type="line"/>
      <point x="322.536" y="2886.08" type="line"/>
      <point x="293.764" y="2866.8" type="line"/>
      <point x="294.682" y="2781.71" type="line"/>
      <point x="332.024" y="2844.46"/>
      <point x="392.937" y="2887.61"/>
      <point x="460.887" y="2886.08" type="curve" smooth="yes"/>
      <point x="538.327" y="2884.25"/>
      <point x="540.163" y="2799.16"/>
      <point x="524.859" y="2726" type="curve" smooth="yes"/>
      <point x="509.556" y="2652.85"/>
      <point x="488.741" y="2604.79"/>
      <point x="394.772" y="2604.79" type="curve" smooth="yes"/>
    </contour>
    <contour>
      <point x="426.605" y="2798.54" type="curve" smooth="yes"/>
      <point x="373.653" y="2798.54"/>
      <point x="343.962" y="2759.67"/>
      <point x="318.862" y="2726.92" type="curve"/>
      <point x="464.56" y="2726.92" type="line"/>
      <point x="464.56" y="2726.92"/>
      <point x="487.517" y="2798.54"/>
    </contour>
  </outline>
</glyph>
<glyph name="uni0616" format="1">
  <advance width="725"/>
  <unicode hex="0616"/>
  <outline>
    <contour>
      <point x="350" y="1600" type="move" name="_TashkilAbove"/>
    </contour>
    <contour>
      <point x="341" y="1720" type="move" name="_TashkilAboveDot"/>
    </contour>
    <contour>
      <point x="348" y="1700" type="move" name="_MarkAbove"/>
    </contour>
    <contour>
      <point x="643.809" y="2287.05" type="line"/>
      <point x="675.948" y="2162.17" type="line"/>
      <point x="649.931" y="2144.11" type="line"/>
      <point x="644.421" y="1966.88" type="line"/>
      <point x="580.143" y="1916.07" type="line"/>
      <point x="556.269" y="2184.2" type="line" smooth="yes"/>
      <point x="554.737" y="2203.18"/>
      <point x="562.696" y="2221.55"/>
      <point x="577.389" y="2233.48" type="curve" smooth="yes"/>
    </contour>
    <contour>
      <point x="100.198" y="1906.28" type="curve" smooth="yes"/>
      <point x="100.198" y="1875.36"/>
      <point x="141.287" y="1846"/>
      <point x="175.565" y="1844.37" type="curve" smooth="yes"/>
      <point x="576.164" y="1855.47" type="line"/>
      <point x="508.519" y="1729.66" type="line"/>
      <point x="235.489" y="1729.66" type="line" smooth="yes"/>
      <point x="121.931" y="1729.66"/>
      <point x="50" y="1802.82"/>
      <point x="50" y="1893.12" type="curve" smooth="yes"/>
      <point x="50" y="1983.41"/>
      <point x="123.155" y="2040.96"/>
      <point x="213.451" y="2040.96" type="curve" smooth="yes"/>
      <point x="421.284" y="2040.96" type="line" smooth="yes"/>
      <point x="446.077" y="2040.96"/>
      <point x="451.281" y="2051.36"/>
      <point x="444.24" y="2067.89" type="curve" smooth="yes"/>
      <point x="438.118" y="2081.66"/>
      <point x="411.489" y="2142.58"/>
      <point x="396.798" y="2175.94" type="curve" smooth="yes"/>
      <point x="391.288" y="2189.1"/>
      <point x="394.961" y="2204.1"/>
      <point x="405.979" y="2212.98" type="curve" smooth="yes"/>
      <point x="497.499" y="2286.74" type="line"/>
      <point x="529.639" y="2162.17" type="line"/>
      <point x="500.867" y="2142.27" type="line"/>
      <point x="500.867" y="1992.59" type="line" smooth="yes"/>
      <point x="500.867" y="1950.35"/>
      <point x="466.585" y="1916.07"/>
      <point x="424.345" y="1916.07" type="curve" smooth="yes"/>
      <point x="351.497" y="1915.77" type="line" smooth="yes"/>
      <point x="273.138" y="1915.77"/>
      <point x="315.99" y="1956.17"/>
      <point x="238.244" y="1956.17" type="curve" smooth="yes"/>
      <point x="156.212" y="1956.17" type="line" smooth="yes"/>
      <point x="125.297" y="1956.17"/>
      <point x="100.198" y="1939.03"/>
    </contour>
  </outline>
</glyph>
<glyph name="uni0617" format="1">
  <advance width="343"/>
  <unicode hex="0617"/>
  <outline>
    <contour>
      <point x="164" y="2600" type="move" name="_MarkAbove"/>
    </contour>
    <contour>
      <point x="230.4" y="3003.3" type="line"/>
      <point x="187.876" y="3045.85" type="line"/>
      <point x="230.4" y="3088.4" type="line"/>
      <point x="272.973" y="3045.85" type="line"/>
    </contour>
    <contour>
      <point x="230.676" y="2963.81" type="line"/>
      <point x="230.676" y="2963.81"/>
      <point x="293.492" y="2921.89"/>
      <point x="293.518" y="2817.38" type="curve" smooth="yes"/>
      <point x="293.492" y="2781.68"/>
      <point x="286.243" y="2738.63"/>
      <point x="266.449" y="2687.53" type="curve" smooth="yes"/>
      <point x="249.114" y="2642.72"/>
      <point x="231.052" y="2600"/>
      <point x="192.168" y="2600" type="curve" smooth="yes"/>
      <point x="157.396" y="2600"/>
      <point x="50.0752" y="2654.06"/>
      <point x="50.0752" y="2654.06" type="curve"/>
      <point x="50" y="2683.99" type="line"/>
      <point x="120.043" y="2697.81"/>
      <point x="234.087" y="2764.59"/>
      <point x="234.087" y="2796.83" type="curve" smooth="yes"/>
      <point x="234.087" y="2823.7"/>
      <point x="176.338" y="2874.65"/>
      <point x="176.338" y="2874.65" type="curve"/>
    </contour>
  </outline>
</glyph>
<glyph name="uni0618" format="1">
  <advance width="0"/>
  <unicode hex="0618"/>
  <outline>
    <contour>
      <point x="500" y="1750" type="move" name="_TashkilAbove"/>
    </contour>
    <contour>
      <point x="437" y="1734" type="move" name="_TashkilAboveDot"/>
    </contour>
    <contour>
      <point x="509" y="1750" type="move" name="_MarkAbove"/>
    </contour>
    <contour>
      <point x="464" y="2048.86" type="line"/>
      <point x="644" y="2049" type="line"/>
      <point x="434" y="1730" type="line"/>
      <point x="334" y="1730" type="line"/>
    </contour>
    <contour>
      <point x="695.048" y="1945.15" type="move" smooth="yes"/>
    </contour>
  </outline>
</glyph>
<glyph name="uni0619" format="1">
  <advance width="498"/>
  <unicode hex="0619"/>
  <outline>
    <contour>
      <point x="276" y="1800" type="move" name="_MarkAbove"/>
    </contour>
    <contour>
      <point x="191" y="1748" type="move" name="_TashkilAboveDot"/>
    </contour>
    <contour>
      <point x="270" y="1750" type="move" name="_TashkilAbove"/>
    </contour>
    <contour>
      <point x="316.082" y="1884.08" type="curve"/>
      <point x="278" y="1798"/>
      <point x="205.658" y="1749.71"/>
      <point x="82" y="1728.89" type="curve"/>
      <point x="82" y="1829.29" type="line"/>
      <point x="158" y="1831"/>
      <point x="210" y="1864"/>
      <point x="235.888" y="1908.87" type="curve"/>
      <point x="140.694" y="1945.91"/>
      <point x="134.572" y="1998.25"/>
      <point x="135.796" y="2021.82" type="curve" smooth="yes"/>
      <point x="139.47" y="2094.67"/>
      <point x="227.623" y="2210.68"/>
      <point x="307.817" y="2193.23" type="curve" smooth="yes"/>
      <point x="368.116" y="2180.07"/>
      <point x="410.051" y="2113.65"/>
      <point x="363.219" y="2004.07" type="curve"/>
      <point x="394.44" y="1996.72" type="line"/>
      <point x="394.134" y="1873.98" type="line" smooth="yes"/>
      <point x="393.521" y="1873.98"/>
      <point x="348.527" y="1876.12"/>
    </contour>
    <contour>
      <point x="223.338" y="2076" type="curve" smooth="yes"/>
      <point x="219.971" y="2034.68"/>
      <point x="298.941" y="2022.13"/>
      <point x="298.941" y="2022.13" type="curve"/>
      <point x="320.062" y="2082.42"/>
      <point x="292.819" y="2114.26"/>
      <point x="265.271" y="2111.5" type="curve" smooth="yes"/>
      <point x="242.314" y="2109.05"/>
      <point x="224.868" y="2093.14"/>
    </contour>
    <contour>
      <point x="564.579" y="1901.59" type="move" smooth="yes"/>
    </contour>
  </outline>
</glyph>
<glyph name="uni061A" format="1">
  <advance width="0"/>
  <unicode hex="061A"/>
  <outline>
    <contour>
      <point x="510" y="-850" type="move" name="_MarkBelow"/>
    </contour>
    <contour>
      <point x="620" y="-950" type="move" name="_TashkilBelow"/>
    </contour>
    <contour>
      <point x="534" y="-670" type="move" name="_TashkilBelowDot"/>
    </contour>
    <component base="uni0618" xOffset="70" yOffset="-2898"/>
  </outline>
</glyph>
<glyph name="uni061F" format="1">
  <advance width="965"/>
  <unicode hex="061F"/>
  <outline>
    <contour>
      <point x="467.297" y="1290.56" type="curve" smooth="yes"/>
      <point x="719.508" y="1290.56"/>
      <point x="855.182" y="1077.8"/>
      <point x="855.182" y="1077.8" type="curve"/>
      <point x="645.991" y="914.933" type="line"/>
      <point x="575.336" y="1020.2"/>
      <point x="426.156" y="1026.28"/>
      <point x="398.342" y="943.731" type="curve" smooth="yes"/>
      <point x="383.048" y="898.298"/>
      <point x="403.887" y="862.971"/>
      <point x="434.475" y="809.756" type="curve" smooth="yes"/>
      <point x="478.655" y="733.198"/>
      <point x="523.463" y="640.006"/>
      <point x="523.463" y="441.457" type="curve"/>
      <point x="387.878" y="441.457" type="line"/>
      <point x="387.878" y="511.575"/>
      <point x="359.079" y="575.075"/>
      <point x="253.187" y="688.033" type="curve" smooth="yes"/>
      <point x="179.938" y="766.2"/>
      <point x="110" y="847.855"/>
      <point x="110" y="964.123" type="curve" smooth="yes"/>
      <point x="110" y="1163.57"/>
      <point x="285.741" y="1290.56"/>
    </contour>
    <contour>
      <point x="455.045" y="330.735" type="curve" smooth="yes"/>
      <point x="546.448" y="330.735"/>
      <point x="620.502" y="256.683"/>
      <point x="620.412" y="165.368" type="curve" smooth="yes"/>
      <point x="620.412" y="74.0537"/>
      <point x="546.358" y="0"/>
      <point x="455.045" y="0" type="curve" smooth="yes"/>
      <point x="363.73" y="0"/>
      <point x="289.677" y="74.0537"/>
      <point x="289.677" y="165.368" type="curve" smooth="yes"/>
      <point x="289.677" y="256.683"/>
      <point x="363.73" y="330.735"/>
    </contour>
  </outline>
</glyph>
<glyph name="uni0620" format="1">
  <advance width="1354"/>
  <unicode hex="0620"/>
  <outline>
    <contour>
      <point x="350" y="680" type="move" name="TashkilAbove"/>
    </contour>
    <contour>
      <point x="710" y="-850" type="move" name="TashkilBelow"/>
    </contour>
    <contour>
      <point x="218" y="614" type="move" name="AlefAbove"/>
    </contour>
    <component base="aYaa.isol"/>
    <component base="ring.below" xOffset="707" yOffset="-331"/>
  </outline>
</glyph>
<glyph name="uni0621" format="1">
  <advance width="567"/>
  <unicode hex="0621"/>
  <outline>
    <contour>
      <point x="260" y="800" type="move" name="TashkilAbove"/>
    </contour>
    <contour>
      <point x="260" y="-110" type="move" name="TashkilBelow"/>
    </contour>
    <contour>
      <point x="260.827" y="499.867" type="curve" smooth="yes"/>
      <point x="287.391" y="490.129"/>
      <point x="388.427" y="453.728"/>
      <point x="517.304" y="476.946" type="curve"/>
      <point x="517.304" y="335.968" type="line"/>
      <point x="50" y="0" type="line"/>
      <point x="50" y="151.701" type="line"/>
      <point x="232.101" y="289.04" type="line"/>
      <point x="232.101" y="289.04"/>
      <point x="153.79" y="327.113"/>
      <point x="77.1523" y="399.226" type="curve" smooth="yes"/>
      <point x="52.2627" y="422.738"/>
      <point x="34.8496" y="448.021"/>
      <point x="71.7412" y="498.49" type="curve" smooth="yes"/>
      <point x="71.7412" y="498.49"/>
      <point x="162.842" y="629.532"/>
      <point x="168.352" y="636.615" type="curve" smooth="yes"/>
      <point x="182.715" y="655.309"/>
      <point x="211.736" y="705.089"/>
      <point x="299.982" y="705.089" type="curve" smooth="yes"/>
      <point x="402.396" y="705.089"/>
      <point x="482.674" y="581.327"/>
      <point x="482.674" y="581.327" type="curve"/>
      <point x="366.783" y="530.366" type="line"/>
      <point x="366.783" y="530.366"/>
      <point x="329.201" y="584.966"/>
      <point x="304.901" y="599.231" type="curve" smooth="yes"/>
      <point x="271.944" y="618.613"/>
      <point x="228.953" y="609.66"/>
      <point x="201.604" y="582.016" type="curve" smooth="yes"/>
      <point x="173.762" y="553.878"/>
      <point x="206.227" y="519.938"/>
    </contour>
  </outline>
</glyph>
<glyph name="uni0623" format="1">
  <advance width="591"/>
  <unicode hex="0623"/>
  <outline>
    <contour>
      <point x="300" y="1750" type="move" name="TashkilAbove"/>
    </contour>
    <contour>
      <point x="320" y="-150" type="move" name="TashkilBelow"/>
    </contour>
    <component base="aAlf.isol" xOffset="14.377"/>
    <component base="hamza.above" xScale="1.06634" xOffset="292.204" yOffset="293"/>
  </outline>
</glyph>
<glyph name="uni0625" format="1">
  <advance width="576"/>
  <unicode hex="0625"/>
  <outline>
    <contour>
      <point x="300" y="1300" type="move" name="TashkilAbove"/>
    </contour>
    <contour>
      <point x="300" y="-700" type="move" name="TashkilBelow"/>
    </contour>
    <component base="aAlf.isol"/>
    <component base="uni0655" xOffset="295" yOffset="428"/>
  </outline>
</glyph>
<glyph name="uni0626" format="1">
  <advance width="1380"/>
  <unicode hex="0626"/>
  <outline>
    <contour>
      <point x="300" y="1150" type="move" name="TashkilAbove"/>
    </contour>
    <contour>
      <point x="750" y="-500" type="move" name="TashkilBelow"/>
    </contour>
    <contour>
      <point x="300" y="1010" type="move" name="AlefAbove"/>
    </contour>
    <component base="aYaa.isol" xOffset="26.8955"/>
    <component base="hamza.above" xOffset="301.896" yOffset="-322"/>
  </outline>
</glyph>
<glyph name="uni0627" format="1">
  <advance width="576"/>
  <unicode hex="0627"/>
  <outline>
    <contour>
      <point x="300" y="1300" type="move" name="TashkilAbove"/>
    </contour>
    <contour>
      <point x="320" y="-160" type="move" name="TashkilBelow"/>
    </contour>
    <component base="aAlf.isol"/>
  </outline>
</glyph>
<glyph name="uni0629" format="1">
  <advance width="854"/>
  <unicode hex="0629"/>
  <outline>
    <contour>
      <point x="460" y="1350" type="move" name="TashkilAbove"/>
    </contour>
    <contour>
      <point x="450" y="-210" type="move" name="TashkilBelow"/>
    </contour>
    <component base="aHeh.isol"/>
    <component base="TwoDots.a" xOffset="429" yOffset="882"/>
  </outline>
</glyph>
<glyph name="uni062B" format="1">
  <advance width="1608"/>
  <unicode hex="062B"/>
  <outline>
    <contour>
      <point x="830" y="1300" type="move" name="TashkilAbove"/>
    </contour>
    <contour>
      <point x="860" y="-210" type="move" name="TashkilBelow"/>
    </contour>
    <component base="aBaa.isol"/>
    <component base="ThreeDots.a" xOffset="787" yOffset="596"/>
  </outline>
</glyph>
<glyph name="uni062C" format="1">
  <advance width="1380"/>
  <unicode hex="062C"/>
  <outline>
    <contour>
      <point x="650" y="1150" type="move" name="TashkilAbove"/>
    </contour>
    <contour>
      <point x="650" y="-750" type="move" name="TashkilBelow"/>
    </contour>
    <component base="aHaa.isol"/>
    <component base="Dot.b" xOffset="879" yOffset="-34"/>
  </outline>
</glyph>
<glyph name="uni062D" format="1">
  <advance width="1380"/>
  <unicode hex="062D"/>
  <outline>
    <contour>
      <point x="700" y="1640" type="move" name="TashkilAbove"/>
    </contour>
    <contour>
      <point x="800" y="100" type="move" name="TashkilBelow"/>
    </contour>
    <contour>
      <point x="1683" y="598" type="move" smooth="yes"/>
    </contour>
    <component base="aHaa.isol"/>
  </outline>
</glyph>
<glyph name="uni062E" format="1">
  <advance width="1380"/>
  <unicode hex="062E"/>
  <outline>
    <contour>
      <point x="650" y="1500" type="move" name="TashkilAbove"/>
    </contour>
    <contour>
      <point x="655" y="-751" type="move" name="TashkilBelow"/>
    </contour>
    <component base="aHaa.isol"/>
    <component base="Dot.a" xOffset="602" yOffset="1063"/>
  </outline>
</glyph>
<glyph name="uni062F" format="1">
  <advance width="942"/>
  <unicode hex="062F"/>
  <outline>
    <contour>
      <point x="450" y="1150" type="move" name="TashkilAbove"/>
    </contour>
    <contour>
      <point x="500" y="-210" type="move" name="TashkilBelow"/>
    </contour>
    <component base="aDal.isol"/>
  </outline>
</glyph>
<glyph name="uni0630" format="1">
  <advance width="942"/>
  <unicode hex="0630"/>
  <outline>
    <contour>
      <point x="500" y="1550" type="move" name="TashkilAbove"/>
    </contour>
    <contour>
      <point x="500" y="-210" type="move" name="TashkilBelow"/>
    </contour>
    <component base="aDal.isol"/>
    <component base="Dot.a" xOffset="456.053" yOffset="1109.1"/>
  </outline>
</glyph>
<glyph name="uni0631" format="1">
  <advance width="648"/>
  <unicode hex="0631"/>
  <outline>
    <contour>
      <point x="300" y="800" type="move" name="TashkilAbove"/>
    </contour>
    <contour>
      <point x="-100" y="-800" type="move" name="TashkilBelow"/>
    </contour>
    <component base="aRaa.isol"/>
  </outline>
</glyph>
<glyph name="uni0632" format="1">
  <advance width="648"/>
  <unicode hex="0632"/>
  <outline>
    <contour>
      <point x="370" y="1200" type="move" name="TashkilAbove"/>
    </contour>
    <contour>
      <point x="-100" y="-800" type="move" name="TashkilBelow"/>
    </contour>
    <component base="aRaa.isol"/>
    <component base="Dot.a" xOffset="313" yOffset="749"/>
  </outline>
</glyph>
<glyph name="uni0636" format="1">
  <advance width="2229"/>
  <unicode hex="0636"/>
  <outline>
    <contour>
      <point x="1900" y="1400" type="move" name="TashkilAbove"/>
    </contour>
    <contour>
      <point x="650" y="-650" type="move" name="TashkilBelow"/>
    </contour>
    <component base="aSad.isol"/>
    <component base="Dot.a" xOffset="1860" yOffset="934"/>
  </outline>
</glyph>
<glyph name="uni0637" format="1">
  <advance width="1490"/>
  <unicode hex="0637"/>
  <outline>
    <contour>
      <point x="1100" y="1000" type="move" name="TashkilAbove"/>
    </contour>
    <contour>
      <point x="800" y="-210" type="move" name="TashkilBelow"/>
    </contour>
    <component base="aTaa.isol"/>
  </outline>
</glyph>
<glyph name="uni0638" format="1">
  <advance width="1490"/>
  <unicode hex="0638"/>
  <outline>
    <contour>
      <point x="1150" y="1370" type="move" name="TashkilAbove"/>
    </contour>
    <contour>
      <point x="800" y="-210" type="move" name="TashkilBelow"/>
    </contour>
    <component base="aTaa.isol"/>
    <component base="Dot.a" xOffset="1089" yOffset="934"/>
  </outline>
</glyph>
<glyph name="uni0639" format="1">
  <advance width="1319"/>
  <unicode hex="0639"/>
  <outline>
    <contour>
      <point x="850" y="1300" type="move" name="TashkilAbove"/>
    </contour>
    <contour>
      <point x="650" y="-750" type="move" name="TashkilBelow"/>
    </contour>
    <component base="aAyn.isol" yScale="0.998179" yOffset="-0.950808"/>
  </outline>
</glyph>
<glyph name="uni063A" format="1">
  <advance width="1319"/>
  <unicode hex="063A"/>
  <outline>
    <contour>
      <point x="850" y="1650" type="move" name="TashkilAbove"/>
    </contour>
    <contour>
      <point x="650" y="-750" type="move" name="TashkilBelow"/>
    </contour>
    <component base="aAyn.isol"/>
    <component base="Dot.a" xOffset="825" yOffset="1224"/>
  </outline>
</glyph>
<glyph name="uni063B" format="1">
  <advance width="1656"/>
  <unicode hex="063B"/>
  <outline>
    <contour>
      <point x="650" y="1450" type="move" name="TashkilAbove"/>
    </contour>
    <contour>
      <point x="850" y="-210" type="move" name="TashkilBelow"/>
    </contour>
    <component base="TwoDots.a" xOffset="612" yOffset="984"/>
    <component base="aGaf.isol"/>
  </outline>
</glyph>
<glyph name="uni063C" format="1">
  <advance width="1656"/>
  <unicode hex="063C"/>
  <outline>
    <contour>
      <point x="850" y="-800" type="move" name="TashkilBelow"/>
    </contour>
    <contour>
      <point x="650" y="800" type="move" name="TashkilAbove"/>
    </contour>
    <component base="aGaf.isol"/>
    <component base="iThreeDots.b" xOffset="802" yOffset="-622"/>
  </outline>
</glyph>
<glyph name="uni063D" format="1">
  <advance width="1354"/>
  <unicode hex="063D"/>
  <outline>
    <contour>
      <point x="300" y="1100" type="move" name="TashkilAbove"/>
    </contour>
    <contour>
      <point x="750" y="-500" type="move" name="TashkilBelow"/>
    </contour>
    <contour>
      <point x="232" y="1024" type="move" name="AlefAbove"/>
    </contour>
    <component base="aYaa.isol"/>
    <component base="uni065B" xOffset="257" yOffset="-254"/>
  </outline>
</glyph>
<glyph name="uni063E" format="1">
  <advance width="1354"/>
  <unicode hex="063E"/>
  <outline>
    <contour>
      <point x="330" y="1300" type="move" name="TashkilAbove"/>
    </contour>
    <contour>
      <point x="750" y="-500" type="move" name="TashkilBelow"/>
    </contour>
    <contour>
      <point x="273" y="1092" type="move" name="AlefAbove"/>
    </contour>
    <component base="aYaa.isol"/>
    <component base="TwoDots.a" xOffset="282" yOffset="804"/>
  </outline>
</glyph>
<glyph name="uni063F" format="1">
  <advance width="1354"/>
  <unicode hex="063F"/>
  <outline>
    <contour>
      <point x="330" y="1550" type="move" name="TashkilAbove"/>
    </contour>
    <contour>
      <point x="750" y="-500" type="move" name="TashkilBelow"/>
    </contour>
    <contour>
      <point x="259" y="1406" type="move" name="AlefAbove"/>
    </contour>
    <component base="aYaa.isol"/>
    <component base="ThreeDots.a" xOffset="280" yOffset="876"/>
  </outline>
</glyph>
<glyph name="uni0640" format="1">
  <advance width="0"/>
  <unicode hex="0640"/>
  <outline>
    <contour>
      <point x="-4.83111" y="170.096" type="line" smooth="yes"/>
      <point x="1.82607" y="-9.79747" type="line" smooth="yes"/>
      <point x="3.70727" y="-15.0369" type="line" smooth="yes"/>
    </contour>
    <contour>
      <point x="3.98371" y="176.079" type="line" smooth="yes"/>
      <point x="4.11279" y="-20.317" type="line" smooth="yes"/>
      <point x="-5.28828" y="-17.0776" type="line" smooth="yes"/>
    </contour>
  </outline>
</glyph>
<glyph name="uni0641" format="1">
  <advance width="1695"/>
  <unicode hex="0641"/>
  <outline>
    <contour>
      <point x="1270" y="1750" type="move" name="TashkilAbove"/>
    </contour>
    <contour>
      <point x="850" y="-210" type="move" name="TashkilBelow"/>
    </contour>
    <component base="aFaa.isol" xOffset="-7.71115e-07"/>
    <component base="Dot.a" xOffset="1236" yOffset="1270"/>
  </outline>
</glyph>
<glyph name="uni0642" format="1">
  <advance width="1237"/>
  <unicode hex="0642"/>
  <outline>
    <contour>
      <point x="840" y="1500" type="move" name="TashkilAbove"/>
    </contour>
    <contour>
      <point x="650" y="-500" type="move" name="TashkilBelow"/>
    </contour>
    <component base="aQaf.isol" xOffset="9.99989"/>
    <component base="TwoDots.a" xOffset="786" yOffset="1016"/>
  </outline>
</glyph>
<glyph name="uni0643" format="1">
  <advance width="1649"/>
  <unicode hex="0643"/>
  <outline>
    <contour>
      <point x="800" y="1000" type="move" name="TashkilAbove"/>
    </contour>
    <contour>
      <point x="850" y="-210" type="move" name="TashkilBelow"/>
    </contour>
    <component base="hamza.kaf" xOffset="627" yOffset="567"/>
    <component base="aKaf.isol"/>
  </outline>
</glyph>
<glyph name="uni0644" format="1">
  <advance width="1227"/>
  <unicode hex="0644"/>
  <outline>
    <contour>
      <point x="650" y="-650" type="move" name="TashkilBelow"/>
    </contour>
    <contour>
      <point x="900" y="1300" type="move" name="TashkilAbove"/>
    </contour>
    <component base="aLam.isol" yOffset="-240"/>
  </outline>
</glyph>
<glyph name="uni0645" format="1">
  <advance width="1190"/>
  <unicode hex="0645"/>
  <outline>
    <contour>
      <point x="750" y="1100" type="move" name="TashkilAbove"/>
    </contour>
    <contour>
      <point x="300" y="-800" type="move" name="TashkilBelow"/>
    </contour>
    <component base="aMem.isol" yOffset="-1"/>
  </outline>
</glyph>
<glyph name="uni0649" format="1">
  <advance width="1354"/>
  <unicode hex="0649"/>
  <outline>
    <contour>
      <point x="727" y="-709" type="move" name="HamzaBelow"/>
    </contour>
    <contour>
      <point x="350" y="850" type="move" name="TashkilAbove"/>
    </contour>
    <contour>
      <point x="750" y="-350" type="move" name="TashkilBelow"/>
    </contour>
    <contour>
      <point x="232" y="792" type="move" name="AlefAbove"/>
    </contour>
    <component base="aYaa.isol" yOffset="161"/>
  </outline>
</glyph>
<glyph name="uni064B" format="1">
  <advance width="405"/>
  <unicode hex="064B"/>
  <outline>
    <contour>
      <point x="145" y="2250" type="move" name="TashkilTashkilAbove"/>
    </contour>
    <contour>
      <point x="220" y="1800" type="move" name="_TashkilAbove"/>
    </contour>
    <contour>
      <point x="164" y="1734" type="move" name="_TashkilAboveDot"/>
    </contour>
    <contour>
      <point x="195" y="1750" type="move" name="_MarkAbove"/>
    </contour>
    <contour>
      <point x="45" y="1874.8" type="line"/>
      <point x="45" y="1973.8" type="line"/>
      <point x="356" y="2208" type="line"/>
      <point x="356" y="2109.16" type="line"/>
    </contour>
    <contour>
      <point x="45" y="1729" type="line"/>
      <point x="45.041" y="1817.64" type="line"/>
      <point x="356" y="2051.84" type="line"/>
      <point x="355.781" y="1953" type="line"/>
    </contour>
  </outline>
</glyph>
<glyph name="uni064D" format="1">
  <advance width="405"/>
  <unicode hex="064D"/>
  <outline>
    <contour>
      <point x="205" y="-1406" type="move" name="TashkilTashkilBelow"/>
    </contour>
    <contour>
      <point x="215" y="-850" type="move" name="_MarkBelow"/>
    </contour>
    <contour>
      <point x="250" y="-950" type="move" name="_TashkilBelow"/>
    </contour>
    <contour>
      <point x="499" y="-670" type="move" name="_TashkilBelowDot"/>
    </contour>
    <component base="uni064B" yOffset="-3057"/>
  </outline>
</glyph>
<glyph name="uni064E" format="1">
  <advance width="405"/>
  <unicode hex="064E"/>
  <outline>
    <contour>
      <point x="137" y="2100" type="move" name="TashkilTashkilAbove"/>
    </contour>
    <contour>
      <point x="184" y="1750" type="move" name="_MarkAbove"/>
    </contour>
    <contour>
      <point x="150" y="1748" type="move" name="_TashkilAboveDot"/>
    </contour>
    <contour>
      <point x="220" y="1800" type="move" name="_TashkilAbove"/>
    </contour>
    <contour>
      <point x="45" y="1729" type="line"/>
      <point x="45.041" y="1817.64" type="line"/>
      <point x="356" y="2051.84" type="line"/>
      <point x="355.781" y="1953" type="line"/>
    </contour>
  </outline>
</glyph>
<glyph name="uni064F" format="1">
  <advance width="406"/>
  <unicode hex="064F"/>
  <outline>
    <contour>
      <point x="164" y="2250" type="move" name="TashkilTashkilAbove"/>
    </contour>
    <contour>
      <point x="225" y="1750" type="move" name="_MarkAbove"/>
    </contour>
    <contour>
      <point x="230" y="1750" type="move" name="_TashkilAbove"/>
    </contour>
    <contour>
      <point x="150" y="1761" type="move" name="_TashkilAboveDot"/>
    </contour>
    <contour>
      <point x="277.729" y="1884.08" type="curve"/>
      <point x="234.876" y="1813.38"/>
      <point x="168.659" y="1749.71"/>
      <point x="45" y="1728.89" type="curve"/>
      <point x="45" y="1829.29" type="line"/>
      <point x="108.972" y="1840"/>
      <point x="164.782" y="1863.27"/>
      <point x="197.534" y="1908.87" type="curve"/>
      <point x="102.342" y="1945.91"/>
      <point x="96.2197" y="1998.25"/>
      <point x="97.4434" y="2021.82" type="curve" smooth="yes"/>
      <point x="101.117" y="2094.67"/>
      <point x="189.27" y="2210.68"/>
      <point x="269.464" y="2193.23" type="curve" smooth="yes"/>
      <point x="329.763" y="2180.07"/>
      <point x="371.697" y="2113.65"/>
      <point x="324.866" y="2004.07" type="curve"/>
      <point x="356.087" y="1996.72" type="line"/>
      <point x="355.78" y="1873.98" type="line" smooth="yes"/>
      <point x="355.168" y="1873.98"/>
      <point x="310.174" y="1876.12"/>
    </contour>
    <contour>
      <point x="184.984" y="2076" type="curve" smooth="yes"/>
      <point x="181.617" y="2034.68"/>
      <point x="260.588" y="2022.13"/>
      <point x="260.588" y="2022.13" type="curve"/>
      <point x="281.708" y="2082.42"/>
      <point x="254.466" y="2114.26"/>
      <point x="226.919" y="2111.5" type="curve" smooth="yes"/>
      <point x="203.961" y="2109.05"/>
      <point x="186.515" y="2093.14"/>
    </contour>
  </outline>
</glyph>
<glyph name="uni0650" format="1">
  <advance width="405"/>
  <unicode hex="0650"/>
  <outline>
    <contour>
      <point x="225" y="-850" type="move" name="_MarkBelow"/>
    </contour>
    <contour>
      <point x="191" y="-1283" type="move" name="TashkilTashkilBelow"/>
    </contour>
    <contour>
      <point x="534" y="-670" type="move" name="_TashkilBelowDot"/>
    </contour>
    <contour>
      <point x="250" y="-950" type="move" name="_TashkilBelow"/>
    </contour>
    <component base="uni064E" yOffset="-2901"/>
  </outline>
</glyph>
<glyph name="uni0651" format="1">
  <advance width="406"/>
  <unicode hex="0651"/>
  <outline>
    <contour>
      <point x="200" y="1500" type="move" name="TashkilTashkilBelow"/>
    </contour>
    <contour>
      <point x="164" y="2150" type="move" name="TashkilTashkilAbove"/>
    </contour>
    <contour>
      <point x="164" y="1720" type="move" name="_TashkilAboveDot"/>
    </contour>
    <contour>
      <point x="250" y="1700" type="move" name="_TashkilAbove"/>
    </contour>
    <contour>
      <point x="195" y="1700" type="move" name="_MarkAbove"/>
    </contour>
    <contour>
      <point x="141.193" y="1732.83" type="curve" smooth="yes"/>
      <point x="77.5273" y="1732.83"/>
      <point x="46" y="1783.95"/>
      <point x="46" y="1846.7" type="curve" smooth="yes"/>
      <point x="46" y="1887.38" type="line"/>
      <point x="105.687" y="1930.62" type="line"/>
      <point x="105.687" y="1894.14" type="line" smooth="yes"/>
      <point x="105.687" y="1876.08"/>
      <point x="119.461" y="1861.69"/>
      <point x="136.296" y="1861.69" type="curve" smooth="yes"/>
      <point x="153.131" y="1861.69"/>
      <point x="170.904" y="1876.39"/>
      <point x="170.904" y="1894.14" type="curve" smooth="yes"/>
      <point x="170.904" y="1977.7" type="line"/>
      <point x="226" y="2016.8" type="line"/>
      <point x="226" y="1982.6" type="line" smooth="yes"/>
      <point x="226" y="1964.54"/>
      <point x="239.773" y="1950.15"/>
      <point x="256.608" y="1950.15" type="curve" smooth="yes"/>
      <point x="273.444" y="1950.15"/>
      <point x="287.218" y="1964.84"/>
      <point x="287.218" y="1982.6" type="curve" smooth="yes"/>
      <point x="287.218" y="2060.73" type="line"/>
      <point x="356.087" y="2110.54" type="line"/>
      <point x="356.087" y="1933.93" type="line" smooth="yes"/>
      <point x="356.087" y="1871.49"/>
      <point x="320.274" y="1820.37"/>
      <point x="261.812" y="1820.37" type="curve" smooth="yes"/>
      <point x="252.018" y="1820.37"/>
      <point x="244.978" y="1821.6"/>
      <point x="238.55" y="1823.74" type="curve"/>
      <point x="232.122" y="1775.07"/>
      <point x="193.841" y="1732.83"/>
    </contour>
  </outline>
</glyph>
<glyph name="uni0652" format="1">
  <advance width="370"/>
  <unicode hex="0652"/>
  <outline>
    <contour>
      <point x="195" y="1700" type="move" name="_MarkAbove"/>
    </contour>
    <contour>
      <point x="230" y="1650" type="move" name="_TashkilAbove"/>
    </contour>
    <contour>
      <point x="137" y="1720" type="move" name="_TashkilAboveDot"/>
    </contour>
    <contour>
      <point x="137" y="1734" type="move" name="_TashkilTashkilAbove"/>
    </contour>
    <contour>
      <point x="152.738" y="1726.63" type="line" smooth="yes"/>
      <point x="46.832" y="1726.63"/>
      <point x="42.5469" y="1791.83"/>
      <point x="54.79" y="1849.98" type="curve" smooth="yes"/>
      <point x="60.2998" y="1876.31"/>
      <point x="70.4004" y="1910.59"/>
      <point x="87.542" y="1955.58" type="curve" smooth="yes"/>
      <point x="100.091" y="1989.25"/>
      <point x="118.763" y="2012.51"/>
      <point x="135.903" y="2020.78" type="curve" smooth="yes"/>
      <point x="213.037" y="2058.73"/>
      <point x="320.168" y="1960.48"/>
      <point x="320.168" y="1846.62" type="curve" smooth="yes"/>
      <point x="320.168" y="1814.78" type="line" smooth="yes"/>
      <point x="320.168" y="1777.44"/>
      <point x="296.599" y="1726.63"/>
      <point x="215.792" y="1726.63" type="curve" smooth="yes"/>
    </contour>
    <contour>
      <point x="161.309" y="1931.1" type="curve" smooth="yes"/>
      <point x="127.026" y="1931.1"/>
      <point x="117.232" y="1871.1"/>
      <point x="117.538" y="1862.53" type="curve" smooth="yes"/>
      <point x="118.15" y="1853.35"/>
      <point x="123.048" y="1843.55"/>
      <point x="141.413" y="1843.55" type="curve" smooth="yes"/>
      <point x="245.177" y="1843.86" type="line"/>
      <point x="254.972" y="1889.16"/>
      <point x="202.018" y="1931.1"/>
    </contour>
  </outline>
</glyph>
<glyph name="uni0653" format="1">
  <advance width="0"/>
  <unicode hex="0653"/>
  <outline>
    <contour>
      <point x="0" y="1587" type="move" name="_MarkAbove"/>
    </contour>
    <contour>
      <point x="-50" y="1600" type="move" name="_TashkilAbove"/>
    </contour>
    <contour>
      <point x="-160.007" y="1889.59" type="curve" smooth="yes"/>
      <point x="-142.943" y="1880.01"/>
      <point x="27.6211" y="1752.59"/>
      <point x="296.467" y="1858.6" type="curve"/>
      <point x="317.395" y="1755.89" type="line"/>
      <point x="62.7158" y="1538.16"/>
      <point x="-268.592" y="1740.68"/>
      <point x="-268.592" y="1740.68" type="curve"/>
      <point x="-312.702" y="1674.27" type="line"/>
      <point x="-377.498" y="1737.94" type="line"/>
      <point x="-377.498" y="1737.94"/>
      <point x="-310.528" y="1834.7"/>
      <point x="-310.447" y="1834.86" type="curve" smooth="yes"/>
      <point x="-239.453" y="1940.54"/>
      <point x="-177.475" y="1899.41"/>
    </contour>
  </outline>
</glyph>
<glyph name="uni0654" format="1">
  <advance width="0"/>
  <unicode hex="0654"/>
  <outline>
    <contour>
      <point x="-46.0186" y="1435.17" type="move" name="TashkilTashkilAbove"/>
    </contour>
    <contour>
      <point x="-1.91895" y="900" type="move" name="_MarkAbove"/>
    </contour>
    <contour>
      <point x="0" y="950" type="move" name="_HamzaAbove"/>
    </contour>
    <contour>
      <point x="10" y="950" type="move" name="_TashkilAbove"/>
    </contour>
    <contour>
      <point x="153.348" y="1110.12" type="line"/>
      <point x="-157" y="876" type="line"/>
      <point x="-157.74" y="973.645" type="line"/>
      <point x="-29" y="1071" type="line"/>
      <point x="-29" y="1071"/>
      <point x="-156" y="1110"/>
      <point x="-156" y="1206.79" type="curve" smooth="yes"/>
      <point x="-156" y="1250"/>
      <point x="-120" y="1289.78"/>
      <point x="-91.0273" y="1320.4" type="curve" smooth="yes"/>
      <point x="-79.6608" y="1332.42"/>
      <point x="-46" y="1368.39"/>
      <point x="1.14551" y="1368.39" type="curve" smooth="yes"/>
      <point x="72.8643" y="1368.39"/>
      <point x="129" y="1281.8"/>
      <point x="129" y="1281.8" type="curve"/>
      <point x="47.9834" y="1246.21" type="line"/>
      <point x="47.9834" y="1246.21"/>
      <point x="21.6865" y="1284.37"/>
      <point x="4.6875" y="1294.37" type="curve" smooth="yes"/>
      <point x="-18.4229" y="1307.92"/>
      <point x="-48.5273" y="1301.63"/>
      <point x="-67.6523" y="1282.33" type="curve" smooth="yes"/>
      <point x="-87.1309" y="1262.67"/>
      <point x="-64.4648" y="1238.86"/>
      <point x="-26.2148" y="1224.87" type="curve" smooth="yes"/>
      <point x="-7.70996" y="1218.05"/>
      <point x="63.0361" y="1192.64"/>
      <point x="153.26" y="1208.84" type="curve"/>
    </contour>
  </outline>
</glyph>
<glyph name="uni0655" format="1">
  <advance width="0"/>
  <unicode hex="0655"/>
  <outline>
    <contour>
      <point x="30" y="-600" type="move" name="_TashkilBelow"/>
    </contour>
    <contour>
      <point x="0" y="-500" type="move" name="_MarkBelow"/>
    </contour>
    <contour>
      <point x="0" y="-1120" type="move" name="TashkilTashkilBelow"/>
    </contour>
    <contour>
      <point x="0" y="-500" type="move" name="_HamzaBelow"/>
    </contour>
    <component base="hamza.above" yOffset="-1884"/>
  </outline>
</glyph>
<glyph name="uni0656" format="1">
  <advance width="228"/>
  <unicode hex="0656"/>
  <outline>
    <contour>
      <point x="113" y="-850" type="move" name="_MarkBelow"/>
    </contour>
    <contour>
      <point x="59" y="-670" type="move" name="_TashkilBelowDot"/>
    </contour>
    <contour>
      <point x="150" y="-950" type="move" name="_TashkilBelow"/>
    </contour>
    <component base="uni0670" xOffset="-0.0003125" yOffset="-2924"/>
  </outline>
</glyph>
<glyph name="uni0657" format="1">
  <advance width="406"/>
  <unicode hex="0657"/>
  <outline>
    <contour>
      <point x="200" y="1750" type="move" name="_TashkilTashkilAbove"/>
    </contour>
    <contour>
      <point x="205" y="2225" type="move" name="TashkilTashkilAbove"/>
    </contour>
    <contour>
      <point x="215" y="1750" type="move" name="_MarkAbove"/>
    </contour>
    <contour>
      <point x="205" y="1734" type="move" name="_TashkilAboveDot"/>
    </contour>
    <contour>
      <point x="250" y="1700" type="move" name="_TashkilAbove"/>
    </contour>
    <component base="uni064F" xScale="-1" yScale="-1" xOffset="452.174" yOffset="3924.2"/>
  </outline>
</glyph>
<glyph name="uni0658" format="1">
  <advance width="195"/>
  <unicode hex="0658"/>
  <outline>
    <contour>
      <point x="133" y="1750" type="move" name="_MarkAbove"/>
    </contour>
    <contour>
      <point x="200" y="1650" type="move" name="_TashkilAbove"/>
    </contour>
    <contour>
      <point x="96" y="1734" type="move" name="_TashkilAboveDot"/>
    </contour>
    <contour>
      <point x="142" y="1730" type="curve" smooth="yes"/>
      <point x="64" y="1730"/>
      <point x="0" y="1790"/>
      <point x="0" y="1889" type="curve" smooth="yes"/>
      <point x="0" y="2064.77"/>
      <point x="146" y="2108"/>
      <point x="146" y="2108" type="curve"/>
      <point x="146" y="2108"/>
      <point x="56" y="1882"/>
      <point x="285.957" y="1846.07" type="curve"/>
      <point x="285.957" y="1846.07"/>
      <point x="278" y="1730"/>
    </contour>
  </outline>
</glyph>
<glyph name="uni0659" format="1">
  <advance width="580"/>
  <unicode hex="0659"/>
  <outline>
    <contour>
      <point x="315.005" y="1650" type="move" name="_MarkAbove"/>
    </contour>
    <contour>
      <point x="273" y="1707" type="move" name="_TashkilAboveDot"/>
    </contour>
    <contour>
      <point x="330" y="1600" type="move" name="_TashkilAbove"/>
    </contour>
    <contour>
      <point x="419.142" y="1854.33" type="line"/>
      <point x="530.862" y="1730.37" type="line"/>
      <point x="160.191" y="1730.37" type="line"/>
      <point x="50" y="1854.33" type="line"/>
    </contour>
  </outline>
</glyph>
<glyph name="uni065A" format="1">
  <advance width="0"/>
  <unicode hex="065A"/>
  <outline>
    <contour>
      <point x="0" y="950" type="move" name="_MarkAbove"/>
    </contour>
    <contour>
      <point x="0" y="950" type="move" name="_VAbove"/>
    </contour>
    <contour>
      <point x="0" y="950" type="move" name="_MarkDotAbove"/>
    </contour>
    <contour>
      <point x="50" y="950" type="move" name="_TashkilAbove"/>
    </contour>
    <contour>
      <point x="-41" y="1380" type="move" name="TashkilTashkilAbove"/>
    </contour>
    <contour>
      <point x="2.18262" y="1142.24" type="curve"/>
      <point x="2.18262" y="1142.24"/>
      <point x="4.68652" y="1290.83"/>
      <point x="158.009" y="1290.83" type="curve"/>
      <point x="158.009" y="1142.51" type="line"/>
      <point x="30.0088" y="1142.51"/>
      <point x="25" y="943"/>
      <point x="25" y="943" type="curve"/>
      <point x="-19.2432" y="943" type="line"/>
      <point x="-19.2432" y="943"/>
      <point x="-24.252" y="1142.51"/>
      <point x="-152.252" y="1142.51" type="curve"/>
      <point x="-152.252" y="1290.83" type="line"/>
      <point x="1.06934" y="1290.83"/>
      <point x="2.18262" y="1142.24"/>
    </contour>
  </outline>
</glyph>
<glyph name="uni065B" format="1">
  <advance width="0"/>
  <unicode hex="065B"/>
  <outline>
    <contour>
      <point x="-20" y="900" type="move" name="_MarkAbove"/>
    </contour>
    <contour>
      <point x="0" y="885" type="move" name="_VAbove"/>
    </contour>
    <contour>
      <point x="-41" y="860" type="move" name="_TashkilAboveDot"/>
    </contour>
    <contour>
      <point x="30" y="750" type="move" name="_TashkilAbove"/>
    </contour>
    <contour>
      <point x="-41" y="1300" type="move" name="TashkilTashkilAbove"/>
    </contour>
    <contour>
      <point x="0.56543" y="1025.28" type="curve"/>
      <point x="0.56543" y="1025.28"/>
      <point x="-1.93848" y="876.687"/>
      <point x="-155.261" y="876.687" type="curve"/>
      <point x="-155.261" y="1025" type="line"/>
      <point x="-27.2607" y="1025"/>
      <point x="-22.252" y="1224.51"/>
      <point x="-22.252" y="1224.51" type="curve"/>
      <point x="21.9912" y="1224.51" type="line"/>
      <point x="21.9912" y="1224.51"/>
      <point x="27" y="1025"/>
      <point x="155" y="1025" type="curve"/>
      <point x="155" y="876.687" type="line"/>
      <point x="1.67871" y="876.687"/>
      <point x="0.56543" y="1025.28"/>
    </contour>
  </outline>
</glyph>
<glyph name="uni065C" format="1">
  <advance width="403"/>
  <unicode hex="065C"/>
  <outline>
    <contour>
      <point x="164" y="-850" type="move" name="_MarkBelow"/>
    </contour>
    <contour>
      <point x="175.595" y="-670" type="move" name="_TashkilBelowDot"/>
    </contour>
    <contour>
      <point x="220" y="-950" type="move" name="_TashkilBelow"/>
    </contour>
    <component base="Dot.b" xOffset="201.595" yOffset="-1151"/>
  </outline>
</glyph>
<glyph name="uni065D" format="1">
  <advance width="498"/>
  <unicode hex="065D"/>
  <outline>
    <contour>
      <point x="236" y="1750" type="move" name="_MarkAbove"/>
    </contour>
    <contour>
      <point x="205" y="1761" type="move" name="_TashkilAboveDot"/>
    </contour>
    <contour>
      <point x="280" y="1650" type="move" name="_TashkilAbove"/>
    </contour>
    <contour>
      <point x="174.444" y="1884.08" type="curve"/>
      <point x="208" y="1786"/>
      <point x="283.341" y="1749.71"/>
      <point x="407" y="1728.89" type="curve"/>
      <point x="407" y="1829.29" type="line"/>
      <point x="337" y="1830"/>
      <point x="287.392" y="1863.27"/>
      <point x="254.64" y="1908.87" type="curve"/>
      <point x="349.832" y="1945.91"/>
      <point x="355.954" y="1998.25"/>
      <point x="354.73" y="2021.82" type="curve" smooth="yes"/>
      <point x="351.057" y="2094.67"/>
      <point x="262.904" y="2210.68"/>
      <point x="182.71" y="2193.23" type="curve" smooth="yes"/>
      <point x="122.411" y="2180.07"/>
      <point x="80.4766" y="2113.65"/>
      <point x="127.308" y="2004.07" type="curve"/>
      <point x="96.0869" y="1996.72" type="line"/>
      <point x="96.3936" y="1873.98" type="line" smooth="yes"/>
      <point x="97.0059" y="1873.98"/>
      <point x="142" y="1876.12"/>
    </contour>
    <contour>
      <point x="267.189" y="2076" type="curve" smooth="yes"/>
      <point x="270.557" y="2034.68"/>
      <point x="196.817" y="1996.57"/>
      <point x="196.817" y="1996.57" type="curve"/>
      <point x="177.617" y="2051.39"/>
      <point x="197.708" y="2114.26"/>
      <point x="225.255" y="2111.5" type="curve" smooth="yes"/>
      <point x="248.213" y="2109.05"/>
      <point x="265.659" y="2093.14"/>
    </contour>
  </outline>
</glyph>
<glyph name="uni065E" format="1">
  <advance width="442"/>
  <unicode hex="065E"/>
  <outline>
    <contour>
      <point x="205" y="1650" type="move" name="_MarkAbove"/>
    </contour>
    <contour>
      <point x="177" y="1707" type="move" name="_TashkilAboveDot"/>
    </contour>
    <contour>
      <point x="250" y="1600" type="move" name="_TashkilAbove"/>
    </contour>
    <contour>
      <point x="245.284" y="1789.94" type="line"/>
      <point x="319.05" y="1863.71" type="line"/>
      <point x="392.818" y="1789.94" type="line"/>
      <point x="319.05" y="1716.48" type="line"/>
    </contour>
    <contour>
      <point x="197.533" y="2011.24" type="line"/>
      <point x="123.767" y="1937.47" type="line"/>
      <point x="50" y="2011.24" type="line"/>
      <point x="123.767" y="2084.7" type="line"/>
    </contour>
  </outline>
</glyph>
<glyph name="uni065F" format="1">
  <advance width="464"/>
  <unicode hex="065F"/>
  <outline>
    <contour>
      <point x="259" y="-1406" type="move" name="TashkilTashkilBelow"/>
    </contour>
    <contour>
      <point x="320.044" y="-712.364" type="move" name="_HamzaBelow"/>
    </contour>
    <contour>
      <point x="300" y="-950" type="move" name="_TashkilBelow"/>
    </contour>
    <contour>
      <point x="276" y="-850" type="move" name="_MarkBelow"/>
    </contour>
    <contour>
      <point x="103" y="-1180.96" type="curve"/>
      <point x="103" y="-1104" type="line"/>
      <point x="103" y="-1104"/>
      <point x="124" y="-1080.05"/>
      <point x="152" y="-1080.05" type="curve" smooth="yes"/>
      <point x="170.45" y="-1080.05"/>
      <point x="179.017" y="-1083.49"/>
      <point x="197" y="-1096" type="curve" smooth="yes"/>
      <point x="243" y="-1128"/>
      <point x="264" y="-1092"/>
      <point x="276" y="-1068" type="curve"/>
      <point x="200" y="-1082"/>
      <point x="128.463" y="-1001.57"/>
      <point x="170" y="-944" type="curve" smooth="yes"/>
      <point x="211.92" y="-885.895" type="line" smooth="yes"/>
      <point x="220.116" y="-874.533"/>
      <point x="237.02" y="-844.572"/>
      <point x="288.136" y="-844.572" type="curve" smooth="yes"/>
      <point x="347.517" y="-844.572"/>
      <point x="394.042" y="-919.257"/>
      <point x="394.042" y="-919.257" type="curve"/>
      <point x="327.009" y="-949.866" type="line"/>
      <point x="327.009" y="-949.866"/>
      <point x="305.276" y="-916.809"/>
      <point x="291.196" y="-908.238" type="curve" smooth="yes"/>
      <point x="272.22" y="-896.607"/>
      <point x="247.427" y="-902.117"/>
      <point x="231.51" y="-918.645" type="curve" smooth="yes"/>
      <point x="195.392" y="-956.906"/>
      <point x="319.051" y="-1000.37"/>
      <point x="414.244" y="-982.006" type="curve"/>
      <point x="414.244" y="-1053" type="line"/>
      <point x="346" y="-1074"/>
      <point x="324" y="-1203"/>
      <point x="243.754" y="-1203" type="curve" smooth="yes"/>
      <point x="188.437" y="-1203"/>
      <point x="172" y="-1136"/>
    </contour>
  </outline>
</glyph>
<glyph name="uni0660" format="1">
  <advance width="715"/>
  <unicode hex="0660"/>
  <outline>
    <contour>
      <point x="615.331" y="395.129" type="line"/>
      <point x="357.665" y="137.463" type="line"/>
      <point x="100" y="395.129" type="line"/>
      <point x="357.665" y="652.795" type="line"/>
    </contour>
  </outline>
</glyph>
<glyph name="uni0661" format="1">
  <advance width="638"/>
  <unicode hex="0661"/>
  <outline>
    <contour>
      <point x="416.59" y="1290.83" type="curve"/>
      <point x="573.907" y="877.459"/>
      <point x="519.62" y="176.547"/>
      <point x="519.62" y="176.547" type="curve"/>
      <point x="296.298" y="0" type="line"/>
      <point x="296.298" y="0"/>
      <point x="289.143" y="564.163"/>
      <point x="110.002" y="1022.52" type="curve" smooth="yes"/>
      <point x="109.107" y="1024.85"/>
      <point x="416.59" y="1290.83"/>
    </contour>
  </outline>
</glyph>
<glyph name="uni0662" format="1">
  <advance width="1054"/>
  <unicode hex="0662"/>
  <outline>
    <contour>
      <point x="797.945" y="1290.92" type="line"/>
      <point x="797.945" y="1290.83" type="line"/>
      <point x="944.173" y="1290.83" type="line"/>
      <point x="944.084" y="856.979" type="line" smooth="yes"/>
      <point x="944.084" y="709.766"/>
      <point x="823.077" y="589.653"/>
      <point x="677.563" y="589.653" type="curve" smooth="yes"/>
      <point x="616.479" y="589.653"/>
      <point x="566.037" y="611.833"/>
      <point x="526.864" y="639.29" type="curve"/>
      <point x="533.393" y="409.081"/>
      <point x="519.619" y="176.547"/>
      <point x="519.619" y="176.547" type="curve"/>
      <point x="296.297" y="0" type="line"/>
      <point x="296.297" y="0"/>
      <point x="289.143" y="564.253"/>
      <point x="110.002" y="1022.61" type="curve" smooth="yes"/>
      <point x="109.107" y="1024.94"/>
      <point x="416.589" y="1290.92"/>
      <point x="416.589" y="1290.92" type="curve"/>
      <point x="416.589" y="1290.92"/>
      <point x="467.031" y="1026.82"/>
      <point x="622.829" y="1026.82" type="curve" smooth="yes"/>
      <point x="720.404" y="1026.82"/>
      <point x="797.945" y="1101.76"/>
      <point x="797.945" y="1216.42" type="curve" smooth="yes"/>
    </contour>
  </outline>
</glyph>
<glyph name="uni0663" format="1">
  <advance width="1280"/>
  <unicode hex="0663"/>
  <outline>
    <contour>
      <point x="1169.55" y="1290.92" type="line"/>
      <point x="1170.18" y="911.177" type="line" smooth="yes"/>
      <point x="1170.18" y="742.142"/>
      <point x="1116.88" y="604.231"/>
      <point x="949.182" y="604.231" type="curve" smooth="yes"/>
      <point x="817.442" y="604.231"/>
      <point x="781.578" y="686.155"/>
      <point x="781.578" y="686.155" type="curve"/>
      <point x="781.578" y="686.155"/>
      <point x="736.234" y="589.653"/>
      <point x="635.798" y="589.653" type="curve" smooth="yes"/>
      <point x="571.135" y="589.653"/>
      <point x="527.4" y="621.313"/>
      <point x="527.4" y="621.313" type="curve"/>
      <point x="532.767" y="399.869"/>
      <point x="519.709" y="176.548"/>
      <point x="519.709" y="176.548" type="curve"/>
      <point x="296.387" y="0" type="line"/>
      <point x="296.387" y="0"/>
      <point x="289.232" y="564.253"/>
      <point x="110.002" y="1022.61" type="curve" smooth="yes"/>
      <point x="109.107" y="1024.94"/>
      <point x="416.589" y="1290.92"/>
      <point x="416.589" y="1290.92" type="curve"/>
      <point x="427.411" y="1243.97"/>
      <point x="451.737" y="1169.29"/>
      <point x="476.422" y="1126.18" type="curve" smooth="yes"/>
      <point x="503.789" y="1078.33"/>
      <point x="549.134" y="1027.89"/>
      <point x="622.829" y="1026.82" type="curve" smooth="yes"/>
      <point x="687.312" y="1026.82"/>
      <point x="709.582" y="1073.06"/>
      <point x="709.582" y="1113.12" type="curve" smooth="yes"/>
      <point x="709.582" y="1290.92" type="line"/>
      <point x="852.322" y="1290.92" type="line"/>
      <point x="852.322" y="1113.12" type="line" smooth="yes"/>
      <point x="852.322" y="1065.9"/>
      <point x="890.69" y="1027.53"/>
      <point x="937.913" y="1027.53" type="curve" smooth="yes"/>
      <point x="985.136" y="1027.53"/>
      <point x="1023.5" y="1065.81"/>
      <point x="1023.5" y="1113.12" type="curve" smooth="yes"/>
      <point x="1023.5" y="1290.92" type="line"/>
    </contour>
  </outline>
</glyph>
<glyph name="uni0664" format="1">
  <advance width="1036"/>
  <unicode hex="0664"/>
  <outline>
    <contour>
      <point x="846.308" y="301.635" type="curve" smooth="yes"/>
      <point x="926.447" y="301.913" type="line"/>
      <point x="748.36" y="1" type="line"/>
      <point x="748.36" y="1"/>
      <point x="576.673" y="-12.3486"/>
      <point x="385.229" y="52.4785" type="curve" smooth="yes"/>
      <point x="309.802" y="78.0195"/>
      <point x="213.543" y="122.156"/>
      <point x="186.273" y="204.8" type="curve" smooth="yes"/>
      <point x="166.517" y="264.626"/>
      <point x="185.438" y="333.913"/>
      <point x="242.76" y="410.713" type="curve" smooth="yes"/>
      <point x="361.577" y="572.383" type="line"/>
      <point x="240.534" y="599.652"/>
      <point x="143.143" y="654.47"/>
      <point x="117.265" y="733.496" type="curve" smooth="yes"/>
      <point x="98.3428" y="790.539"/>
      <point x="116.43" y="856.766"/>
      <point x="170.969" y="929.948" type="curve" smooth="yes"/>
      <point x="335.699" y="1153.39" type="line" smooth="yes"/>
      <point x="368.954" y="1198.5"/>
      <point x="438.604" y="1289.49"/>
      <point x="618.36" y="1289.49" type="curve" smooth="yes"/>
      <point x="751.369" y="1289.49"/>
      <point x="866.899" y="1190.68"/>
      <point x="866.899" y="1190.68" type="curve"/>
      <point x="713.021" y="984.209" type="line"/>
      <point x="713.021" y="984.209"/>
      <point x="651.525" y="1064.07"/>
      <point x="546.621" y="1064.9" type="curve" smooth="yes"/>
      <point x="482.064" y="1065.46"/>
      <point x="398.864" y="1020.1"/>
      <point x="402.482" y="963.062" type="curve" smooth="yes"/>
      <point x="406.1" y="903.514"/>
      <point x="576.117" y="855.652"/>
      <point x="576.117" y="855.652" type="curve"/>
      <point x="645.125" y="837.844"/>
      <point x="690.482" y="825.879"/>
      <point x="701.891" y="792.487" type="curve" smooth="yes"/>
      <point x="710.238" y="768.278"/>
      <point x="698.552" y="739.339"/>
      <point x="662.935" y="695.374" type="curve" smooth="yes"/>
      <point x="502.935" y="497.809" type="line" smooth="yes"/>
      <point x="484.013" y="474.435"/>
      <point x="480.117" y="451.896"/>
      <point x="491.525" y="428.521" type="curve" smooth="yes"/>
      <point x="525.195" y="358.4"/>
      <point x="684.639" y="301.635"/>
    </contour>
  </outline>
</glyph>
<glyph name="uni0665" format="1">
  <advance width="979"/>
  <unicode hex="0665"/>
  <outline>
    <contour>
      <point x="691.942" y="1162.85" type="curve" smooth="yes"/>
      <point x="780.15" y="1061.01"/>
      <point x="868.916" y="876.521"/>
      <point x="869.194" y="512.557" type="curve" smooth="yes"/>
      <point x="869.194" y="289.67" type="line" smooth="yes"/>
      <point x="869.194" y="130.226"/>
      <point x="756.221" y="0"/>
      <point x="577.021" y="0" type="curve" smooth="yes"/>
      <point x="400.046" y="0" type="line" smooth="yes"/>
      <point x="266.481" y="0"/>
      <point x="198.029" y="58.4346"/>
      <point x="148.221" y="144.974" type="curve" smooth="yes"/>
      <point x="107.594" y="215.374"/>
      <point x="64.918" y="363.78"/>
      <point x="216.95" y="976.974" type="curve" smooth="yes"/>
      <point x="258.689" y="1145.32"/>
      <point x="315.177" y="1289.49"/>
      <point x="451.524" y="1289.49" type="curve" smooth="yes"/>
      <point x="536.673" y="1289.49"/>
      <point x="630.983" y="1233.24"/>
    </contour>
    <contour>
      <point x="684.15" y="476.939" type="line"/>
      <point x="722.829" y="637.218"/>
      <point x="668.847" y="786.087"/>
      <point x="621.542" y="836.73" type="curve" smooth="yes"/>
      <point x="597.333" y="862.33"/>
      <point x="529.716" y="941.078"/>
      <point x="420.081" y="941.078" type="curve" smooth="yes"/>
      <point x="271.212" y="941.078"/>
      <point x="274.551" y="609.392"/>
      <point x="275.664" y="568.209" type="curve" smooth="yes"/>
      <point x="277.055" y="523.131"/>
      <point x="292.638" y="476.104"/>
      <point x="351.907" y="476.104" type="curve" smooth="yes"/>
    </contour>
  </outline>
</glyph>
<glyph name="uni0666" format="1">
  <advance width="1042"/>
  <unicode hex="0666"/>
  <outline>
    <contour>
      <point x="735.53" y="672.835" type="line" smooth="yes"/>
      <point x="735.53" y="539.548"/>
      <point x="787.565" y="389.565"/>
      <point x="932.539" y="263.792" type="curve"/>
      <point x="665.409" y="0" type="line"/>
      <point x="535.739" y="134.4"/>
      <point x="463.113" y="358.4"/>
      <point x="468.4" y="560.975" type="curve"/>
      <point x="468.122" y="897.67" type="line" smooth="yes"/>
      <point x="467.287" y="897.392"/>
      <point x="420.817" y="876.801"/>
      <point x="311.461" y="876.801" type="curve" smooth="yes"/>
      <point x="162.87" y="876.801"/>
      <point x="110" y="922.713"/>
      <point x="110" y="922.713" type="curve"/>
      <point x="110" y="1290.3" type="line"/>
      <point x="110" y="1290.3"/>
      <point x="263.044" y="1231.58"/>
      <point x="413.583" y="1231.58" type="curve" smooth="yes"/>
      <point x="600.018" y="1231.58"/>
      <point x="736.087" y="1289.46"/>
      <point x="736.087" y="1289.46" type="curve"/>
    </contour>
  </outline>
</glyph>
<glyph name="uni0667" format="1">
  <advance width="1237"/>
  <unicode hex="0667"/>
  <outline>
    <contour>
      <point x="1083.36" y="1289.49" type="curve" smooth="yes"/>
      <point x="1127.04" y="1289.49" type="line"/>
      <point x="1127.04" y="793.322" type="line"/>
      <point x="707.704" y="793.322"/>
      <point x="691.008" y="0"/>
      <point x="691.008" y="0" type="curve"/>
      <point x="546.034" y="0" type="line"/>
      <point x="546.034" y="0"/>
      <point x="529.339" y="793.322"/>
      <point x="110" y="793.322" type="curve"/>
      <point x="110" y="1289.49" type="line"/>
      <point x="153.965" y="1289.49" type="line" smooth="yes"/>
      <point x="271.947" y="1289.49"/>
      <point x="598.01" y="1209.32"/>
      <point x="599.46" y="675.618" type="curve" smooth="yes"/>
      <point x="599.738" y="573.218" type="line" smooth="yes"/>
      <point x="599.738" y="562.644"/>
      <point x="608.087" y="554.296"/>
      <point x="618.66" y="554.296" type="curve" smooth="yes"/>
      <point x="628.956" y="554.296"/>
      <point x="637.582" y="562.644"/>
      <point x="637.582" y="573.218" type="curve" smooth="yes"/>
      <point x="637.86" y="675.618" type="line" smooth="yes"/>
      <point x="639.311" y="1209.32"/>
      <point x="964.008" y="1289.49"/>
    </contour>
  </outline>
</glyph>
<glyph name="uni0668" format="1">
  <advance width="1237"/>
  <unicode hex="0668"/>
  <outline>
    <contour>
      <point x="1083.36" y="0" type="curve" smooth="yes"/>
      <point x="1127.04" y="0" type="line"/>
      <point x="1127.04" y="496.169" type="line"/>
      <point x="707.704" y="496.169"/>
      <point x="691.008" y="1289.49"/>
      <point x="691.008" y="1289.49" type="curve"/>
      <point x="546.034" y="1289.49" type="line"/>
      <point x="546.034" y="1289.49"/>
      <point x="529.339" y="496.169"/>
      <point x="110" y="496.169" type="curve"/>
      <point x="110" y="0" type="line"/>
      <point x="153.965" y="0" type="line" smooth="yes"/>
      <point x="271.947" y="0"/>
      <point x="598.01" y="80.1729"/>
      <point x="599.46" y="613.873" type="curve" smooth="yes"/>
      <point x="599.738" y="716.273" type="line" smooth="yes"/>
      <point x="599.738" y="726.848"/>
      <point x="608.087" y="735.195"/>
      <point x="618.66" y="735.195" type="curve" smooth="yes"/>
      <point x="628.956" y="735.195"/>
      <point x="637.582" y="726.848"/>
      <point x="637.582" y="716.273" type="curve" smooth="yes"/>
      <point x="637.86" y="613.873" type="line" smooth="yes"/>
      <point x="639.311" y="80.1729"/>
      <point x="964.008" y="0"/>
    </contour>
  </outline>
</glyph>
<glyph name="uni0669" format="1">
  <advance width="1013"/>
  <unicode hex="0669"/>
  <outline>
    <contour>
      <point x="706.313" y="672" type="line" smooth="yes"/>
      <point x="706.313" y="538.713"/>
      <point x="758.069" y="388.73"/>
      <point x="903.321" y="263.792" type="curve"/>
      <point x="634.521" y="0" type="line"/>
      <point x="509.583" y="129.113"/>
      <point x="438.348" y="338.922"/>
      <point x="437.791" y="535.096" type="curve"/>
      <point x="325.931" y="535.096" type="line" smooth="yes"/>
      <point x="206.835" y="535.096"/>
      <point x="110" y="631.652"/>
      <point x="110" y="751.026" type="curve" smooth="yes"/>
      <point x="110" y="1000.63" type="line" smooth="yes"/>
      <point x="110" y="1158.96"/>
      <point x="184.766" y="1289.49"/>
      <point x="396.521" y="1289.49" type="curve" smooth="yes"/>
      <point x="518.957" y="1289.49"/>
      <point x="625.32" y="1211.54"/>
      <point x="669.305" y="1084.38" type="curve" smooth="yes"/>
      <point x="684.608" y="1040.14"/>
      <point x="706.313" y="965.844"/>
      <point x="706.313" y="800" type="curve" smooth="yes"/>
    </contour>
    <contour>
      <point x="331.496" y="899.617" type="curve" smooth="yes"/>
      <point x="539.913" y="899.617" type="line"/>
      <point x="539.913" y="899.617"/>
      <point x="406.348" y="1095.51"/>
      <point x="318.139" y="1095.51" type="curve" smooth="yes"/>
      <point x="262.766" y="1095.51"/>
      <point x="237.722" y="1055.44"/>
      <point x="237.722" y="992.557" type="curve" smooth="yes"/>
      <point x="237.722" y="922.435"/>
      <point x="296.156" y="899.617"/>
    </contour>
  </outline>
</glyph>
<glyph name="uni066B" format="1">
  <advance width="804"/>
  <unicode hex="066B"/>
  <outline>
    <contour>
      <point x="430" y="436.188" type="line"/>
      <point x="694.904" y="436.188" type="line"/>
      <point x="374.904" y="-648.5" type="line"/>
      <point x="110" y="-648.5" type="line"/>
    </contour>
  </outline>
</glyph>
<glyph name="uni066C" format="1">
  <advance width="736"/>
  <unicode hex="066C"/>
  <outline>
    <contour>
      <point x="361.593" y="1289" type="line"/>
      <point x="110" y="436.188" type="line"/>
      <point x="374.904" y="436.188" type="line"/>
      <point x="626.497" y="1289" type="line"/>
    </contour>
  </outline>
</glyph>
<glyph name="uni066D" format="1">
  <advance width="1210"/>
  <unicode hex="066D"/>
  <outline>
    <contour>
      <point x="1058.59" y="591.86" type="curve" smooth="yes"/>
      <point x="1086.14" y="571.548"/>
      <point x="1100.05" y="538.991"/>
      <point x="1100.33" y="495.305" type="curve" smooth="yes"/>
      <point x="1100.33" y="451.339"/>
      <point x="1086.42" y="418.782"/>
      <point x="1058.87" y="398.47" type="curve" smooth="yes"/>
      <point x="1031.6" y="378.435"/>
      <point x="996.539" y="375.652"/>
      <point x="968.156" y="377.6" type="curve"/>
      <point x="931.426" y="260.452"/>
      <point x="839.601" y="167.791"/>
      <point x="723.009" y="129.67" type="curve"/>
      <point x="724.679" y="101.844"/>
      <point x="721.339" y="67.8955"/>
      <point x="701.861" y="41.4609" type="curve" smooth="yes"/>
      <point x="681.548" y="13.9131"/>
      <point x="648.991" y="0"/>
      <point x="605.305" y="0" type="curve" smooth="yes"/>
      <point x="561.339" y="0"/>
      <point x="528.783" y="13.9131"/>
      <point x="508.47" y="41.4609" type="curve" smooth="yes"/>
      <point x="488.991" y="67.8955"/>
      <point x="485.652" y="101.844"/>
      <point x="487.322" y="129.67" type="curve"/>
      <point x="370.73" y="167.791"/>
      <point x="278.626" y="260.452"/>
      <point x="242.174" y="377.6" type="curve"/>
      <point x="214.069" y="375.374"/>
      <point x="179.009" y="378.156"/>
      <point x="151.461" y="398.47" type="curve" smooth="yes"/>
      <point x="123.913" y="418.782"/>
      <point x="110" y="451.339"/>
      <point x="110" y="495.026" type="curve" smooth="yes"/>
      <point x="110" y="538.991"/>
      <point x="123.913" y="571.548"/>
      <point x="151.461" y="591.86" type="curve" smooth="yes"/>
      <point x="179.844" y="612.73"/>
      <point x="216.296" y="614.956"/>
      <point x="245.235" y="612.452" type="curve"/>
      <point x="283.356" y="725.982"/>
      <point x="373.791" y="815.305"/>
      <point x="487.878" y="852.312" type="curve"/>
      <point x="484.817" y="881.53"/>
      <point x="486.487" y="919.652"/>
      <point x="508.191" y="948.869" type="curve" smooth="yes"/>
      <point x="528.505" y="976.417"/>
      <point x="561.061" y="990.33"/>
      <point x="604.748" y="990.33" type="curve" smooth="yes"/>
      <point x="648.713" y="990.33"/>
      <point x="681.27" y="976.417"/>
      <point x="701.583" y="948.869" type="curve" smooth="yes"/>
      <point x="723.009" y="919.652"/>
      <point x="724.679" y="881.53"/>
      <point x="721.896" y="852.312" type="curve"/>
      <point x="835.982" y="815.582"/>
      <point x="926.418" y="725.982"/>
      <point x="964.817" y="612.452" type="curve"/>
      <point x="993.479" y="614.956"/>
      <point x="1030.21" y="612.73"/>
    </contour>
    <contour>
      <point x="843.774" y="256.278" type="curve" smooth="yes"/>
      <point x="863.53" y="276.312"/>
      <point x="872.156" y="297.183"/>
      <point x="868.817" y="319.165" type="curve" smooth="yes"/>
      <point x="862.696" y="359.791"/>
      <point x="816.227" y="385.392"/>
      <point x="810.939" y="388.174" type="curve" smooth="yes"/>
      <point x="742.766" y="423.791"/>
      <point x="688.505" y="462.748"/>
      <point x="649.27" y="495.305" type="curve"/>
      <point x="688.505" y="527.86"/>
      <point x="742.766" y="566.817"/>
      <point x="810.939" y="602.435" type="curve" smooth="yes"/>
      <point x="816.227" y="605.217"/>
      <point x="862.696" y="630.817"/>
      <point x="868.817" y="671.443" type="curve" smooth="yes"/>
      <point x="872.156" y="693.147"/>
      <point x="863.809" y="714.296"/>
      <point x="843.774" y="734.33" type="curve" smooth="yes"/>
      <point x="823.739" y="754.365"/>
      <point x="802.592" y="762.713"/>
      <point x="780.887" y="759.374" type="curve" smooth="yes"/>
      <point x="740.261" y="753.252"/>
      <point x="714.661" y="706.782"/>
      <point x="711.878" y="701.495" type="curve" smooth="yes"/>
      <point x="676.261" y="633.321"/>
      <point x="637.305" y="579.061"/>
      <point x="604.748" y="539.826" type="curve"/>
      <point x="572.191" y="579.061"/>
      <point x="533.235" y="633.321"/>
      <point x="497.617" y="701.495" type="curve" smooth="yes"/>
      <point x="494.835" y="706.782"/>
      <point x="469.235" y="753.252"/>
      <point x="428.608" y="759.374" type="curve" smooth="yes"/>
      <point x="406.904" y="762.713"/>
      <point x="385.757" y="754.365"/>
      <point x="365.722" y="734.33" type="curve" smooth="yes"/>
      <point x="345.688" y="714.296"/>
      <point x="337.339" y="693.147"/>
      <point x="340.679" y="671.443" type="curve" smooth="yes"/>
      <point x="346.8" y="630.817"/>
      <point x="393.27" y="605.217"/>
      <point x="398.557" y="602.435" type="curve" smooth="yes"/>
      <point x="466.73" y="566.817"/>
      <point x="520.991" y="527.86"/>
      <point x="560.227" y="495.305" type="curve"/>
      <point x="520.991" y="462.748"/>
      <point x="466.73" y="423.791"/>
      <point x="398.557" y="388.174" type="curve" smooth="yes"/>
      <point x="393.27" y="385.392"/>
      <point x="346.8" y="359.791"/>
      <point x="340.679" y="319.165" type="curve" smooth="yes"/>
      <point x="337.339" y="297.461"/>
      <point x="345.688" y="276.312"/>
      <point x="365.722" y="256.278" type="curve" smooth="yes"/>
      <point x="385.757" y="236.243"/>
      <point x="406.904" y="227.896"/>
      <point x="428.608" y="231.234" type="curve" smooth="yes"/>
      <point x="469.235" y="237.356"/>
      <point x="494.835" y="283.826"/>
      <point x="497.617" y="289.113" type="curve" smooth="yes"/>
      <point x="533.235" y="357.287"/>
      <point x="572.191" y="411.548"/>
      <point x="604.748" y="450.782" type="curve"/>
      <point x="637.305" y="411.548"/>
      <point x="676.261" y="357.287"/>
      <point x="711.878" y="289.113" type="curve" smooth="yes"/>
      <point x="714.661" y="283.826"/>
      <point x="740.261" y="237.356"/>
      <point x="780.887" y="231.234" type="curve" smooth="yes"/>
      <point x="802.592" y="227.896"/>
      <point x="823.739" y="236.243"/>
    </contour>
  </outline>
</glyph>
<glyph name="uni066F" format="1">
  <advance width="1237"/>
  <unicode hex="066F"/>
  <outline>
    <contour>
      <point x="800" y="1100" type="move" name="TashkilAbove"/>
    </contour>
    <contour>
      <point x="650" y="-500" type="move" name="TashkilBelow"/>
    </contour>
    <component base="aQaf.isol" xOffset="9.99989"/>
  </outline>
</glyph>
<glyph name="uni0670" format="1">
  <advance width="228"/>
  <unicode hex="0670"/>
  <outline>
    <contour>
      <point x="154" y="2253" type="move" name="TashkilTashkilAbove2"/>
    </contour>
    <contour>
      <point x="140" y="1700" type="move" name="_HamzaAbove"/>
    </contour>
    <contour>
      <point x="106.954" y="1700" type="move" name="_MarkAbove"/>
    </contour>
    <contour>
      <point x="112.954" y="1640" type="move" name="_AlefAbove"/>
    </contour>
    <contour>
      <point x="140" y="1750" type="move" name="_TashkilAbove"/>
    </contour>
    <contour>
      <point x="68" y="1750" type="move" name="_TashkilTashkilAbove"/>
    </contour>
    <contour>
      <point x="178.074" y="2076.03" type="line"/>
      <point x="148.815" y="1791.13" type="line"/>
      <point x="69.9463" y="1734.47" type="line"/>
      <point x="50" y="1991.33" type="line"/>
    </contour>
  </outline>
</glyph>
<glyph name="uni0672" format="1">
  <advance width="576"/>
  <unicode hex="0672"/>
  <outline>
    <contour>
      <point x="300" y="1750" type="move" name="TashkilAbove"/>
    </contour>
    <contour>
      <point x="320" y="-150" type="move" name="TashkilBelow"/>
    </contour>
    <component base="aAlf.isol"/>
    <component base="hamza.above.wavy" xOffset="14" yOffset="-440"/>
  </outline>
</glyph>
<glyph name="uni0673" format="1">
  <advance width="576"/>
  <unicode hex="0673"/>
  <outline>
    <contour>
      <point x="300" y="1300" type="move" name="TashkilAbove"/>
    </contour>
    <contour>
      <point x="320" y="-620" type="move" name="TashkilBelow"/>
    </contour>
    <component base="aAlf.isol"/>
    <component base="uni065F" xOffset="35" yOffset="756.911"/>
  </outline>
</glyph>
<glyph name="uni0674" format="1">
  <advance width="0"/>
  <unicode hex="0674"/>
  <outline>
    <contour>
      <point x="0" y="900" type="move" name="_MarkAbove"/>
    </contour>
    <contour>
      <point x="30" y="950" type="move" name="_TashkilAbove"/>
    </contour>
    <contour>
      <point x="0" y="950" type="move" name="_HighHamza"/>
    </contour>
    <contour>
      <point x="-50" y="1470" type="move" name="TashkilTashkilAbove"/>
    </contour>
    <component base="hamza.above"/>
  </outline>
</glyph>
<glyph name="uni0675" format="1">
  <advance width="576"/>
  <unicode hex="0675"/>
  <outline>
    <contour>
      <point x="300" y="1750" type="move" name="TashkilAbove"/>
    </contour>
    <contour>
      <point x="320" y="-150" type="move" name="TashkilBelow"/>
    </contour>
    <component base="aAlf.isol" yOffset="-6"/>
    <component base="uni0674" xScale="1.10691" xOffset="285.605" yOffset="298"/>
  </outline>
</glyph>
<glyph name="uni0676" format="1">
  <advance width="902"/>
  <unicode hex="0676"/>
  <outline>
    <contour>
      <point x="680" y="1400" type="move" name="TashkilAbove"/>
    </contour>
    <contour>
      <point x="100" y="-800" type="move" name="TashkilBelow"/>
    </contour>
    <component base="aWaw.isol"/>
    <component base="uni0674" xScale="0.875901" yScale="0.8587" xOffset="656.236" yOffset="130.821"/>
  </outline>
</glyph>
<glyph name="uni0677" format="1">
  <advance width="866"/>
  <unicode hex="0677"/>
  <outline>
    <contour>
      <point x="500" y="1400" type="move" name="TashkilAbove"/>
    </contour>
    <contour>
      <point x="100" y="-800" type="move" name="TashkilBelow"/>
    </contour>
    <component base="aWaw.isol"/>
    <component base="hamzadamma.mark" xOffset="73" yOffset="-251"/>
  </outline>
</glyph>
<glyph name="uni067A" format="1">
  <advance width="1608"/>
  <unicode hex="067A"/>
  <outline>
    <contour>
      <point x="830" y="1300" type="move" name="TashkilAbove"/>
    </contour>
    <contour>
      <point x="850" y="-210" type="move" name="TashkilBelow"/>
    </contour>
    <component base="aBaa.isol"/>
    <component base="vTwoDots.a" xOffset="789" yOffset="595"/>
  </outline>
</glyph>
<glyph name="uni067B" format="1">
  <advance width="1608"/>
  <unicode hex="067B"/>
  <outline>
    <contour>
      <point x="830" y="700" type="move" name="TashkilAbove"/>
    </contour>
    <contour>
      <point x="850" y="-820" type="move" name="TashkilBelow"/>
    </contour>
    <component base="aBaa.isol"/>
    <component base="vTwoDots.b" xOffset="762" yOffset="-455"/>
  </outline>
</glyph>
<glyph name="uni067F" format="1">
  <advance width="1608"/>
  <unicode hex="067F"/>
  <outline>
    <contour>
      <point x="830" y="1350" type="move" name="TashkilAbove"/>
    </contour>
    <contour>
      <point x="850" y="-210" type="move" name="TashkilBelow"/>
    </contour>
    <component base="aBaa.isol"/>
    <component base="FourDots.a" xOffset="789" yOffset="595"/>
  </outline>
</glyph>
<glyph name="uni0681" format="1">
  <advance width="1380"/>
  <unicode hex="0681"/>
  <outline>
    <contour>
      <point x="650" y="1700" type="move" name="TashkilAbove"/>
    </contour>
    <contour>
      <point x="650" y="-750" type="move" name="TashkilBelow"/>
    </contour>
    <component base="aHaa.isol"/>
    <component base="hamza.above" xOffset="641" yOffset="216"/>
  </outline>
</glyph>
<glyph name="uni0682" format="1">
  <advance width="1380"/>
  <unicode hex="0682"/>
  <outline>
    <contour>
      <point x="650" y="1750" type="move" name="TashkilAbove"/>
    </contour>
    <contour>
      <point x="650" y="-750" type="move" name="TashkilBelow"/>
    </contour>
    <component base="aHaa.isol"/>
    <component base="vTwoDots.a" xOffset="601" yOffset="1062"/>
  </outline>
</glyph>
<glyph name="uni0683" format="1">
  <advance width="1380"/>
  <unicode hex="0683"/>
  <outline>
    <contour>
      <point x="650" y="1150" type="move" name="TashkilAbove"/>
    </contour>
    <contour>
      <point x="650" y="-750" type="move" name="TashkilBelow"/>
    </contour>
    <component base="aHaa.isol"/>
    <component base="TwoDots.b" xScale="0.95268" yScale="0.939591" xOffset="892.835" yOffset="29.4868"/>
  </outline>
</glyph>
<glyph name="uni0684" format="1">
  <advance width="1380"/>
  <unicode hex="0684"/>
  <outline>
    <contour>
      <point x="650" y="1150" type="move" name="TashkilAbove"/>
    </contour>
    <contour>
      <point x="650" y="-750" type="move" name="TashkilBelow"/>
    </contour>
    <component base="aHaa.isol"/>
    <component base="vTwoDots.b" xOffset="840" yOffset="8"/>
  </outline>
</glyph>
<glyph name="uni0685" format="1">
  <advance width="1380"/>
  <unicode hex="0685"/>
  <outline>
    <contour>
      <point x="650" y="1750" type="move" name="TashkilAbove"/>
    </contour>
    <contour>
      <point x="650" y="-750" type="move" name="TashkilBelow"/>
    </contour>
    <component base="aHaa.isol"/>
    <component base="ThreeDots.a" xOffset="600" yOffset="1086"/>
  </outline>
</glyph>
<glyph name="uni0686" format="1">
  <advance width="1380"/>
  <unicode hex="0686"/>
  <outline>
    <contour>
      <point x="650" y="1150" type="move" name="TashkilAbove"/>
    </contour>
    <contour>
      <point x="650" y="-750" type="move" name="TashkilBelow"/>
    </contour>
    <component base="aHaa.isol"/>
    <component base="iThreeDots.b" xScale="0.952456" yScale="0.960156" xOffset="904.5" yOffset="-192"/>
  </outline>
</glyph>
<glyph name="uni0687" format="1">
  <advance width="1380"/>
  <unicode hex="0687"/>
  <outline>
    <contour>
      <point x="650" y="1150" type="move" name="TashkilAbove"/>
    </contour>
    <contour>
      <point x="650" y="-750" type="move" name="TashkilBelow"/>
    </contour>
    <component base="aHaa.isol"/>
    <component base="FourDots.b" xScale="0.949125" yScale="0.950291" xOffset="905.647" yOffset="-200.951"/>
  </outline>
</glyph>
<glyph name="uni0688" format="1">
  <advance width="942"/>
  <unicode hex="0688"/>
  <outline>
    <contour>
      <point x="450" y="1600" type="move" name="TashkilAbove"/>
    </contour>
    <contour>
      <point x="500" y="-210" type="move" name="TashkilBelow"/>
    </contour>
    <component base="aDal.isol"/>
    <component base="smalltaa.above" xOffset="426" yOffset="1110"/>
  </outline>
</glyph>
<glyph name="uni0689" format="1">
  <advance width="942"/>
  <unicode hex="0689"/>
  <outline>
    <contour>
      <point x="450" y="1150" type="move" name="TashkilAbove"/>
    </contour>
    <contour>
      <point x="500" y="-400" type="move" name="TashkilBelow"/>
    </contour>
    <component base="aDal.isol"/>
    <component base="ring.below" xOffset="480" yOffset="89"/>
  </outline>
</glyph>
<glyph name="uni068A" format="1">
  <advance width="942"/>
  <unicode hex="068A"/>
  <outline>
    <contour>
      <point x="450" y="1150" type="move" name="TashkilAbove"/>
    </contour>
    <contour>
      <point x="500" y="-600" type="move" name="TashkilBelow"/>
    </contour>
    <component base="aDal.isol"/>
    <component base="Dot.b" xOffset="461" yOffset="-384.089"/>
  </outline>
</glyph>
<glyph name="uni068B" format="1">
  <advance width="942"/>
  <unicode hex="068B"/>
  <outline>
    <contour>
      <point x="450" y="1600" type="move" name="TashkilAbove"/>
    </contour>
    <contour>
      <point x="500" y="-600" type="move" name="TashkilBelow"/>
    </contour>
    <component base="aDal.isol"/>
    <component base="smalltaa.above" xOffset="426" yOffset="1110"/>
    <component base="Dot.b" xOffset="461" yOffset="-384.089"/>
  </outline>
</glyph>
<glyph name="uni068C" format="1">
  <advance width="942"/>
  <unicode hex="068C"/>
  <outline>
    <contour>
      <point x="500" y="1600" type="move" name="TashkilAbove"/>
    </contour>
    <contour>
      <point x="500" y="-210" type="move" name="TashkilBelow"/>
    </contour>
    <component base="aDal.isol"/>
    <component base="TwoDots.a" xOffset="454" yOffset="1108"/>
  </outline>
</glyph>
<glyph name="uni068D" format="1">
  <advance width="942"/>
  <unicode hex="068D"/>
  <outline>
    <contour>
      <point x="450" y="1150" type="move" name="TashkilAbove"/>
    </contour>
    <contour>
      <point x="500" y="-600" type="move" name="TashkilBelow"/>
    </contour>
    <component base="aDal.isol"/>
    <component base="TwoDots.b" xOffset="456" yOffset="-338"/>
  </outline>
</glyph>
<glyph name="uni0690" format="1">
  <advance width="942"/>
  <unicode hex="0690"/>
  <outline>
    <contour>
      <point x="500" y="1850" type="move" name="TashkilAbove"/>
    </contour>
    <contour>
      <point x="500" y="-210" type="move" name="TashkilBelow"/>
    </contour>
    <component base="aDal.isol"/>
    <component base="FourDots.a" xOffset="456" yOffset="1108"/>
  </outline>
</glyph>
<glyph name="uni0691" format="1">
  <advance width="648"/>
  <unicode hex="0691"/>
  <outline>
    <contour>
      <point x="330" y="1250" type="move" name="TashkilAbove"/>
    </contour>
    <contour>
      <point x="-100" y="-800" type="move" name="TashkilBelow"/>
    </contour>
    <component base="aRaa.isol"/>
    <component base="smalltaa.above" xOffset="299" yOffset="750"/>
  </outline>
</glyph>
<glyph name="uni0692" format="1">
  <advance width="648"/>
  <unicode hex="0692"/>
  <outline>
    <contour>
      <point x="350" y="1300" type="move" name="TashkilAbove"/>
    </contour>
    <contour>
      <point x="-100" y="-800" type="move" name="TashkilBelow"/>
    </contour>
    <component base="aRaa.isol"/>
    <component base="smallv.above" xOffset="312" yOffset="-194"/>
  </outline>
</glyph>
<glyph name="uni0693" format="1">
  <advance width="648"/>
  <unicode hex="0693"/>
  <outline>
    <contour>
      <point x="300" y="800" type="move" name="TashkilAbove"/>
    </contour>
    <contour>
      <point x="200" y="-1050" type="move" name="TashkilBelow"/>
    </contour>
    <component base="aRaa.isol"/>
    <component base="ring.below" xOffset="204" yOffset="-561"/>
  </outline>
</glyph>
<glyph name="uni0694" format="1">
  <advance width="648"/>
  <unicode hex="0694"/>
  <outline>
    <contour>
      <point x="300" y="800" type="move" name="TashkilAbove"/>
    </contour>
    <contour>
      <point x="400" y="-1150" type="move" name="TashkilBelow"/>
    </contour>
    <component base="aRaa.isol"/>
    <component base="Dot.b" xOffset="332" yOffset="-952"/>
  </outline>
</glyph>
<glyph name="uni0695" format="1">
  <advance width="648"/>
  <unicode hex="0695"/>
  <outline>
    <contour>
      <point x="300" y="800" type="move" name="TashkilAbove"/>
    </contour>
    <contour>
      <point x="400" y="-1250" type="move" name="TashkilBelow"/>
    </contour>
    <component base="aRaa.isol"/>
    <component base="smallv.below" xOffset="120" yOffset="127"/>
  </outline>
</glyph>
<glyph name="uni0696" format="1">
  <advance width="878"/>
  <unicode hex="0696"/>
  <outline>
    <contour>
      <point x="500" y="800" type="move" name="TashkilAbove"/>
    </contour>
    <contour>
      <point x="600" y="-1150" type="move" name="TashkilBelow"/>
    </contour>
    <component base="aRaa.isol" xOffset="230"/>
    <component base="Dot.b" xOffset="566" yOffset="-952"/>
    <component base="dot.alt1" xOffset="232" yOffset="-90"/>
  </outline>
</glyph>
<glyph name="uni0698" format="1">
  <advance width="648"/>
  <unicode hex="0698"/>
  <outline>
    <contour>
      <point x="350" y="1450" type="move" name="TashkilAbove"/>
    </contour>
    <contour>
      <point x="-100" y="-800" type="move" name="TashkilBelow"/>
    </contour>
    <component base="aRaa.isol"/>
    <component base="ThreeDots.a" xOffset="310" yOffset="749"/>
  </outline>
</glyph>
<glyph name="uni0699" format="1">
  <advance width="648"/>
  <unicode hex="0699"/>
  <outline>
    <contour>
      <point x="370" y="1500" type="move" name="TashkilAbove"/>
    </contour>
    <contour>
      <point x="-100" y="-800" type="move" name="TashkilBelow"/>
    </contour>
    <component base="aRaa.isol"/>
    <component base="FourDots.a" xOffset="313" yOffset="748"/>
  </outline>
</glyph>
<glyph name="uni069A" format="1">
  <advance width="1975"/>
  <unicode hex="069A"/>
  <outline>
    <contour>
      <point x="1470" y="1200" type="move" name="TashkilAbove"/>
    </contour>
    <contour>
      <point x="650" y="-650" type="move" name="TashkilBelow"/>
    </contour>
    <component base="aSen.isol"/>
    <component base="Dot.a" xOffset="1418" yOffset="748"/>
    <component base="Dot.b" xOffset="1416" yOffset="-384"/>
  </outline>
</glyph>
<glyph name="uni069B" format="1">
  <advance width="1975"/>
  <unicode hex="069B"/>
  <outline>
    <contour>
      <point x="1450" y="800" type="move" name="TashkilAbove"/>
    </contour>
    <contour>
      <point x="650" y="-650" type="move" name="TashkilBelow"/>
    </contour>
    <component base="aSen.isol"/>
    <component base="iThreeDots.b" xOffset="1417" yOffset="-622"/>
  </outline>
</glyph>
<glyph name="uni069D" format="1">
  <advance width="2229"/>
  <unicode hex="069D"/>
  <outline>
    <contour>
      <point x="1750" y="950" type="move" name="TashkilAbove"/>
    </contour>
    <contour>
      <point x="650" y="-650" type="move" name="TashkilBelow"/>
    </contour>
    <component base="aSad.isol"/>
    <component base="TwoDots.b" xOffset="1535" yOffset="-336"/>
  </outline>
</glyph>
<glyph name="uni069E" format="1">
  <advance width="2229"/>
  <unicode hex="069E"/>
  <outline>
    <contour>
      <point x="1770" y="1650" type="move" name="TashkilAbove"/>
    </contour>
    <contour>
      <point x="650" y="-650" type="move" name="TashkilBelow"/>
    </contour>
    <component base="aSad.isol"/>
    <component base="ThreeDots.a" xOffset="1727" yOffset="933"/>
  </outline>
</glyph>
<glyph name="uni069F" format="1">
  <advance width="1490"/>
  <unicode hex="069F"/>
  <outline>
    <contour>
      <point x="1130" y="1600" type="move" name="TashkilAbove"/>
    </contour>
    <contour>
      <point x="800" y="-210" type="move" name="TashkilBelow"/>
    </contour>
    <component base="aTaa.isol"/>
    <component base="ThreeDots.a" xOffset="1081" yOffset="934"/>
  </outline>
</glyph>
<glyph name="uni06A0" format="1">
  <advance width="1319"/>
  <unicode hex="06A0"/>
  <outline>
    <contour>
      <point x="850" y="1900" type="move" name="TashkilAbove"/>
    </contour>
    <contour>
      <point x="650" y="-750" type="move" name="TashkilBelow"/>
    </contour>
    <component base="aAyn.isol"/>
    <component base="ThreeDots.a" xOffset="823" yOffset="1222"/>
  </outline>
</glyph>
<glyph name="uni06A1" format="1">
  <advance width="1695"/>
  <unicode hex="06A1"/>
  <outline>
    <contour>
      <point x="1250" y="1400" type="move" name="TashkilAbove"/>
    </contour>
    <contour>
      <point x="850" y="-210" type="move" name="TashkilBelow"/>
    </contour>
    <component base="aFaa.isol" xOffset="-7.71115e-07"/>
  </outline>
</glyph>
<glyph name="uni06A4" format="1">
  <advance width="1695"/>
  <unicode hex="06A4"/>
  <outline>
    <contour>
      <point x="1280" y="1950" type="move" name="TashkilAbove"/>
    </contour>
    <contour>
      <point x="850" y="-210" type="move" name="TashkilBelow"/>
    </contour>
    <component base="aFaa.isol" xOffset="-7.71115e-07"/>
    <component base="ThreeDots.a" xOffset="1236" yOffset="1272"/>
  </outline>
</glyph>
<glyph name="uni06A5" format="1">
  <advance width="1695"/>
  <unicode hex="06A5"/>
  <outline>
    <contour>
      <point x="1250" y="1400" type="move" name="TashkilAbove"/>
    </contour>
    <contour>
      <point x="1140" y="-800" type="move" name="TashkilBelow"/>
    </contour>
    <component base="aFaa.isol" xOffset="-7.71115e-07"/>
    <component base="iThreeDots.b" xOffset="1119" yOffset="-611"/>
  </outline>
</glyph>
<glyph name="uni06A8" format="1">
  <advance width="1237"/>
  <unicode hex="06A8"/>
  <outline>
    <contour>
      <point x="840" y="1700" type="move" name="TashkilAbove"/>
    </contour>
    <contour>
      <point x="650" y="-500" type="move" name="TashkilBelow"/>
    </contour>
    <component base="aQaf.isol" xOffset="9.99989"/>
    <component base="ThreeDots.a" xOffset="784" yOffset="1016"/>
  </outline>
</glyph>
<glyph name="uni06AB" format="1">
  <advance width="1649"/>
  <unicode hex="06AB"/>
  <outline>
    <contour>
      <point x="800" y="1000" type="move" name="TashkilAbove"/>
    </contour>
    <contour>
      <point x="830" y="-400" type="move" name="TashkilBelow"/>
    </contour>
    <component base="hamza.kaf" xOffset="627" yOffset="567"/>
    <component base="aKaf.isol"/>
    <component base="ring.below" xOffset="824" yOffset="86"/>
  </outline>
</glyph>
<glyph name="uni06AC" format="1">
  <advance width="1649"/>
  <unicode hex="06AC"/>
  <outline>
    <contour>
      <point x="850" y="1400" type="move" name="TashkilAbove"/>
    </contour>
    <contour>
      <point x="850" y="-210" type="move" name="TashkilBelow"/>
    </contour>
    <component base="hamza.kaf" xOffset="627" yOffset="567"/>
    <component base="aKaf.isol"/>
    <component base="Dot.a" xOffset="809" yOffset="984"/>
  </outline>
</glyph>
<glyph name="uni06AE" format="1">
  <advance width="1649"/>
  <unicode hex="06AE"/>
  <outline>
    <contour>
      <point x="800" y="1000" type="move" name="TashkilAbove"/>
    </contour>
    <contour>
      <point x="830" y="-800" type="move" name="TashkilBelow"/>
    </contour>
    <component base="aKaf.isol"/>
    <component base="hamza.kaf" xOffset="627" yOffset="537"/>
    <component base="iThreeDots.b" xOffset="792" yOffset="-622"/>
  </outline>
</glyph>
<glyph name="uni06AF" format="1">
  <advance width="1656"/>
  <unicode hex="06AF"/>
  <outline>
    <contour>
      <point x="650" y="800" type="move" name="TashkilAbove"/>
    </contour>
    <contour>
      <point x="850" y="-210" type="move" name="TashkilBelow"/>
    </contour>
    <component base="aGaf.isol"/>
    <component base="dash.gaf" xOffset="1201" yOffset="1129"/>
  </outline>
</glyph>
<glyph name="uni06B0" format="1">
  <advance width="1656"/>
  <unicode hex="06B0"/>
  <outline>
    <contour>
      <point x="650" y="800" type="move" name="TashkilAbove"/>
    </contour>
    <contour>
      <point x="850" y="-210" type="move" name="TashkilBelow"/>
    </contour>
    <component base="ring.below" xScale="0.505537" yScale="0.51434" xOffset="1455.7" yOffset="1001.63"/>
    <component base="uni06AF"/>
  </outline>
</glyph>
<glyph name="uni06B1" format="1">
  <advance width="1656"/>
  <unicode hex="06B1"/>
  <outline>
    <contour>
      <point x="640" y="1450" type="move" name="TashkilAbove"/>
    </contour>
    <contour>
      <point x="850" y="-210" type="move" name="TashkilBelow"/>
    </contour>
    <component base="TwoDots.a" xOffset="612" yOffset="986"/>
    <component base="uni06AF"/>
  </outline>
</glyph>
<glyph name="uni06B2" format="1">
  <advance width="1656"/>
  <unicode hex="06B2"/>
  <outline>
    <contour>
      <point x="650" y="800" type="move" name="TashkilAbove"/>
    </contour>
    <contour>
      <point x="800" y="-600" type="move" name="TashkilBelow"/>
    </contour>
    <component base="TwoDots.b" xOffset="798" yOffset="-338"/>
    <component base="uni06AF"/>
  </outline>
</glyph>
<glyph name="uni06B3" format="1">
  <advance width="1656"/>
  <unicode hex="06B3"/>
  <outline>
    <contour>
      <point x="650" y="800" type="move" name="TashkilAbove"/>
    </contour>
    <contour>
      <point x="1120" y="-800" type="move" name="TashkilBelow"/>
    </contour>
    <component base="vTwoDots.b" xOffset="1060" yOffset="-442.089"/>
    <component base="uni06AF"/>
  </outline>
</glyph>
<glyph name="uni06B4" format="1">
  <advance width="1656"/>
  <unicode hex="06B4"/>
  <outline>
    <contour>
      <point x="670" y="1650" type="move" name="TashkilAbove"/>
    </contour>
    <contour>
      <point x="850" y="-210" type="move" name="TashkilBelow"/>
    </contour>
    <component base="ThreeDots.a" xOffset="620" yOffset="984"/>
    <component base="uni06AF"/>
  </outline>
</glyph>
<glyph name="uni06B5" format="1">
  <advance width="1215"/>
  <unicode hex="06B5"/>
  <outline>
    <contour>
      <point x="650" y="-650" type="move" name="TashkilBelow"/>
    </contour>
    <contour>
      <point x="850" y="1750" type="move" name="TashkilAbove"/>
    </contour>
    <component base="aLam.isol" xOffset="-12" yOffset="-240"/>
    <component base="uni065A" xOffset="818" yOffset="266"/>
  </outline>
</glyph>
<glyph name="uni06B6" format="1">
  <advance width="1227"/>
  <unicode hex="06B6"/>
  <outline>
    <contour>
      <point x="650" y="-650" type="move" name="TashkilBelow"/>
    </contour>
    <contour>
      <point x="970" y="1750" type="move" name="TashkilAbove"/>
    </contour>
    <component base="aLam.isol" yOffset="-242"/>
    <component base="Dot.a" xOffset="918" yOffset="1289"/>
  </outline>
</glyph>
<glyph name="uni06B7" format="1">
  <advance width="1227"/>
  <unicode hex="06B7"/>
  <outline>
    <contour>
      <point x="650" y="-650" type="move" name="TashkilBelow"/>
    </contour>
    <contour>
      <point x="840" y="1950" type="move" name="TashkilAbove"/>
    </contour>
    <component base="aLam.isol" yOffset="-242"/>
    <component base="ThreeDots.a" xOffset="786" yOffset="1290.78"/>
  </outline>
</glyph>
<glyph name="uni06B8" format="1">
  <advance width="1227"/>
  <unicode hex="06B8"/>
  <outline>
    <contour>
      <point x="650" y="-1200" type="move" name="TashkilBelow"/>
    </contour>
    <contour>
      <point x="900" y="1300" type="move" name="TashkilAbove"/>
    </contour>
    <component base="aLam.isol" yOffset="-240.167"/>
    <component base="iThreeDots.b" xOffset="640" yOffset="-1034.58"/>
  </outline>
</glyph>
<glyph name="uni06B9" format="1">
  <advance width="1238"/>
  <unicode hex="06B9"/>
  <outline>
    <contour>
      <point x="650" y="1000" type="move" name="TashkilAbove"/>
    </contour>
    <contour>
      <point x="630" y="-840" type="move" name="TashkilBelow"/>
    </contour>
    <component base="aNon.isol" xOffset="0.000404597"/>
    <component base="Dot.a" xOffset="593.139" yOffset="562.771"/>
    <component base="Dot.b" xOffset="593" yOffset="-665.5"/>
  </outline>
</glyph>
<glyph name="uni06BA" format="1">
  <advance width="1238"/>
  <unicode hex="06BA"/>
  <outline>
    <contour>
      <point x="650" y="700" type="move" name="TashkilAbove"/>
    </contour>
    <contour>
      <point x="650" y="-500" type="move" name="TashkilBelow"/>
    </contour>
    <component base="aNon.isol" xOffset="0.000404597"/>
  </outline>
</glyph>
<glyph name="uni06BB" format="1">
  <advance width="1238"/>
  <unicode hex="06BB"/>
  <outline>
    <contour>
      <point x="650" y="1100" type="move" name="TashkilAbove"/>
    </contour>
    <contour>
      <point x="650" y="-500" type="move" name="TashkilBelow"/>
    </contour>
    <component base="aNon.isol" xOffset="0.000404597"/>
    <component base="smalltaa.above" xOffset="578" yOffset="560"/>
  </outline>
</glyph>
<glyph name="uni06BC" format="1">
  <advance width="1238"/>
  <unicode hex="06BC"/>
  <outline>
    <contour>
      <point x="650" y="1000" type="move" name="TashkilAbove"/>
    </contour>
    <contour>
      <point x="680" y="-720" type="move" name="TashkilBelow"/>
    </contour>
    <component base="aNon.isol" xOffset="0.000404597"/>
    <component base="Dot.a" xOffset="593.139" yOffset="562.771"/>
    <component base="ring.below" xOffset="672" yOffset="-204"/>
  </outline>
</glyph>
<glyph name="uni06BD" format="1">
  <advance width="1238"/>
  <unicode hex="06BD"/>
  <outline>
    <contour>
      <point x="650" y="1250" type="move" name="TashkilAbove"/>
    </contour>
    <contour>
      <point x="650" y="-500" type="move" name="TashkilBelow"/>
    </contour>
    <component base="aNon.isol" xOffset="0.000404597"/>
    <component base="ThreeDots.a" xOffset="592" yOffset="564"/>
  </outline>
</glyph>
<glyph name="uni06BE" format="1">
  <advance width="1666"/>
  <unicode hex="06BE"/>
  <outline>
    <contour>
      <point x="500" y="-210" type="move" name="TashkilBelow"/>
    </contour>
    <contour>
      <point x="1000" y="1200" type="move" name="TashkilAbove"/>
    </contour>
    <component base="aHehKnotted.isol"/>
  </outline>
</glyph>
<glyph name="uni06C2" format="1">
  <advance width="854"/>
  <unicode hex="06C2"/>
  <outline>
    <contour>
      <point x="400" y="1500" type="move" name="TashkilAbove"/>
    </contour>
    <contour>
      <point x="450" y="-210" type="move" name="TashkilBelow"/>
    </contour>
    <component base="aHeh.isol"/>
    <component base="hamza.above" xOffset="415" yOffset="6"/>
  </outline>
</glyph>
<glyph name="uni06C4" format="1">
  <advance width="996"/>
  <unicode hex="06C4"/>
  <outline>
    <contour>
      <point x="570" y="950" type="move" name="TashkilAbove"/>
    </contour>
    <contour>
      <point x="250" y="-800" type="move" name="TashkilBelow"/>
    </contour>
    <component base="aWaw.isol" xOffset="130"/>
    <component base="ring.below" xOffset="223"/>
  </outline>
</glyph>
<glyph name="uni06C5" format="1">
  <advance width="996"/>
  <unicode hex="06C5"/>
  <outline>
    <contour>
      <point x="570" y="950" type="move" name="TashkilAbove"/>
    </contour>
    <contour>
      <point x="250" y="-800" type="move" name="TashkilBelow"/>
    </contour>
    <contour>
      <point x="680" y="-63" type="line"/>
      <point x="678" y="-190" type="line"/>
      <point x="133" y="-189" type="line"/>
      <point x="228" y="-63" type="line"/>
    </contour>
    <component base="aWaw.isol" xOffset="130"/>
  </outline>
</glyph>
<glyph name="uni06C7" format="1">
  <advance width="866"/>
  <unicode hex="06C7"/>
  <outline>
    <contour>
      <point x="450" y="1450" type="move" name="TashkilAbove"/>
    </contour>
    <contour>
      <point x="100" y="-800" type="move" name="TashkilBelow"/>
    </contour>
    <component base="aWaw.isol"/>
    <component base="damma.mark" xOffset="208" yOffset="-249.222"/>
  </outline>
</glyph>
<glyph name="uni06C8" format="1">
  <advance width="866"/>
  <unicode hex="06C8"/>
  <outline>
    <contour>
      <point x="450" y="1350" type="move" name="TashkilAbove"/>
    </contour>
    <contour>
      <point x="100" y="-800" type="move" name="TashkilBelow"/>
    </contour>
    <component base="aWaw.isol"/>
    <component base="aAlf.dagger" xScale="1.3" yScale="1.3" xOffset="672.075" yOffset="-186.376"/>
  </outline>
</glyph>
<glyph name="uni06C9" format="1">
  <advance width="866"/>
  <unicode hex="06C9"/>
  <outline>
    <contour>
      <point x="450" y="1350" type="move" name="TashkilAbove"/>
    </contour>
    <contour>
      <point x="100" y="-800" type="move" name="TashkilBelow"/>
    </contour>
    <component base="aWaw.isol"/>
    <component base="uni065B" xOffset="401" yOffset="-18"/>
  </outline>
</glyph>
<glyph name="uni06CA" format="1">
  <advance width="866"/>
  <unicode hex="06CA"/>
  <outline>
    <contour>
      <point x="450" y="1350" type="move" name="TashkilAbove"/>
    </contour>
    <contour>
      <point x="100" y="-800" type="move" name="TashkilBelow"/>
    </contour>
    <component base="aWaw.isol"/>
    <component base="TwoDots.a" xOffset="410" yOffset="858"/>
  </outline>
</glyph>
<glyph name="uni06CD" format="1">
  <advance width="1535"/>
  <unicode hex="06CD"/>
  <outline>
    <contour>
      <point x="500" y="680" type="move" name="TashkilAbove"/>
    </contour>
    <contour>
      <point x="950" y="-500" type="move" name="TashkilBelow"/>
    </contour>
    <contour>
      <point x="396" y="587" type="move" name="AlefAbove"/>
    </contour>
    <component base="aYaa.isol" xOffset="181"/>
    <component base="aYaa.tail" xOffset="324" yOffset="349"/>
  </outline>
</glyph>
<glyph name="uni06CE" format="1">
  <advance width="1354"/>
  <unicode hex="06CE"/>
  <outline>
    <contour>
      <point x="310" y="1200" type="move" name="TashkilAbove"/>
    </contour>
    <contour>
      <point x="750" y="-500" type="move" name="TashkilBelow"/>
    </contour>
    <contour>
      <point x="300" y="1038" type="move" name="AlefAbove"/>
    </contour>
    <component base="aYaa.isol"/>
    <component base="uni065A" xOffset="291" yOffset="-254"/>
  </outline>
</glyph>
<glyph name="uni06D0" format="1">
  <advance width="1354"/>
  <unicode hex="06D0"/>
  <outline>
    <contour>
      <point x="350" y="680" type="move" name="TashkilAbove"/>
    </contour>
    <contour>
      <point x="700" y="-1100" type="move" name="TashkilBelow"/>
    </contour>
    <contour>
      <point x="246" y="614" type="move" name="AlefAbove"/>
    </contour>
    <component base="aYaa.isol"/>
    <component base="vTwoDots.b" xOffset="641" yOffset="-729"/>
  </outline>
</glyph>
<glyph name="uni06D1" format="1">
  <advance width="1354"/>
  <unicode hex="06D1"/>
  <outline>
    <contour>
      <point x="350" y="680" type="move" name="TashkilAbove"/>
    </contour>
    <contour>
      <point x="700" y="-1100" type="move" name="TashkilBelow"/>
    </contour>
    <contour>
      <point x="259" y="601" type="move" name="AlefAbove"/>
    </contour>
    <component base="aYaa.isol"/>
    <component base="iThreeDots.b" xOffset="681" yOffset="-896"/>
  </outline>
</glyph>
<glyph name="uni06D2" format="1">
  <advance width="1734"/>
  <unicode hex="06D2"/>
  <outline>
    <contour>
      <point x="300" y="1000" type="move" name="HamzaAbove"/>
    </contour>
    <contour>
      <point x="300" y="1000" type="move" name="TashkilAbove"/>
    </contour>
    <contour>
      <point x="450" y="-210" type="move" name="TashkilBelow"/>
    </contour>
    <component base="aYaaBari.isol"/>
  </outline>
</glyph>
<glyph name="uni06D4" format="1">
  <advance width="796"/>
  <unicode hex="06D4"/>
  <outline>
    <contour>
      <point x="110" y="0" type="line"/>
      <point x="110" y="436.188" type="line"/>
      <point x="686.557" y="436.188" type="line"/>
      <point x="686.557" y="0" type="line"/>
    </contour>
  </outline>
</glyph>
<glyph name="uni06D5" format="1">
  <advance width="854"/>
  <unicode hex="06D5"/>
  <outline>
    <contour>
      <point x="400" y="1000" type="move" name="HamzaAbove"/>
    </contour>
    <contour>
      <point x="450" y="1000" type="move" name="TashkilAbove"/>
    </contour>
    <contour>
      <point x="450" y="-210" type="move" name="TashkilBelow"/>
    </contour>
    <component base="aHeh.isol"/>
  </outline>
</glyph>
<glyph name="uni06D6" format="1">
  <advance width="1041"/>
  <unicode hex="06D6"/>
  <outline>
    <contour>
      <point x="605.155" y="1750" type="move" name="_MarkAbove"/>
    </contour>
    <contour>
      <point x="924.796" y="2152.91" type="curve" smooth="yes"/>
      <point x="999.787" y="2152.91"/>
      <point x="998.257" y="2083.12"/>
      <point x="984.789" y="2028.64" type="curve" smooth="yes"/>
      <point x="967.036" y="1957.63"/>
      <point x="954.486" y="1916"/>
      <point x="869.395" y="1916" type="curve" smooth="yes"/>
      <point x="778.181" y="1916" type="line" smooth="yes"/>
      <point x="742.98" y="1916"/>
      <point x="713.902" y="1939.87"/>
      <point x="704.719" y="1972.01" type="curve"/>
      <point x="695.536" y="1939.87"/>
      <point x="666.459" y="1916"/>
      <point x="631.259" y="1916" type="curve" smooth="yes"/>
      <point x="589.324" y="1916" type="line" smooth="yes"/>
      <point x="554.124" y="1916"/>
      <point x="525.046" y="1939.57"/>
      <point x="515.864" y="1971.71" type="curve"/>
      <point x="509.742" y="1944.47"/>
      <point x="491.071" y="1916"/>
      <point x="451.279" y="1916" type="curve" smooth="yes"/>
      <point x="351.802" y="1916" type="line" smooth="yes"/>
      <point x="273.442" y="1916"/>
      <point x="316.296" y="1956.4"/>
      <point x="238.549" y="1956.4" type="curve" smooth="yes"/>
      <point x="156.211" y="1956.4" type="line" smooth="yes"/>
      <point x="125.297" y="1956.4"/>
      <point x="100.198" y="1938.96"/>
      <point x="100.198" y="1906.21" type="curve" smooth="yes"/>
      <point x="100.198" y="1875.29"/>
      <point x="118.562" y="1855.7"/>
      <point x="156.823" y="1855.7" type="curve" smooth="yes"/>
      <point x="799.301" y="1855.7" type="line"/>
      <point x="731.655" y="1729.9" type="line"/>
      <point x="235.795" y="1729.9" type="line" smooth="yes"/>
      <point x="121.93" y="1729.9"/>
      <point x="50" y="1803.05"/>
      <point x="50" y="1893.35" type="curve" smooth="yes"/>
      <point x="50" y="1983.34"/>
      <point x="123.154" y="2041.19"/>
      <point x="213.45" y="2041.19" type="curve" smooth="yes"/>
      <point x="443.627" y="2041.5" type="line" smooth="yes"/>
      <point x="463.829" y="2043.03"/>
      <point x="467.808" y="2052.82"/>
      <point x="461.381" y="2068.12" type="curve" smooth="yes"/>
      <point x="455.564" y="2081.59"/>
      <point x="429.547" y="2141.28"/>
      <point x="414.855" y="2174.95" type="curve" smooth="yes"/>
      <point x="409.039" y="2188.72"/>
      <point x="413.019" y="2204.64"/>
      <point x="424.649" y="2214.13" type="curve" smooth="yes"/>
      <point x="515.252" y="2286.98" type="line"/>
      <point x="547.391" y="2162.4" type="line"/>
      <point x="518.618" y="2142.5" type="line"/>
      <point x="518.924" y="2051.9" type="line" smooth="yes"/>
      <point x="518.924" y="2046.09"/>
      <point x="522.904" y="2042.11"/>
      <point x="527.802" y="2041.5" type="curve" smooth="yes"/>
      <point x="665.234" y="2041.5" type="line" smooth="yes"/>
      <point x="678.702" y="2041.5"/>
      <point x="683.294" y="2047.31"/>
      <point x="683.294" y="2053.74" type="curve" smooth="yes"/>
      <point x="683.294" y="2087.1" type="line"/>
      <point x="725.533" y="2087.1" type="line"/>
      <point x="725.533" y="2053.74" type="line" smooth="yes"/>
      <point x="725.533" y="2047.92"/>
      <point x="730.736" y="2041.8"/>
      <point x="739.002" y="2041.8" type="curve" smooth="yes"/>
      <point x="768.998" y="2041.8"/>
      <point x="844.906" y="2152.91"/>
    </contour>
    <contour>
      <point x="799.605" y="2041.5" type="curve"/>
      <point x="929.693" y="2041.5" type="line"/>
      <point x="929.693" y="2041.5"/>
      <point x="947" y="2104"/>
      <point x="861" y="2076" type="curve" smooth="yes"/>
      <point x="832.688" y="2066.78"/>
      <point x="799.605" y="2041.5"/>
    </contour>
  </outline>
</glyph>
<glyph name="uni06D7" format="1">
  <advance width="847"/>
  <unicode hex="06D7"/>
  <outline>
    <contour>
      <point x="399" y="1750" type="move" name="_MarkAbove"/>
    </contour>
    <contour>
      <point x="699.517" y="2256.47" type="curve" smooth="yes"/>
      <point x="755.225" y="2256.47"/>
      <point x="797.464" y="2209.33"/>
      <point x="797.464" y="2143.52" type="curve" smooth="yes"/>
      <point x="797.464" y="1993.24" type="line" smooth="yes"/>
      <point x="797.464" y="1961.71"/>
      <point x="780.935" y="1916.1"/>
      <point x="730.432" y="1916.1" type="curve" smooth="yes"/>
      <point x="588.713" y="1916.1" type="line" smooth="yes"/>
      <point x="553.513" y="1916.1"/>
      <point x="524.436" y="1939.67"/>
      <point x="515.252" y="1971.81" type="curve"/>
      <point x="509.131" y="1944.57"/>
      <point x="490.459" y="1916.1"/>
      <point x="450.667" y="1916.1" type="curve" smooth="yes"/>
      <point x="351.189" y="1916.1" type="line" smooth="yes"/>
      <point x="272.832" y="1916.1"/>
      <point x="315.684" y="1956.5"/>
      <point x="237.937" y="1956.5" type="curve" smooth="yes"/>
      <point x="155.906" y="1956.5" type="line" smooth="yes"/>
      <point x="124.991" y="1956.5"/>
      <point x="99.8916" y="1939.06"/>
      <point x="99.8916" y="1906.31" type="curve" smooth="yes"/>
      <point x="99.8916" y="1875.39"/>
      <point x="118.257" y="1855.8"/>
      <point x="156.519" y="1855.8" type="curve" smooth="yes"/>
      <point x="618.71" y="1855.8" type="line"/>
      <point x="551.063" y="1730" type="line"/>
      <point x="235.795" y="1730" type="line" smooth="yes"/>
      <point x="121.931" y="1730"/>
      <point x="50" y="1803.16"/>
      <point x="50" y="1893.45" type="curve" smooth="yes"/>
      <point x="50" y="1983.44"/>
      <point x="123.154" y="2041.29"/>
      <point x="213.45" y="2041.29" type="curve" smooth="yes"/>
      <point x="443.628" y="2041.6" type="line" smooth="yes"/>
      <point x="463.83" y="2043.13"/>
      <point x="467.809" y="2052.92"/>
      <point x="461.381" y="2068.23" type="curve" smooth="yes"/>
      <point x="455.564" y="2081.69"/>
      <point x="429.547" y="2141.38"/>
      <point x="414.855" y="2175.05" type="curve" smooth="yes"/>
      <point x="408.734" y="2188.82"/>
      <point x="412.713" y="2204.74"/>
      <point x="424.344" y="2214.23" type="curve" smooth="yes"/>
      <point x="514.945" y="2287.08" type="line"/>
      <point x="547.085" y="2162.5" type="line"/>
      <point x="518.313" y="2142.61" type="line"/>
      <point x="518.619" y="2052" type="line" smooth="yes"/>
      <point x="518.619" y="2046.19"/>
      <point x="522.599" y="2042.21"/>
      <point x="527.495" y="2041.6" type="curve" smooth="yes"/>
      <point x="737.471" y="2041.29" type="line" smooth="yes"/>
      <point x="742.98" y="2041.29"/>
      <point x="747.266" y="2045.88"/>
      <point x="747.266" y="2051.08" type="curve" smooth="yes"/>
      <point x="747.266" y="2056.59"/>
      <point x="742.675" y="2060.88"/>
      <point x="737.471" y="2060.88" type="curve" smooth="yes"/>
      <point x="666.459" y="2060.88" type="line" smooth="yes"/>
      <point x="639.218" y="2060.88"/>
      <point x="617.179" y="2082.92"/>
      <point x="617.179" y="2110.16" type="curve" smooth="yes"/>
      <point x="617.179" y="2174.13" type="line" smooth="yes"/>
      <point x="617.179" y="2219.43"/>
      <point x="638.605" y="2256.47"/>
    </contour>
    <contour>
      <point x="680.845" y="2153.32" type="curve"/>
      <point x="680.845" y="2153.62" type="line"/>
      <point x="740.532" y="2153.62" type="line"/>
      <point x="740.532" y="2153.62"/>
      <point x="702.271" y="2201.68"/>
      <point x="676.865" y="2201.68" type="curve" smooth="yes"/>
      <point x="661.255" y="2201.68"/>
      <point x="653.909" y="2191.58"/>
      <point x="653.909" y="2176.27" type="curve" smooth="yes"/>
      <point x="653.909" y="2158.83"/>
      <point x="670.744" y="2153.32"/>
    </contour>
    <contour>
      <point x="699.517" y="2318.61" type="line"/>
      <point x="662.174" y="2281.26" type="line"/>
      <point x="618.403" y="2324.73" type="line"/>
      <point x="662.174" y="2368.5" type="line"/>
      <point x="699.517" y="2330.85" type="line"/>
      <point x="736.858" y="2368.5" type="line"/>
      <point x="780.629" y="2324.73" type="line"/>
      <point x="736.858" y="2281.26" type="line"/>
    </contour>
  </outline>
</glyph>
<glyph name="uni06D8" format="1">
  <advance width="443"/>
  <unicode hex="06D8"/>
  <outline>
    <contour>
      <point x="215" y="2600" type="move" name="_MarkAbove"/>
    </contour>
    <contour>
      <point x="393.306" y="2827.02" type="curve"/>
      <point x="362.82" y="2725.71" type="line"/>
      <point x="362.82" y="2725.71"/>
      <point x="313.233" y="2763.36"/>
      <point x="246.508" y="2771.93" type="curve"/>
      <point x="206.104" y="2634.8"/>
      <point x="100.198" y="2598.07"/>
      <point x="100.198" y="2598.07" type="curve"/>
      <point x="50" y="2716.53" type="line"/>
      <point x="50" y="2716.53"/>
      <point x="145.192" y="2724.49"/>
      <point x="203.655" y="2809.89" type="curve" smooth="yes"/>
      <point x="218.041" y="2831.01"/>
      <point x="226" y="2863.45"/>
      <point x="241.916" y="2900.79" type="curve" smooth="yes"/>
      <point x="267.933" y="2961.09"/>
      <point x="297.012" y="2969.66"/>
      <point x="321.805" y="2969.66" type="curve" smooth="yes"/>
      <point x="390.98" y="2969.66"/>
      <point x="393.306" y="2827.02"/>
    </contour>
    <contour>
      <point x="300.072" y="2842.33" type="curve" smooth="yes"/>
      <point x="337.375" y="2827.02" type="line"/>
      <point x="337.375" y="2827.02"/>
      <point x="321.805" y="2890.69"/>
      <point x="296.399" y="2890.69" type="curve" smooth="yes"/>
      <point x="280.483" y="2890.69"/>
      <point x="273.137" y="2880.59"/>
      <point x="273.137" y="2865.29" type="curve" smooth="yes"/>
      <point x="273.137" y="2847.84"/>
      <point x="289.972" y="2842.33"/>
    </contour>
  </outline>
</glyph>
<glyph name="uni06D9" format="1">
  <advance width="363"/>
  <unicode hex="06D9"/>
  <outline>
    <contour>
      <point x="164" y="2600" type="move" name="_MarkAbove"/>
    </contour>
    <contour>
      <point x="313.234" y="2888.97" type="line"/>
      <point x="301.27" y="2880.88" type="line"/>
      <point x="280.399" y="2880.88" type="line"/>
      <point x="271.217" y="2857.79"/>
      <point x="233.04" y="2816.12"/>
      <point x="233.04" y="2816.12" type="curve"/>
      <point x="310.173" y="2700.42"/>
      <point x="283.85" y="2557.78"/>
      <point x="156.824" y="2619" type="curve" smooth="yes"/>
      <point x="53.0605" y="2668.89"/>
      <point x="46.9395" y="2719.09"/>
      <point x="71.4258" y="2738.68" type="curve" smooth="yes"/>
      <point x="122.543" y="2779.39"/>
      <point x="159.885" y="2808.16"/>
      <point x="159.885" y="2808.16" type="curve"/>
      <point x="124.685" y="2837.24"/>
      <point x="107.545" y="2844.89"/>
      <point x="96.8311" y="2842.14" type="curve" smooth="yes"/>
      <point x="82.75" y="2838.46"/>
      <point x="75.7109" y="2820.71"/>
      <point x="75.7109" y="2820.71" type="curve"/>
      <point x="50" y="2833.87" type="line"/>
      <point x="50" y="2833.87"/>
      <point x="69.5889" y="2884.68"/>
      <point x="87.6475" y="2931.82" type="curve" smooth="yes"/>
      <point x="93.7695" y="2947.74"/>
      <point x="114.277" y="2952.02"/>
      <point x="126.216" y="2939.78" type="curve" smooth="yes"/>
      <point x="166.312" y="2899.38"/>
      <point x="200.9" y="2854.07"/>
      <point x="200.9" y="2854.07" type="curve"/>
      <point x="200.9" y="2854.07"/>
      <point x="222.939" y="2895.09"/>
      <point x="203.961" y="2944.37" type="curve"/>
      <point x="293.339" y="2974.98" type="line"/>
    </contour>
    <contour>
      <point x="226.306" y="2720.31" type="curve" smooth="yes"/>
      <point x="229.979" y="2726.44"/>
      <point x="227.225" y="2731.03"/>
      <point x="223.856" y="2737.15" type="curve" smooth="yes"/>
      <point x="218.959" y="2745.41"/>
      <point x="207.635" y="2760.11"/>
      <point x="191.412" y="2779.08" type="curve"/>
      <point x="168.148" y="2758.88"/>
      <point x="137.541" y="2741.13"/>
      <point x="137.541" y="2741.13" type="curve" smooth="yes"/>
      <point x="137.234" y="2740.82"/>
      <point x="163.863" y="2716.64"/>
      <point x="199.676" y="2714.19" type="curve" smooth="yes"/>
      <point x="214.98" y="2713.27"/>
      <point x="222.939" y="2716.03"/>
    </contour>
  </outline>
</glyph>
<glyph name="uni06DA" format="1">
  <advance width="433"/>
  <unicode hex="06DA"/>
  <outline>
    <contour>
      <point x="215" y="2600" type="move" name="_MarkAbove"/>
    </contour>
    <contour>
      <point x="271.301" y="2745.39" type="line"/>
      <point x="227.53" y="2788.86" type="line"/>
      <point x="271.301" y="2832.63" type="line"/>
      <point x="314.765" y="2788.86" type="line"/>
    </contour>
    <contour>
      <point x="383.94" y="2984.14" type="line"/>
      <point x="359.759" y="2908.54" type="line"/>
      <point x="299.767" y="2908.54"/>
      <point x="176.72" y="2882.82"/>
      <point x="176.72" y="2761" type="curve" smooth="yes"/>
      <point x="176.72" y="2736.82"/>
      <point x="190.8" y="2672.85"/>
      <point x="261.812" y="2672.85" type="curve" smooth="yes"/>
      <point x="280.482" y="2672.85"/>
      <point x="300.991" y="2676.83"/>
      <point x="321.499" y="2686.32" type="curve"/>
      <point x="321.499" y="2634.89" type="line"/>
      <point x="286.911" y="2609.79"/>
      <point x="243.447" y="2600"/>
      <point x="205.798" y="2600" type="curve" smooth="yes"/>
      <point x="90.4033" y="2600"/>
      <point x="50" y="2675.3"/>
      <point x="50" y="2744.78" type="curve" smooth="yes"/>
      <point x="50" y="2895.99"/>
      <point x="242.528" y="2927.51"/>
      <point x="242.528" y="2927.51" type="curve"/>
      <point x="242.528" y="2927.51"/>
      <point x="190.493" y="2953.84"/>
      <point x="163.252" y="2953.84" type="curve" smooth="yes"/>
      <point x="113.665" y="2953.84"/>
      <point x="135.092" y="2920.17"/>
      <point x="135.092" y="2920.17" type="curve"/>
      <point x="113.054" y="2904.56" type="line"/>
      <point x="101.729" y="2923.84" type="line" smooth="yes"/>
      <point x="93.1582" y="2939.14"/>
      <point x="92.5459" y="2957.51"/>
      <point x="100.811" y="2972.81" type="curve" smooth="yes"/>
      <point x="105.707" y="2982"/>
      <point x="131.419" y="3036.17"/>
      <point x="171.822" y="3036.17" type="curve" smooth="yes"/>
      <point x="180.086" y="3036.17"/>
      <point x="188.963" y="3034.64"/>
      <point x="199.063" y="3030.36" type="curve" smooth="yes"/>
      <point x="250.793" y="3008.32"/>
      <point x="279.564" y="2984.14"/>
      <point x="357.005" y="2984.14" type="curve" smooth="yes"/>
    </contour>
  </outline>
</glyph>
<glyph name="uni06DB" format="1">
  <advance width="260"/>
  <unicode hex="06DB"/>
  <outline>
    <contour>
      <point x="133" y="2600" type="move" name="_MarkAbove"/>
    </contour>
    <contour>
      <point x="167.538" y="2600" type="line"/>
      <point x="130.501" y="2637.34" type="line"/>
      <point x="93.1582" y="2600" type="line"/>
      <point x="50" y="2643.46" type="line"/>
      <point x="93.1582" y="2686.62" type="line"/>
      <point x="130.501" y="2649.59" type="line"/>
      <point x="167.538" y="2686.62" type="line"/>
      <point x="210.696" y="2643.46" type="line"/>
    </contour>
    <contour>
      <point x="173.659" y="2711.11" type="line"/>
      <point x="130.501" y="2667.95" type="line"/>
      <point x="87.0371" y="2711.11" type="line"/>
      <point x="130.501" y="2754.27" type="line"/>
    </contour>
  </outline>
</glyph>
<glyph name="uni06DC" format="1">
  <advance width="605"/>
  <unicode hex="06DC"/>
  <outline>
    <contour>
      <point x="342.566" y="2567.42" type="move" name="_SeenAbove"/>
    </contour>
    <contour>
      <point x="287" y="2600" type="move" name="_MarkAbove"/>
    </contour>
    <contour>
      <point x="555.562" y="2890.48" type="curve" smooth="yes"/>
      <point x="555.562" y="2867.21"/>
      <point x="555.869" y="2810.28"/>
      <point x="555.257" y="2809.97" type="curve" smooth="yes"/>
      <point x="555.257" y="2778.45"/>
      <point x="538.729" y="2732.84"/>
      <point x="488.225" y="2732.84" type="curve" smooth="yes"/>
      <point x="430.067" y="2732.84"/>
      <point x="427.619" y="2779.67"/>
      <point x="427.619" y="2779.67" type="curve"/>
      <point x="427.619" y="2779.67"/>
      <point x="423.641" y="2723.66"/>
      <point x="378.646" y="2723.66" type="curve" smooth="yes"/>
      <point x="352.628" y="2723.66"/>
      <point x="342.833" y="2738.04"/>
      <point x="342.833" y="2738.04" type="curve"/>
      <point x="342.833" y="2738.04"/>
      <point x="342.833" y="2600"/>
      <point x="203.257" y="2600" type="curve" smooth="yes"/>
      <point x="46.8477" y="2600"/>
      <point x="20.5234" y="2745.7"/>
      <point x="77.7617" y="2842.42" type="curve"/>
      <point x="125.205" y="2842.42" type="line"/>
      <point x="80.8223" y="2754.57"/>
      <point x="142.04" y="2727.33"/>
      <point x="197.748" y="2727.33" type="curve" smooth="yes"/>
      <point x="279.166" y="2727.33"/>
      <point x="306.566" y="2767.42"/>
      <point x="285.637" y="2793.39" type="curve" smooth="yes"/>
      <point x="247.946" y="2841.5" type="line"/>
      <point x="328.754" y="2905.78" type="line"/>
      <point x="328.754" y="2905.78"/>
      <point x="336.405" y="2849.15"/>
      <point x="382.012" y="2849.15" type="curve" smooth="yes"/>
      <point x="413.846" y="2849.15"/>
      <point x="406.805" y="2895.07"/>
      <point x="406.805" y="2895.07" type="curve"/>
      <point x="449.046" y="2895.07" type="line"/>
      <point x="449.046" y="2895.07"/>
      <point x="444.148" y="2849.46"/>
      <point x="472.308" y="2849.46" type="curve" smooth="yes"/>
      <point x="524.954" y="2849.46"/>
      <point x="487.612" y="2905.47"/>
      <point x="472.92" y="2916.19" type="curve"/>
      <point x="530.158" y="2961.18" type="line"/>
      <point x="530.158" y="2961.18"/>
      <point x="555.562" y="2927.51"/>
    </contour>
  </outline>
</glyph>
<glyph name="uni06DD" format="1">
  <advance width="1821"/>
  <unicode hex="06DD"/>
  <outline>
    <contour>
      <point x="1274.57" y="2412.2" type="curve"/>
      <point x="2154.22" y="2247.54"/>
      <point x="2820.38" y="1501.87"/>
      <point x="2821.01" y="608.443" type="curve" smooth="yes"/>
      <point x="2821.01" y="-283.103"/>
      <point x="2157.36" y="-1027.52"/>
      <point x="1280.83" y="-1194.06" type="curve"/>
      <point x="1240.77" y="-1310.51"/>
      <point x="1149.36" y="-1402.55"/>
      <point x="1033.53" y="-1440.74" type="curve"/>
      <point x="1035.41" y="-1469.54"/>
      <point x="1031.65" y="-1504.6"/>
      <point x="1011.62" y="-1532.15" type="curve" smooth="yes"/>
      <point x="990.331" y="-1560.95"/>
      <point x="957.148" y="-1575.35"/>
      <point x="912.069" y="-1575.35" type="curve" smooth="yes"/>
      <point x="866.993" y="-1575.35"/>
      <point x="833.183" y="-1560.95"/>
      <point x="812.521" y="-1532.15" type="curve" smooth="yes"/>
      <point x="792.488" y="-1504.6"/>
      <point x="788.729" y="-1469.54"/>
      <point x="790.608" y="-1440.74" type="curve"/>
      <point x="674.782" y="-1402.55"/>
      <point x="584" y="-1310.51"/>
      <point x="543.931" y="-1194.69" type="curve"/>
      <point x="-334.47" y="-1030.03"/>
      <point x="-1000" y="-284.355"/>
      <point x="-1000" y="608.443" type="curve" smooth="yes"/>
      <point x="-1000" y="1503.12"/>
      <point x="-331.966" y="2249.42"/>
      <point x="548.313" y="2412.83" type="curve"/>
      <point x="590.886" y="2522.39"/>
      <point x="679.165" y="2609.42"/>
      <point x="790.608" y="2645.73" type="curve"/>
      <point x="788.104" y="2675.78"/>
      <point x="789.356" y="2715.23"/>
      <point x="811.896" y="2745.9" type="curve" smooth="yes"/>
      <point x="833.183" y="2774.7"/>
      <point x="866.366" y="2789.11"/>
      <point x="911.442" y="2789.11" type="curve" smooth="yes"/>
      <point x="956.521" y="2789.11"/>
      <point x="990.331" y="2774.7"/>
      <point x="1010.99" y="2745.9" type="curve" smooth="yes"/>
      <point x="1033.53" y="2715.85"/>
      <point x="1035.41" y="2675.78"/>
      <point x="1032.28" y="2645.73" type="curve"/>
      <point x="1144.35" y="2609.42"/>
      <point x="1232" y="2522.39"/>
    </contour>
    <contour>
      <point x="-713.253" y="301.661" type="curve" smooth="yes"/>
      <point x="-709.495" y="294.146"/>
      <point x="-671.931" y="226.531"/>
      <point x="-612.452" y="216.513" type="curve" smooth="yes"/>
      <point x="-580.521" y="212.13"/>
      <point x="-549.218" y="224.651"/>
      <point x="-520.419" y="253.452" type="curve" smooth="yes"/>
      <point x="-491.617" y="282.878"/>
      <point x="-479.096" y="313.558"/>
      <point x="-484.104" y="345.486" type="curve" smooth="yes"/>
      <point x="-492.868" y="404.967"/>
      <point x="-561.114" y="441.904"/>
      <point x="-568.627" y="446.288" type="curve" smooth="yes"/>
      <point x="-668.173" y="498.254"/>
      <point x="-747.062" y="555.226"/>
      <point x="-804.66" y="602.809" type="curve"/>
      <point x="-747.062" y="650.393"/>
      <point x="-668.173" y="707.364"/>
      <point x="-568.627" y="759.33" type="curve" smooth="yes"/>
      <point x="-561.114" y="763.087"/>
      <point x="-492.868" y="800.651"/>
      <point x="-484.104" y="860.13" type="curve" smooth="yes"/>
      <point x="-479.723" y="892.061"/>
      <point x="-492.243" y="923.364"/>
      <point x="-521.044" y="952.165" type="curve" smooth="yes"/>
      <point x="-550.47" y="980.967"/>
      <point x="-581.148" y="993.486"/>
      <point x="-613.079" y="988.479" type="curve" smooth="yes"/>
      <point x="-672.558" y="979.714"/>
      <point x="-709.495" y="911.469"/>
      <point x="-713.878" y="903.957" type="curve" smooth="yes"/>
      <point x="-765.218" y="804.409"/>
      <point x="-934.886" y="602.809"/>
      <point x="-934.886" y="602.809" type="curve"/>
      <point x="-934.886" y="602.809"/>
      <point x="-765.218" y="401.209"/>
    </contour>
    <contour>
      <point x="1032.9" y="-684.425" type="curve"/>
      <point x="1590.75" y="-639.974"/>
      <point x="2164.87" y="-297.504"/>
      <point x="2399.03" y="168.305" type="curve"/>
      <point x="2260.66" y="214.635"/>
      <point x="2151.1" y="326.077"/>
      <point x="2107.27" y="467.575" type="curve"/>
      <point x="2073.46" y="465.07"/>
      <point x="2031.51" y="468.199"/>
      <point x="1998.96" y="492.617" type="curve" smooth="yes"/>
      <point x="1966.4" y="517.661"/>
      <point x="1949.5" y="556.479"/>
      <point x="1949.5" y="609.696" type="curve" smooth="yes"/>
      <point x="1949.5" y="662.288"/>
      <point x="1965.78" y="701.73"/>
      <point x="1998.96" y="726.146" type="curve" smooth="yes"/>
      <point x="2032.77" y="751.818"/>
      <point x="2076.59" y="754.323"/>
      <point x="2111.03" y="751.191" type="curve"/>
      <point x="2192.42" y="989.105"/>
      <point x="2405.29" y="1042.95"/>
      <point x="2405.29" y="1042.95" type="curve"/>
      <point x="2173.63" y="1505"/>
      <point x="1599.51" y="1852.48"/>
      <point x="1044.8" y="1901.31" type="curve"/>
      <point x="1044.8" y="1901.31"/>
      <point x="1039.79" y="1761.07"/>
      <point x="912.069" y="1761.07" type="curve" smooth="yes"/>
      <point x="783.096" y="1761.07"/>
      <point x="778.713" y="1901.31"/>
      <point x="778.713" y="1901.31" type="curve"/>
      <point x="222.747" y="1853.73"/>
      <point x="-356.383" y="1510.01"/>
      <point x="-579.896" y="1040.44" type="curve"/>
      <point x="-579.896" y="1040.44"/>
      <point x="-374.54" y="989.73"/>
      <point x="-289.392" y="750.565" type="curve"/>
      <point x="-254.956" y="753.696"/>
      <point x="-211.132" y="750.565"/>
      <point x="-177.321" y="725.521" type="curve" smooth="yes"/>
      <point x="-144.766" y="701.105"/>
      <point x="-127.861" y="661.661"/>
      <point x="-127.861" y="609.07" type="curve" smooth="yes"/>
      <point x="-127.861" y="555.853"/>
      <point x="-144.139" y="516.409"/>
      <point x="-177.321" y="491.991" type="curve" smooth="yes"/>
      <point x="-210.505" y="467.575"/>
      <point x="-252.452" y="464.443"/>
      <point x="-286.261" y="466.948" type="curve"/>
      <point x="-330.086" y="325.452"/>
      <point x="-439.65" y="214.008"/>
      <point x="-578.644" y="167.68" type="curve"/>
      <point x="-344.488" y="-298.756"/>
      <point x="232.139" y="-641.227"/>
      <point x="791.234" y="-684.425" type="curve"/>
      <point x="788.729" y="-654.999"/>
      <point x="791.234" y="-618.687"/>
      <point x="812.521" y="-589.888" type="curve" smooth="yes"/>
      <point x="833.809" y="-561.086"/>
      <point x="866.993" y="-546.687"/>
      <point x="912.069" y="-546.687" type="curve" smooth="yes"/>
      <point x="957.148" y="-546.687"/>
      <point x="990.956" y="-561.086"/>
      <point x="1011.62" y="-589.888" type="curve" smooth="yes"/>
      <point x="1032.28" y="-618.687"/>
      <point x="1035.41" y="-654.999"/>
    </contour>
    <contour>
      <point x="2432.83" y="217.14" type="curve" smooth="yes"/>
      <point x="2492.31" y="226.531"/>
      <point x="2529.88" y="294.146"/>
      <point x="2534.26" y="301.661" type="curve" smooth="yes"/>
      <point x="2586.22" y="401.209"/>
      <point x="2755.9" y="602.809"/>
      <point x="2755.9" y="602.809" type="curve"/>
      <point x="2755.9" y="602.809"/>
      <point x="2586.22" y="804.409"/>
      <point x="2534.26" y="903.957" type="curve" smooth="yes"/>
      <point x="2530.5" y="911.469"/>
      <point x="2492.94" y="979.714"/>
      <point x="2433.46" y="988.479" type="curve" smooth="yes"/>
      <point x="2401.53" y="992.859"/>
      <point x="2370.22" y="980.34"/>
      <point x="2341.43" y="951.538" type="curve" smooth="yes"/>
      <point x="2312.63" y="922.739"/>
      <point x="2300.1" y="892.061"/>
      <point x="2305.11" y="860.13" type="curve" smooth="yes"/>
      <point x="2313.88" y="800.651"/>
      <point x="2382.12" y="763.714"/>
      <point x="2389.63" y="759.33" type="curve" smooth="yes"/>
      <point x="2489.18" y="707.364"/>
      <point x="2568.07" y="650.393"/>
      <point x="2625.67" y="602.809" type="curve"/>
      <point x="2568.07" y="555.226"/>
      <point x="2489.18" y="498.254"/>
      <point x="2389.63" y="446.288" type="curve" smooth="yes"/>
      <point x="2382.12" y="442.531"/>
      <point x="2313.88" y="404.967"/>
      <point x="2305.11" y="345.486" type="curve" smooth="yes"/>
      <point x="2300.1" y="313.558"/>
      <point x="2312.63" y="282.254"/>
      <point x="2341.43" y="253.452" type="curve" smooth="yes"/>
      <point x="2370.22" y="224.651"/>
      <point x="2400.9" y="212.13"/>
    </contour>
  </outline>
</glyph>
<glyph name="uni06DE" format="1">
  <advance width="1222"/>
  <unicode hex="06DE"/>
  <outline>
    <contour>
      <point x="918.922" y="439.374" type="curve" smooth="yes"/>
      <point x="869.392" y="448.835"/>
      <point x="804.278" y="460.8"/>
      <point x="720.243" y="454.679" type="curve"/>
      <point x="780.348" y="400.974"/>
      <point x="836" y="372.869"/>
      <point x="882.47" y="349.218" type="curve" smooth="yes"/>
      <point x="947.305" y="316.383"/>
      <point x="1003.51" y="287.722"/>
      <point x="1003.51" y="208.695" type="curve" smooth="yes"/>
      <point x="1003.51" y="136.348"/>
      <point x="931.165" y="65.1133"/>
      <point x="857.147" y="65.1133" type="curve" smooth="yes"/>
      <point x="767.826" y="65.1133"/>
      <point x="741.113" y="137.739"/>
      <point x="713.009" y="214.817" type="curve" smooth="yes"/>
      <point x="695.2" y="263.513"/>
      <point x="674.053" y="321.67"/>
      <point x="633.982" y="380.383" type="curve"/>
      <point x="622.296" y="326.122"/>
      <point x="621.183" y="283.826"/>
      <point x="621.183" y="247.096" type="curve" smooth="yes"/>
      <point x="621.183" y="223.165"/>
      <point x="624.243" y="151.096"/>
      <point x="624.243" y="137.461" type="curve" smooth="yes"/>
      <point x="624.243" y="56.4873"/>
      <point x="570.261" y="0"/>
      <point x="492.626" y="0" type="curve" smooth="yes"/>
      <point x="423.617" y="0"/>
      <point x="349.044" y="49.252"/>
      <point x="349.044" y="128.835" type="curve" smooth="yes"/>
      <point x="349.044" y="183.096"/>
      <point x="380.487" y="218.991"/>
      <point x="416.939" y="260.73" type="curve" smooth="yes"/>
      <point x="449.496" y="298.018"/>
      <point x="488.452" y="342.539"/>
      <point x="524.626" y="416.835" type="curve"/>
      <point x="446.156" y="390.956"/>
      <point x="393.844" y="357.287"/>
      <point x="350.156" y="328.904" type="curve" smooth="yes"/>
      <point x="306.748" y="300.8"/>
      <point x="272.243" y="278.539"/>
      <point x="231.617" y="278.539" type="curve" smooth="yes"/>
      <point x="150.365" y="278.539"/>
      <point x="100" y="356.174"/>
      <point x="100" y="427.965" type="curve" smooth="yes"/>
      <point x="100" y="491.409"/>
      <point x="148.14" y="556.8"/>
      <point x="228.835" y="556.8" type="curve" smooth="yes"/>
      <point x="250.539" y="556.8"/>
      <point x="274.47" y="552.348"/>
      <point x="302.018" y="547.061" type="curve" smooth="yes"/>
      <point x="350.991" y="537.6"/>
      <point x="416.104" y="525.913"/>
      <point x="500.974" y="531.757" type="curve"/>
      <point x="441.426" y="584.069"/>
      <point x="386.608" y="612.73"/>
      <point x="340.417" y="636.661" type="curve" smooth="yes"/>
      <point x="275.026" y="670.887"/>
      <point x="218.539" y="700.383"/>
      <point x="218.539" y="778.018" type="curve" smooth="yes"/>
      <point x="218.539" y="850.644"/>
      <point x="290.887" y="921.6"/>
      <point x="364.904" y="921.6" type="curve" smooth="yes"/>
      <point x="450.887" y="921.6"/>
      <point x="477.044" y="853.147"/>
      <point x="507.374" y="773.565" type="curve" smooth="yes"/>
      <point x="525.739" y="725.147"/>
      <point x="547.722" y="667.548"/>
      <point x="587.235" y="606.887" type="curve"/>
      <point x="598.644" y="664.766"/>
      <point x="600.592" y="707.339"/>
      <point x="600.592" y="739.617" type="curve" smooth="yes"/>
      <point x="600.592" y="763.548"/>
      <point x="597.53" y="835.617"/>
      <point x="597.53" y="849.252" type="curve" smooth="yes"/>
      <point x="597.53" y="930.504"/>
      <point x="651.513" y="986.991"/>
      <point x="729.147" y="986.991" type="curve" smooth="yes"/>
      <point x="810.957" y="986.991"/>
      <point x="872.73" y="931.617"/>
      <point x="872.73" y="858.156" type="curve" smooth="yes"/>
      <point x="872.73" y="803.896"/>
      <point x="842.122" y="769.392"/>
      <point x="806.782" y="729.044" type="curve" smooth="yes"/>
      <point x="774.227" y="692.035"/>
      <point x="734.991" y="647.513"/>
      <point x="697.704" y="570.713" type="curve"/>
      <point x="777.565" y="597.426"/>
      <point x="831.27" y="631.931"/>
      <point x="872.452" y="658.365" type="curve" smooth="yes"/>
      <point x="915.583" y="685.913"/>
      <point x="949.53" y="707.896"/>
      <point x="990.435" y="707.896" type="curve" smooth="yes"/>
      <point x="1071.69" y="707.896"/>
      <point x="1122.05" y="630.261"/>
      <point x="1122.05" y="558.47" type="curve" smooth="yes"/>
      <point x="1122.05" y="495.026"/>
      <point x="1073.91" y="429.635"/>
      <point x="993.218" y="429.635" type="curve" smooth="yes"/>
      <point x="971.513" y="429.635"/>
      <point x="947.026" y="434.087"/>
    </contour>
  </outline>
</glyph>
<glyph name="uni06DF" format="1">
  <advance width="370"/>
  <unicode hex="06DF"/>
  <outline>
    <contour>
      <point x="215" y="1750" type="move" name="_MarkAbove"/>
    </contour>
    <contour>
      <point x="230" y="1650" type="move" name="_TashkilAbove"/>
    </contour>
    <contour>
      <point x="153.497" y="1726.63" type="line" smooth="yes"/>
      <point x="114.931" y="1726.63"/>
      <point x="81.2617" y="1740.1"/>
      <point x="63.8145" y="1760.6" type="curve" smooth="yes"/>
      <point x="49.1221" y="1777.13"/>
      <point x="33.8174" y="1812.03"/>
      <point x="88.3008" y="1955.58" type="curve" smooth="yes"/>
      <point x="100.851" y="1989.25"/>
      <point x="119.521" y="2012.51"/>
      <point x="136.663" y="2020.78" type="curve" smooth="yes"/>
      <point x="213.797" y="2058.73"/>
      <point x="320.927" y="1960.48"/>
      <point x="320.927" y="1846.62" type="curve" smooth="yes"/>
      <point x="320.927" y="1814.78" type="line" smooth="yes"/>
      <point x="320.927" y="1777.44"/>
      <point x="297.358" y="1726.63"/>
      <point x="216.552" y="1726.63" type="curve" smooth="yes"/>
    </contour>
    <contour>
      <point x="162.067" y="1931.1" type="curve" smooth="yes"/>
      <point x="127.786" y="1931.1"/>
      <point x="117.991" y="1871.1"/>
      <point x="118.297" y="1862.53" type="curve" smooth="yes"/>
      <point x="118.909" y="1853.35"/>
      <point x="123.807" y="1843.55"/>
      <point x="142.172" y="1843.55" type="curve" smooth="yes"/>
      <point x="245.936" y="1843.86" type="line"/>
      <point x="255.73" y="1889.16"/>
      <point x="202.777" y="1931.1"/>
    </contour>
  </outline>
</glyph>
<glyph name="uni06E0" format="1">
  <advance width="363"/>
  <unicode hex="06E0"/>
  <outline>
    <contour>
      <point x="194.089" y="1750" type="move" name="_MarkAbove"/>
    </contour>
    <contour>
      <point x="230" y="1700" type="move" name="_TashkilAbove"/>
    </contour>
    <contour>
      <point x="279.259" y="2045.58" type="curve" smooth="yes"/>
      <point x="300.686" y="2014.06"/>
      <point x="313.847" y="1972.73"/>
      <point x="313.847" y="1927.13" type="curve" smooth="yes"/>
      <point x="313.847" y="1877.54"/>
      <point x="300.686" y="1832.55"/>
      <point x="278.953" y="1798.26" type="curve" smooth="yes"/>
      <point x="254.772" y="1759.7"/>
      <point x="219.878" y="1733.07"/>
      <point x="181.006" y="1733.07" type="curve" smooth="yes"/>
      <point x="142.132" y="1733.07"/>
      <point x="108.462" y="1757.55"/>
      <point x="84.5879" y="1792.75" type="curve" smooth="yes"/>
      <point x="63.1611" y="1824.59"/>
      <point x="50" y="1865.91"/>
      <point x="50" y="1911.52" type="curve" smooth="yes"/>
      <point x="50" y="1961.1"/>
      <point x="63.1611" y="2006.1"/>
      <point x="84.8936" y="2040.38" type="curve" smooth="yes"/>
      <point x="109.074" y="2078.95"/>
      <point x="140.602" y="2105.58"/>
      <point x="182.841" y="2105.58" type="curve" smooth="yes"/>
      <point x="224.163" y="2105.58"/>
      <point x="255.385" y="2080.78"/>
    </contour>
    <contour>
      <point x="210.145" y="1791.65" type="curve" smooth="yes"/>
      <point x="210.145" y="2047.3" type="line" smooth="yes"/>
      <point x="210.145" y="2063.09"/>
      <point x="197.656" y="2075.58"/>
      <point x="182.229" y="2075.58" type="curve" smooth="yes"/>
      <point x="166.802" y="2075.58"/>
      <point x="154.314" y="2062.72"/>
      <point x="154.314" y="2047.3" type="curve" smooth="yes"/>
      <point x="154.314" y="1791.65" type="line" smooth="yes"/>
      <point x="154.314" y="1775.86"/>
      <point x="166.802" y="1763.37"/>
      <point x="182.229" y="1763.37" type="curve" smooth="yes"/>
      <point x="197.656" y="1763.37"/>
      <point x="210.145" y="1776.23"/>
    </contour>
  </outline>
</glyph>
<glyph name="uni06E1" format="1">
  <advance width="419"/>
  <unicode hex="06E1"/>
  <outline>
    <contour>
      <point x="177" y="2100" type="move" name="TashkilTashkilAbove"/>
    </contour>
    <contour>
      <point x="210.778" y="1750" type="move" name="_MarkAbove"/>
    </contour>
    <contour>
      <point x="214.778" y="1611.74" type="move" name="_TashkilAboveDot"/>
    </contour>
    <contour>
      <point x="250" y="1750" type="move" name="_TashkilAbove"/>
    </contour>
    <contour>
      <point x="343.065" y="1958.34" type="curve" smooth="yes"/>
      <point x="362.695" y="1958.34" type="line"/>
      <point x="326" y="1841" type="line"/>
      <point x="326" y="1841"/>
      <point x="294" y="1844"/>
      <point x="271.441" y="1813.56" type="curve" smooth="yes"/>
      <point x="237.29" y="1767.48"/>
      <point x="236.854" y="1730"/>
      <point x="148.088" y="1730" type="curve" smooth="yes"/>
      <point x="36" y="1730"/>
      <point x="51.6699" y="1855.19"/>
      <point x="51.6699" y="1855.19" type="curve"/>
      <point x="164" y="1855.19" type="line" smooth="yes"/>
      <point x="261.03" y="1855.19"/>
      <point x="276" y="1880.76"/>
      <point x="276" y="1880.76" type="curve"/>
      <point x="196" y="1946"/>
      <point x="81.667" y="1923.75"/>
      <point x="81.667" y="1923.75" type="curve"/>
      <point x="81.667" y="1923.75"/>
      <point x="108.909" y="2010.38"/>
      <point x="158.188" y="2010.38" type="curve" smooth="yes"/>
      <point x="166.454" y="2010.38"/>
      <point x="175.636" y="2008.84"/>
      <point x="185.431" y="2004.56" type="curve" smooth="yes"/>
      <point x="237.159" y="1982.52"/>
      <point x="265.626" y="1958.34"/>
    </contour>
  </outline>
</glyph>
<glyph name="uni06E2" format="1">
  <advance width="379"/>
  <unicode hex="06E2"/>
  <outline>
    <contour>
      <point x="133" y="1750" type="move" name="_MarkAbove"/>
    </contour>
    <contour>
      <point x="137" y="1748" type="move" name="_TashkilAboveDot"/>
    </contour>
    <contour>
      <point x="200" y="1700" type="move" name="_TashkilAbove"/>
    </contour>
    <contour>
      <point x="164" y="1750" type="move" name="_TashkilTashkilAbove"/>
    </contour>
    <contour>
      <point x="195" y="1935" type="move" name="_TashkilTashkilAbove2"/>
    </contour>
    <contour>
      <point x="230.284" y="2174.77" type="curve" smooth="yes"/>
      <point x="299.767" y="2174.77"/>
      <point x="329.456" y="2047.13"/>
      <point x="329.456" y="2047.74" type="curve" smooth="yes"/>
      <point x="271.301" y="1930.82" type="line"/>
      <point x="271.301" y="1930.82"/>
      <point x="222.632" y="1977.04"/>
      <point x="161.722" y="1977.04" type="curve" smooth="yes"/>
      <point x="131.725" y="1977.04"/>
      <point x="124.991" y="1956.83"/>
      <point x="125.604" y="1922.86" type="curve" smooth="yes"/>
      <point x="126.216" y="1884.29"/>
      <point x="135.397" y="1778.08"/>
      <point x="135.397" y="1778.08" type="curve"/>
      <point x="50" y="1734.92" type="line"/>
      <point x="50" y="1962.96" type="line" smooth="yes"/>
      <point x="50" y="2050.5"/>
      <point x="136.622" y="2083.86"/>
      <point x="268.852" y="2047.43" type="curve"/>
      <point x="268.852" y="2047.43"/>
      <point x="241.916" y="2095.49"/>
      <point x="201.207" y="2095.49" type="curve" smooth="yes"/>
      <point x="175.495" y="2095.49"/>
      <point x="154.987" y="2085.39"/>
      <point x="143.355" y="2078.35" type="curve" smooth="yes"/>
      <point x="139.07" y="2075.59"/>
      <point x="134.173" y="2079.88"/>
      <point x="135.704" y="2084.47" type="curve" smooth="yes"/>
      <point x="145.499" y="2115.39"/>
      <point x="180.698" y="2174.77"/>
    </contour>
  </outline>
</glyph>
<glyph name="uni06E3" format="1">
  <advance width="605"/>
  <unicode hex="06E3"/>
  <outline>
    <contour>
      <point x="317" y="-850" type="move" name="_MarkBelow"/>
    </contour>
    <contour>
      <point x="339" y="-400" type="move" name="_SeenBelow"/>
    </contour>
    <component base="uni06DC" xOffset="-0.000213175" yOffset="-3811"/>
  </outline>
</glyph>
<glyph name="uni06E4" format="1">
  <advance width="537"/>
  <unicode hex="06E4"/>
  <outline>
    <contour>
      <point x="281.562" y="1622.29" type="move" name="_AlefAbove"/>
    </contour>
    <contour>
      <point x="287.31" y="1697.85" type="move" name="_MarkAbove"/>
    </contour>
    <contour>
      <point x="250" y="1700" type="move" name="_TashkilAbove"/>
    </contour>
    <contour>
      <point x="246" y="1792" type="move" name="_TashkilTashkilAbove2"/>
    </contour>
    <contour>
      <point x="191" y="1700" type="move" name="_TashkilTashkilAbove"/>
    </contour>
    <contour>
      <point x="382" y="1852.06" type="curve"/>
      <point x="382" y="1807.46" type="line"/>
      <point x="382" y="1807.46"/>
      <point x="330" y="1742.94"/>
      <point x="244.792" y="1742.94" type="curve" smooth="yes"/>
      <point x="200.388" y="1742.94"/>
      <point x="150.629" y="1771.5"/>
      <point x="150.629" y="1771.5" type="curve"/>
      <point x="98" y="1730" type="line"/>
      <point x="70.2979" y="1806.09" type="line"/>
      <point x="70.2979" y="1806.09"/>
      <point x="82.3975" y="1868.35"/>
      <point x="148" y="1868.35" type="curve" smooth="yes"/>
      <point x="188.388" y="1868.35"/>
      <point x="225.528" y="1834.4"/>
      <point x="273.13" y="1827.29" type="curve" smooth="yes"/>
      <point x="342" y="1817"/>
      <point x="382" y="1852.06"/>
    </contour>
  </outline>
</glyph>
<glyph name="uni06E5" format="1">
  <advance width="355"/>
  <unicode hex="06E5"/>
  <outline>
    <contour>
      <point x="250" y="450" type="move" name="TashkilAbove"/>
    </contour>
    <contour>
      <point x="249.075" y="339.692" type="curve" smooth="yes"/>
      <point x="367.201" y="339.692"/>
      <point x="392.765" y="200.41"/>
      <point x="392.765" y="109.611" type="curve" smooth="yes"/>
      <point x="392.765" y="-63.6094"/>
      <point x="329.736" y="-231.54"/>
      <point x="285.659" y="-253.138" type="curve" smooth="yes"/>
      <point x="267.146" y="-262.394"/>
      <point x="234.53" y="-260.632"/>
      <point x="189.13" y="-244.322" type="curve" smooth="yes"/>
      <point x="24.7256" y="-179.088" type="line"/>
      <point x="24.7256" y="-135.013" type="line"/>
      <point x="24.7256" y="-135.013"/>
      <point x="263.18" y="-58.3184"/>
      <point x="298" y="10" type="curve"/>
      <point x="220.867" y="10" type="line" smooth="yes"/>
      <point x="170.619" y="10"/>
      <point x="130.07" y="50.5498"/>
      <point x="130.07" y="100.798" type="curve" smooth="yes"/>
      <point x="130.07" y="220.686" type="line" smooth="yes"/>
      <point x="130.07" y="286.359"/>
      <point x="161.362" y="339.692"/>
    </contour>
    <contour>
      <point x="183.402" y="223.771" type="curve" smooth="yes"/>
      <point x="183.402" y="198.646"/>
      <point x="207.644" y="190.713"/>
      <point x="222.631" y="190.713" type="curve" smooth="yes"/>
      <point x="309.019" y="190.713" type="line"/>
      <point x="309.019" y="190.713"/>
      <point x="253.483" y="260.354"/>
      <point x="216.9" y="260.354" type="curve" smooth="yes"/>
      <point x="193.979" y="260.354"/>
      <point x="183.402" y="245.811"/>
    </contour>
  </outline>
</glyph>
<glyph name="uni06E6" format="1">
  <advance width="536"/>
  <unicode hex="06E6"/>
  <outline>
    <contour>
      <point x="250" y="380" type="move" name="TashkilAbove"/>
    </contour>
    <contour>
      <point x="263.954" y="126.447" type="curve"/>
      <point x="263.954" y="125.835" type="line"/>
      <point x="486.174" y="125.835" type="line"/>
      <point x="418.528" y="0.0332031" type="line"/>
      <point x="215.593" y="0.0332031" type="line" smooth="yes"/>
      <point x="112.747" y="0.0332031"/>
      <point x="50" y="51.4561"/>
      <point x="50" y="130.12" type="curve" smooth="yes"/>
      <point x="50" y="229.904"/>
      <point x="153.457" y="285.306"/>
      <point x="228.143" y="285.306" type="curve" smooth="yes"/>
      <point x="248.65" y="285.306"/>
      <point x="248.65" y="260.513"/>
      <point x="248.65" y="260.513" type="curve"/>
      <point x="248.65" y="161.035" type="line"/>
      <point x="219.572" y="161.035" type="line"/>
      <point x="219.572" y="161.035"/>
      <point x="207.328" y="202.969"/>
      <point x="156.213" y="202.663" type="curve" smooth="yes"/>
      <point x="132.03" y="202.663"/>
      <point x="108.769" y="191.338"/>
      <point x="99.8926" y="166.545" type="curve" smooth="yes"/>
      <point x="85.8125" y="126.753"/>
      <point x="113.666" y="82.9834"/>
      <point x="156.518" y="82.9834" type="curve" smooth="yes"/>
      <point x="204.574" y="82.9834"/>
      <point x="203.961" y="126.447"/>
    </contour>
  </outline>
</glyph>
<glyph name="uni06E7" format="1">
  <advance width="536"/>
  <unicode hex="06E7"/>
  <outline>
    <contour>
      <point x="287" y="1600" type="move" name="_MarkAbove"/>
    </contour>
    <contour>
      <point x="259" y="1693" type="move" name="_TashkilAboveDot"/>
    </contour>
    <contour>
      <point x="300" y="1550" type="move" name="_TashkilAbove"/>
    </contour>
    <component base="uni06E6" yOffset="1680"/>
  </outline>
</glyph>
<glyph name="uni06E8" format="1">
  <advance width="392"/>
  <unicode hex="06E8"/>
  <outline>
    <contour>
      <point x="184" y="1700" type="move" name="_MarkAbove"/>
    </contour>
    <contour>
      <point x="338.022" y="1640" type="move" name="_NoonAbove"/>
    </contour>
    <contour>
      <point x="342.958" y="1940.79" type="curve" smooth="yes"/>
      <point x="342.958" y="1940.79"/>
      <point x="342.958" y="1855.39"/>
      <point x="342.958" y="1843.15" type="curve" smooth="yes"/>
      <point x="342.958" y="1816.21"/>
      <point x="332.857" y="1726.83"/>
      <point x="203.383" y="1726.83" type="curve" smooth="yes"/>
      <point x="46.3594" y="1726.83"/>
      <point x="20.6484" y="1872.53"/>
      <point x="77.8867" y="1969.26" type="curve"/>
      <point x="124.718" y="1969.26" type="line"/>
      <point x="80.335" y="1881.41"/>
      <point x="141.553" y="1854.17"/>
      <point x="197.261" y="1854.17" type="curve" smooth="yes"/>
      <point x="278.68" y="1854.17"/>
      <point x="304.085" y="1891.82"/>
      <point x="282.047" y="1921.51" type="curve" smooth="yes"/>
      <point x="247.459" y="1968.34" type="line"/>
      <point x="320.308" y="2026.19" type="line"/>
      <point x="320.308" y="2026.19"/>
      <point x="342.958" y="2004.46"/>
    </contour>
    <contour>
      <point x="235.827" y="2016.7" type="line"/>
      <point x="192.057" y="1973.23" type="line"/>
      <point x="148.287" y="2016.7" type="line"/>
      <point x="192.057" y="2060.47" type="line"/>
    </contour>
  </outline>
</glyph>
<glyph name="uni06E9" format="1">
  <advance width="1480"/>
  <unicode hex="06E9"/>
  <outline>
    <contour>
      <point x="740.261" y="1244.48" type="line"/>
      <point x="996.261" y="1010.46" type="line" smooth="yes"/>
      <point x="1059.7" y="949.8"/>
      <point x="1022.7" y="902.217"/>
      <point x="982.348" y="871.887" type="curve"/>
      <point x="932.261" y="840.165" type="line"/>
      <point x="932.261" y="-12.1484" type="line"/>
      <point x="547.982" y="-12.1484" type="line"/>
      <point x="547.982" y="840.165" type="line"/>
      <point x="498.174" y="871.887" type="line" smooth="yes"/>
      <point x="457.826" y="902.217"/>
      <point x="420.817" y="949.8"/>
      <point x="484.261" y="1010.46" type="curve" smooth="yes"/>
    </contour>
    <contour>
      <point x="961.2" y="917.521" type="line" smooth="yes"/>
      <point x="992.365" y="939.504"/>
      <point x="972.33" y="966.217"/>
      <point x="958.14" y="979.573" type="curve" smooth="yes"/>
      <point x="739.982" y="1179.09" type="line"/>
      <point x="521.826" y="979.573" type="line" smooth="yes"/>
      <point x="507.913" y="966.495"/>
      <point x="487.878" y="939.504"/>
      <point x="519.044" y="917.521" type="curve" smooth="yes"/>
      <point x="599.739" y="862.426" type="line"/>
      <point x="599.739" y="33.208" type="line"/>
      <point x="880.504" y="33.208" type="line"/>
      <point x="880.504" y="862.426" type="line"/>
    </contour>
    <contour>
      <point x="1226.66" y="-57.7832" type="line"/>
      <point x="1370.24" y="-311" type="line"/>
      <point x="110" y="-311" type="line"/>
      <point x="253.583" y="-57.7832" type="line"/>
      <point x="253.583" y="706.6" type="line"/>
      <point x="88.0176" y="873.834"/>
      <point x="149.513" y="1099.78"/>
      <point x="270" y="1200.79" type="curve"/>
      <point x="740.261" y="1629.03" type="line"/>
      <point x="1210.52" y="1200.79" type="line"/>
      <point x="1330.73" y="1100.06"/>
      <point x="1392.23" y="874.112"/>
      <point x="1226.66" y="706.6" type="curve"/>
    </contour>
    <contour>
      <point x="983.183" y="815.678" type="line"/>
      <point x="983.183" y="815.678"/>
      <point x="1164.33" y="915.017"/>
      <point x="1032.99" y="1043.57" type="curve"/>
      <point x="740.261" y="1311.26" type="line"/>
      <point x="447.252" y="1043.57" type="line"/>
      <point x="315.913" y="915.017"/>
      <point x="497.061" y="815.678"/>
      <point x="497.061" y="815.678" type="curve"/>
      <point x="497.061" y="-60.0088" type="line"/>
      <point x="983.183" y="-60.0088" type="line"/>
    </contour>
  </outline>
</glyph>
<glyph name="uni06EA" format="1">
  <advance width="0"/>
  <unicode hex="06EA"/>
  <outline>
    <contour>
      <point x="163.099" y="-850" type="move" name="_MarkBelow"/>
    </contour>
    <contour>
      <point x="112.539" y="-1254.71" type="line"/>
      <point x="0" y="-1052" type="line"/>
      <point x="112.539" y="-849.294" type="line"/>
      <point x="199.007" y="-849.294" type="line"/>
      <point x="311.449" y="-1052" type="line"/>
      <point x="199.007" y="-1254.71" type="line"/>
    </contour>
    <contour>
      <point x="155.773" y="-888.183" type="line"/>
      <point x="68.5732" y="-1052" type="line"/>
      <point x="155.773" y="-1215.82" type="line"/>
      <point x="242.972" y="-1052" type="line"/>
    </contour>
  </outline>
</glyph>
<glyph name="uni06EB" format="1">
  <advance width="0"/>
  <unicode hex="06EB"/>
  <outline>
    <contour>
      <point x="123" y="642" type="move" name="_AlefAbove"/>
    </contour>
    <contour>
      <point x="164" y="700" type="move" name="_MarkAbove"/>
    </contour>
    <contour>
      <point x="200" y="650" type="move" name="_TashkilAbove"/>
    </contour>
    <component base="uni06EA" xOffset="5" yOffset="1956"/>
  </outline>
</glyph>
<glyph name="uni06EC" format="1">
  <advance width="0"/>
  <unicode hex="06EC"/>
  <outline>
    <contour>
      <point x="123" y="2130" type="move" name="TashkilTashkilAbove"/>
    </contour>
    <contour>
      <point x="200" y="1650" type="move" name="_TashkilAbove"/>
    </contour>
    <contour>
      <point x="109.156" y="1750" type="move" name="_MarkAbove"/>
    </contour>
    <contour>
      <point x="133" y="1741" type="move" name="_TashkilTashkilAbove"/>
    </contour>
    <contour>
      <point x="333" y="1895" type="curve" smooth="yes"/>
      <point x="333" y="1803.05"/>
      <point x="258.463" y="1728.52"/>
      <point x="166.517" y="1728.52" type="curve" smooth="yes"/>
      <point x="74.5693" y="1728.52"/>
      <point x="0.0322266" y="1803.05"/>
      <point x="0.0322266" y="1895" type="curve" smooth="yes"/>
      <point x="0.0322266" y="1986.95"/>
      <point x="74.5693" y="2061.48"/>
      <point x="166.517" y="2061.48" type="curve" smooth="yes"/>
      <point x="258.463" y="2061.48"/>
      <point x="333" y="1986.95"/>
    </contour>
  </outline>
</glyph>
<glyph name="uni06ED" format="1">
  <advance width="379"/>
  <unicode hex="06ED"/>
  <outline>
    <contour>
      <point x="184" y="-850" type="move" name="_MarkBelow"/>
    </contour>
    <contour>
      <point x="250" y="-950" type="move" name="_TashkilBelow"/>
    </contour>
    <contour>
      <point x="204" y="-670" type="move" name="_TashkilBelowDot"/>
    </contour>
    <contour>
      <point x="191" y="-983" type="move" name="_TashkilTashkilBelow"/>
    </contour>
    <component base="uni06E2" yOffset="-3022"/>
  </outline>
</glyph>
<glyph name="uni06EE" format="1">
  <advance width="942"/>
  <unicode hex="06EE"/>
  <outline>
    <contour>
      <point x="500" y="1600" type="move" name="TashkilAbove"/>
    </contour>
    <contour>
      <point x="500" y="-210" type="move" name="TashkilBelow"/>
    </contour>
    <component base="aDal.isol"/>
    <component base="uni065B" xOffset="455" yOffset="234"/>
  </outline>
</glyph>
<glyph name="uni06EF" format="1">
  <advance width="648"/>
  <unicode hex="06EF"/>
  <outline>
    <contour>
      <point x="370" y="1200" type="move" name="TashkilAbove"/>
    </contour>
    <contour>
      <point x="-100" y="-800" type="move" name="TashkilBelow"/>
    </contour>
    <component base="aRaa.isol"/>
    <component base="smallv.above.inverted" xOffset="316" yOffset="-192.812"/>
  </outline>
</glyph>
<glyph name="uni06F4" format="1">
  <advance width="1262"/>
  <unicode hex="06F4"/>
  <outline>
    <contour>
      <point x="894.143" y="792.766" type="curve" smooth="yes"/>
      <point x="1100.61" y="793.044" type="line"/>
      <point x="997.655" y="536.487" type="line"/>
      <point x="802.873" y="537.321" type="line" smooth="yes"/>
      <point x="687.116" y="537.321"/>
      <point x="585.829" y="573.496"/>
      <point x="525.169" y="638.052" type="curve"/>
      <point x="532.682" y="400.974"/>
      <point x="519.882" y="176.695"/>
      <point x="519.882" y="176.695" type="curve"/>
      <point x="296.438" y="0" type="line"/>
      <point x="296.438" y="0"/>
      <point x="330.031" y="582.444"/>
      <point x="110.003" y="1022.89" type="curve" smooth="yes"/>
      <point x="108.891" y="1025.11"/>
      <point x="416.646" y="1289.49"/>
      <point x="416.646" y="1289.49" type="curve"/>
      <point x="449.76" y="1207.4"/>
      <point x="472.577" y="1094.96"/>
      <point x="472.577" y="1094.96" type="curve"/>
      <point x="472.577" y="1094.96"/>
      <point x="618.386" y="1289.49"/>
      <point x="760.855" y="1289.49" type="curve" smooth="yes"/>
      <point x="990.421" y="1289.49"/>
      <point x="1152.37" y="1013.7"/>
      <point x="1152.37" y="1013.7" type="curve"/>
      <point x="893.029" y="899.617" type="line"/>
      <point x="893.029" y="899.617"/>
      <point x="826.804" y="1022.05"/>
      <point x="772.264" y="1054.05" type="curve" smooth="yes"/>
      <point x="698.247" y="1097.18"/>
      <point x="601.969" y="1077.15"/>
      <point x="540.751" y="1015.37" type="curve" smooth="yes"/>
      <point x="445.864" y="919.374"/>
      <point x="664.021" y="792.766"/>
    </contour>
  </outline>
</glyph>
<glyph name="uni06F5" format="1">
  <advance width="1146"/>
  <unicode hex="06F5"/>
  <outline>
    <contour>
      <point x="720.505" y="1289.49" type="line" smooth="yes"/>
      <point x="984.853" y="1289.49"/>
      <point x="1036.89" y="1133.11"/>
      <point x="1036.89" y="940.553" type="curve" smooth="yes"/>
      <point x="1036.89" y="362.853" type="line" smooth="yes"/>
      <point x="1036.89" y="163.062"/>
      <point x="973.723" y="0"/>
      <point x="775.601" y="0" type="curve" smooth="yes"/>
      <point x="665.966" y="0"/>
      <point x="610.592" y="62.3311"/>
      <point x="588.609" y="95.4443" type="curve"/>
      <point x="548.54" y="37.0088"/>
      <point x="481.479" y="-1.39062"/>
      <point x="405.235" y="-1.39062" type="curve" smooth="yes"/>
      <point x="281.966" y="-1.39062"/>
      <point x="182.349" y="98.5049"/>
      <point x="182.349" y="221.496" type="curve" smooth="yes"/>
      <point x="182.627" y="876.522" type="line"/>
      <point x="110" y="876.522" type="line"/>
      <point x="110" y="1289.49" type="line"/>
    </contour>
    <contour>
      <point x="863.531" y="528.975" type="curve" smooth="yes"/>
      <point x="863.531" y="810.296" type="line" smooth="yes"/>
      <point x="863.531" y="871.235"/>
      <point x="816.227" y="876.244"/>
      <point x="803.427" y="876.522" type="curve" smooth="yes"/>
      <point x="354.313" y="876.522" type="line"/>
      <point x="354.313" y="510.888" type="line" smooth="yes"/>
      <point x="354.313" y="466.088"/>
      <point x="390.487" y="429.913"/>
      <point x="435.287" y="429.913" type="curve" smooth="yes"/>
      <point x="480.087" y="429.913"/>
      <point x="516.262" y="466.088"/>
      <point x="516.262" y="510.888" type="curve" smooth="yes"/>
      <point x="515.705" y="632.487" type="line"/>
      <point x="660.957" y="632.487" type="line"/>
      <point x="660.957" y="528.975" type="line" smooth="yes"/>
      <point x="660.957" y="473.044"/>
      <point x="706.313" y="427.688"/>
      <point x="762.244" y="427.688" type="curve" smooth="yes"/>
      <point x="818.175" y="427.688"/>
      <point x="863.531" y="473.044"/>
    </contour>
  </outline>
</glyph>
<glyph name="uni06F6" format="1">
  <advance width="1250"/>
  <unicode hex="06F6"/>
  <outline>
    <contour>
      <point x="511.53" y="1015.37" type="curve" smooth="yes"/>
      <point x="416.644" y="919.652"/>
      <point x="634.522" y="793.044"/>
      <point x="864.922" y="792.766" type="curve" smooth="yes"/>
      <point x="1104.5" y="792.766" type="line"/>
      <point x="931.705" y="416.557" type="line"/>
      <point x="931.705" y="416.557"/>
      <point x="453.096" y="427.966"/>
      <point x="251.635" y="0" type="curve"/>
      <point x="110" y="0" type="line"/>
      <point x="110" y="0"/>
      <point x="122.522" y="227.34"/>
      <point x="347.635" y="457.183" type="curve"/>
      <point x="347.635" y="457.183"/>
      <point x="247.739" y="516.174"/>
      <point x="177.617" y="569.044" type="curve" smooth="yes"/>
      <point x="116.4" y="615.235"/>
      <point x="82.7305" y="678.122"/>
      <point x="165.374" y="791.374" type="curve"/>
      <point x="165.374" y="791.374"/>
      <point x="424.472" y="1121.64"/>
      <point x="436.679" y="1137.53" type="curve" smooth="yes"/>
      <point x="468.957" y="1179.55"/>
      <point x="534.069" y="1289.49"/>
      <point x="731.635" y="1289.49" type="curve" smooth="yes"/>
      <point x="961.2" y="1289.49"/>
      <point x="1140.96" y="1013.71"/>
      <point x="1140.96" y="1013.71" type="curve"/>
      <point x="881.617" y="899.618" type="line"/>
      <point x="881.617" y="899.618"/>
      <point x="797.583" y="1022.05"/>
      <point x="743.044" y="1054.05" type="curve" smooth="yes"/>
      <point x="669.026" y="1097.18"/>
      <point x="572.748" y="1077.15"/>
    </contour>
  </outline>
</glyph>
<glyph name="uni06FA" format="1">
  <advance width="1975"/>
  <unicode hex="06FA"/>
  <outline>
    <contour>
      <point x="1450" y="1450" type="move" name="TashkilAbove"/>
    </contour>
    <contour>
      <point x="650" y="-650" type="move" name="TashkilBelow"/>
    </contour>
    <component base="aSen.isol"/>
    <component base="ThreeDots.a" xOffset="1400" yOffset="748"/>
    <component base="Dot.b" xOffset="1403" yOffset="-384"/>
  </outline>
</glyph>
<glyph name="uni06FF" format="1">
  <advance width="1666"/>
  <unicode hex="06FF"/>
  <outline>
    <contour>
      <point x="500" y="-210" type="move" name="TashkilBelow"/>
    </contour>
    <contour>
      <point x="1000" y="1600" type="move" name="TashkilAbove"/>
    </contour>
    <component base="aHehKnotted.isol"/>
    <component base="uni065B" xOffset="960" yOffset="253.491"/>
  </outline>
</glyph>
<glyph name="uni0750" format="1">
  <advance width="1608"/>
  <unicode hex="0750"/>
  <outline>
    <contour>
      <point x="830" y="700" type="move" name="TashkilAbove"/>
    </contour>
    <contour>
      <point x="850" y="-600" type="move" name="TashkilBelow"/>
    </contour>
    <component base="aBaa.isol"/>
    <component base="hThreeDots.b" xOffset="801" yOffset="-384"/>
  </outline>
</glyph>
<glyph name="uni0752" format="1">
  <advance width="1608"/>
  <unicode hex="0752"/>
  <outline>
    <contour>
      <point x="830" y="1100" type="move" name="TashkilAbove"/>
    </contour>
    <contour>
      <point x="830" y="-840" type="move" name="TashkilBelow"/>
    </contour>
    <component base="aBaa.isol"/>
    <component base="ThreeDots.b" xOffset="798" yOffset="-362"/>
  </outline>
</glyph>
<glyph name="uni0753" format="1">
  <advance width="1608"/>
  <unicode hex="0753"/>
  <outline>
    <contour>
      <point x="830" y="1100" type="move" name="TashkilAbove"/>
    </contour>
    <contour>
      <point x="850" y="-850" type="move" name="TashkilBelow"/>
    </contour>
    <component base="aBaa.isol"/>
    <component base="TwoDots.a" xOffset="789" yOffset="596"/>
    <component base="ThreeDots.b" xOffset="786" yOffset="-362"/>
  </outline>
</glyph>
